<svg width="130" height="130" viewBox="0 0 130 130" fill="none" xmlns="http://www.w3.org/2000/svg">
<path d="M128.737 40.51C123.076 37.4249 117.416 34.3397 111.65 31.3509C110.392 30.676 109.134 30.9653 108.505 31.833C107.876 32.7971 108.296 33.954 109.554 34.7253C110.707 35.4002 111.965 36.0751 113.118 36.6536C113.956 37.0392 114.166 37.3284 113.537 38.0997C112.594 39.4495 111.65 40.8957 110.812 42.3419C110.287 43.2096 109.868 43.4988 108.82 42.9203C107.143 41.9562 106.199 42.2454 105.151 43.788C98.547 54.2969 91.943 64.7094 85.4438 75.2183C83.3473 78.5927 83.6618 81.8707 86.1776 84.9559C86.3872 85.1487 86.8065 85.3416 86.5969 85.8236C86.3872 86.2093 86.0727 86.3057 85.5486 86.3057C82.4039 86.3057 79.2591 86.3057 76.2191 86.3057C75.4854 86.3057 75.3805 86.1128 75.3805 85.5344C75.3805 84.281 75.4854 82.9312 75.3805 81.6779C75.2757 80.8102 75.695 80.3281 76.324 79.8461C82.5087 75.1219 85.0245 68.9515 83.6618 61.7206C81.0411 48.705 64.6883 42.2454 52.6334 49.3799C51.8996 49.7656 51.4803 49.7656 50.7466 49.3799C46.0294 46.7768 40.893 45.8127 35.442 46.8732C20.3472 49.9584 14.2673 65.9628 23.8064 77.1465C26.9512 79.0748 26.9512 81.9672 26.7415 84.9559C26.7415 85.1487 26.7415 85.2452 26.7415 85.438C26.8463 86.1129 26.6367 86.4021 25.7981 86.4021C24.645 86.3057 23.4919 86.4021 22.3389 86.4021C18.4603 86.4021 14.4769 86.4021 10.5984 86.4021C9.02601 86.4021 8.29224 87.077 8.29224 88.3303C8.29224 89.5837 9.13084 90.1622 10.5984 90.1622C15.5252 90.1622 20.5568 90.1622 25.4836 90.1622C26.427 90.1622 26.6367 90.4514 26.7415 91.2227C26.8463 99.6105 30.8297 106.649 35.7565 113.397C36.6999 114.651 38.7965 115.326 40.0544 114.844C42.3605 113.879 43.7233 112.433 43.6184 109.927C43.5136 106.938 43.5136 103.949 44.0377 100.96C44.7715 96.3325 46.6584 92.0904 49.5935 88.3303C50.5369 87.1734 51.1659 87.077 52.0045 88.2339C55.9878 93.3438 58.294 99.032 58.5036 105.395C58.5036 107.034 58.5036 108.77 58.5036 110.409C58.5036 112.53 59.8664 113.976 61.8581 114.554C63.9546 115.036 65.6318 114.362 66.8897 112.626C67.6235 111.469 68.3572 110.312 69.1958 109.155C73.0744 103.66 75.2757 97.6823 75.3805 91.0299C75.3805 90.5478 75.4854 90.355 76.1143 90.355C78.6301 90.355 81.146 90.355 83.8714 90.355C81.5652 94.115 79.2591 97.5859 77.0578 101.153C76.2191 102.503 76.4288 103.756 77.5819 104.335C78.735 104.913 79.888 104.431 80.7266 103.178C83.2425 99.2249 85.6534 95.3684 88.0644 91.4155C88.5886 90.5478 89.1127 90.355 90.1609 90.355C99.5952 90.355 109.03 90.355 118.464 90.355C120.141 90.355 121.084 89.5837 121.084 88.4267C121.084 87.1734 120.246 86.5949 118.464 86.5949C114.166 86.5949 109.973 86.5949 105.675 86.5949C103.264 86.5949 100.853 86.5949 98.2325 86.5949C99.7001 85.438 100.643 84.3774 101.482 83.0277C107.772 72.9044 114.166 62.7812 120.56 52.6579C121.818 50.6333 121.713 49.862 119.512 48.6086C118.988 48.3194 118.883 48.1266 119.198 47.5481C120.246 45.9091 121.294 44.2701 122.342 42.6311C122.657 42.149 122.866 42.0526 123.391 42.3419C124.334 42.9203 125.382 43.4988 126.431 43.9809C127.688 44.6557 129.051 44.4629 129.68 43.4988C130.309 42.3419 129.995 41.1849 128.737 40.51ZM72.7599 78.4963C71.8165 79.0748 71.6068 79.8461 71.6068 80.7138C71.6068 84.4738 71.6068 88.2339 71.502 91.994C71.3972 96.8146 69.72 101.346 67.0993 105.492C65.9463 107.42 64.6883 109.252 63.3256 111.276C62.8015 110.409 63.0111 109.734 63.0111 109.059C63.2208 103.66 62.487 98.4536 60.1809 93.5366C59.0278 91.0299 57.5602 88.6196 55.7782 86.4021C53.1575 83.1241 49.1742 83.1241 46.6584 86.4021C43.7233 90.2586 41.7316 94.5007 40.6833 99.032C39.8447 102.599 39.9495 106.263 39.9495 109.927C39.9495 110.312 39.9495 110.698 39.9495 110.987C39.5302 111.18 39.4254 110.987 39.2158 110.794C36.8048 107.034 34.0793 103.371 32.6117 99.1285C31.249 95.0792 31.249 90.9334 31.249 86.6913C31.249 84.3774 31.249 82.0635 31.249 79.7497C31.249 78.5927 30.8297 77.8214 29.8863 77.0501C24.9595 73.2901 22.9678 68.4695 24.1209 62.6848C25.274 56.8036 29.1525 52.9472 35.3372 51.1153C46.1342 47.8373 54.3106 55.8395 55.883 62.4919C56.0927 63.5525 56.1975 64.5166 56.3023 65.5771C56.4071 67.0233 57.1409 67.6982 58.3988 67.6982C59.7615 67.6982 60.4953 66.9269 60.3905 65.3843C60.2857 61.0458 58.8181 57.1893 55.7782 53.8149C55.1492 53.14 55.3589 52.9472 55.9878 52.6579C66.2607 47.3553 79.2591 53.8149 80.0977 64.613C80.6218 70.5905 78.2108 75.2183 72.7599 78.4963ZM113.223 52.1759C112.594 51.8866 111.965 51.501 111.336 51.2117C110.183 50.6333 108.82 51.0189 108.296 51.7902C107.772 52.6579 108.086 53.9113 109.134 54.4898C110.183 55.1646 111.336 55.7431 112.489 56.3216C112.908 56.5144 113.118 56.8036 112.698 57.1893C112.174 57.9606 111.65 58.8283 111.126 59.696C110.812 60.1781 110.602 60.0816 110.183 59.8888C109.134 59.3103 107.981 58.7319 106.933 58.1534C105.675 57.4785 104.417 57.7677 103.788 58.6355C103.159 59.5996 103.579 60.7565 104.837 61.5278C105.885 62.1063 106.933 62.7812 108.086 63.2632C108.61 63.5525 108.715 63.7453 108.401 64.2273C107.772 65.1915 107.352 66.6376 106.514 66.9269C105.57 67.2161 104.417 66.0592 103.369 65.4807C102.845 65.2879 102.426 64.9022 101.901 64.8058C100.853 64.7094 99.9097 64.9022 99.4904 65.8663C99.0711 66.8305 99.3856 67.6982 100.329 68.2766C101.377 68.9515 102.53 69.53 103.683 70.1085C104.103 70.3013 104.417 70.4941 103.998 71.0726C103.369 72.0367 102.95 73.4829 102.006 73.7721C101.063 74.0614 99.9097 72.808 98.8615 72.326C98.4421 72.1331 98.1277 71.9403 97.7084 71.7475C96.5553 71.3618 95.4022 71.6511 94.9829 72.5188C94.5636 73.3865 94.8781 74.6398 95.8215 75.2183C96.8698 75.8932 98.0229 76.4717 99.1759 77.0501C99.7001 77.3394 99.8049 77.6286 99.4904 78.1107C98.6518 79.364 97.918 80.6174 97.0794 81.7743C95.8215 83.7025 93.0961 84.5703 91.314 83.7025C88.6934 82.4492 87.6451 80.1353 88.6934 77.8214C88.903 77.4358 89.1127 76.9537 89.3223 76.5681C95.4022 66.9269 101.482 57.2857 107.457 47.6445C107.981 46.8732 108.296 46.7768 109.134 47.2589C111.441 48.6086 113.852 49.862 116.262 51.1153C115.424 53.3328 115.424 53.3328 113.223 52.1759ZM118.883 40.6064C117.835 42.149 116.787 43.6916 115.948 45.3306C115.424 46.1983 115.005 45.8127 114.48 45.5234C113.642 45.2342 114.271 44.7521 114.48 44.4629C115.529 42.8239 116.472 41.2813 117.52 39.6423C117.625 39.4495 117.73 38.9674 118.254 39.2567C118.673 39.4495 118.988 39.6423 119.407 39.9316C119.093 40.2208 118.988 40.4136 118.883 40.6064Z" fill="black"/>
<path d="M68.5668 33.3756C69.0909 35.2074 69.6151 37.0392 70.244 38.8711C70.6633 40.2208 71.9212 40.9921 72.9695 40.7029C74.0177 40.4137 74.5419 39.2567 74.1226 37.9069V37.8105C72.8646 33.7612 71.7116 29.6155 70.4537 25.5662C69.4054 21.9026 68.2523 18.2389 67.2041 14.6717C66.8896 13.5147 65.8413 12.8399 64.8979 13.0327C63.7448 13.2255 63.2207 13.9004 63.2207 15.0573C63.2207 15.2502 63.3255 15.6358 63.4304 15.925C65.1076 21.6133 66.8896 27.4945 68.5668 33.3756Z" fill="black"/>
<path d="M82.1943 40.7029C82.9281 40.6065 83.557 40.3172 83.9763 39.7388C88.7983 33.3756 93.7251 27.0124 98.5471 20.6492C99.3857 19.4923 99.2808 18.6246 98.1278 17.8533C96.9747 17.1784 96.1361 17.3712 95.2975 18.4317C93.9347 20.1672 92.6768 21.8062 91.4189 23.5416C87.8549 28.1693 84.2908 32.8935 80.7267 37.5213C80.2026 38.1962 79.9929 38.8711 80.3074 39.546C80.6219 40.3172 81.4605 40.6065 82.1943 40.7029Z" fill="black"/>
<path d="M43.0945 32.99C43.7235 33.4721 44.3524 33.8578 44.8765 34.2434C49.5937 37.425 54.3108 40.6066 59.028 43.7882C60.2859 44.6559 61.439 44.5595 62.1727 43.6918C62.9065 42.8241 62.592 41.5707 61.439 40.7994C56.1977 37.2322 51.0612 33.7613 45.82 30.1941C45.4007 29.9049 45.0862 29.712 44.5621 29.712C43.6186 29.712 42.78 29.9049 42.4656 30.7726C42.1511 31.6403 42.2559 32.4116 43.0945 32.99Z" fill="black"/>
</svg>
