<svg width="136" height="151" viewBox="0 0 136 151" fill="none" xmlns="http://www.w3.org/2000/svg">
<mask id="path-1-inside-1_434_452" fill="white">
<path d="M25.2571 105.044C29.9386 105.044 34.6352 103.265 38.2196 99.6845L38.9356 98.9706L39.0639 98.8294C39.6659 98.0934 39.6842 96.9521 39.0769 96.1918L39.0759 96.193C38.4684 95.4297 37.4553 95.3201 36.7318 95.9083L36.5916 96.0351L35.8765 96.7478C30.0267 102.593 20.4886 102.593 14.6387 96.7478L13.9227 96.0351L13.9207 96.0328C13.1954 95.3162 12.0872 95.38 11.4384 96.1918C10.7906 97.0027 10.8538 98.2468 11.5786 98.9706L12.2947 99.6845C15.879 103.266 20.5731 105.044 25.2571 105.044Z"/>
</mask>
<path d="M25.2571 105.044C29.9386 105.044 34.6352 103.265 38.2196 99.6845L38.9356 98.9706L39.0639 98.8294C39.6659 98.0934 39.6842 96.9521 39.0769 96.1918L39.0759 96.193C38.4684 95.4297 37.4553 95.3201 36.7318 95.9083L36.5916 96.0351L35.8765 96.7478C30.0267 102.593 20.4886 102.593 14.6387 96.7478L13.9227 96.0351L13.9207 96.0328C13.1954 95.3162 12.0872 95.38 11.4384 96.1918C10.7906 97.0027 10.8538 98.2468 11.5786 98.9706L12.2947 99.6845C15.879 103.266 20.5731 105.044 25.2571 105.044Z" fill="black"/>
<path d="M25.2571 105.044V115.044H25.2571L25.2571 105.044ZM38.2196 99.6845L31.1518 92.6101L31.1593 92.6026L38.2196 99.6845ZM38.9356 98.9706L46.3373 105.695L46.1711 105.878L45.9959 106.052L38.9356 98.9706ZM39.0639 98.8294L46.8043 105.161L46.6401 105.362L46.4656 105.554L39.0639 98.8294ZM39.0769 96.1918L31.6232 89.5253L39.5083 80.7091L46.8902 89.9507L39.0769 96.1918ZM39.0759 96.193L46.5296 102.859L38.6305 111.691L31.2517 102.42L39.0759 96.193ZM36.7318 95.9083L30.0259 88.4901L30.2202 88.3144L30.4234 88.1492L36.7318 95.9083ZM36.5916 96.0351L29.5319 88.9526L29.7047 88.7804L29.8856 88.6168L36.5916 96.0351ZM35.8765 96.7478L28.8085 89.6737L28.8168 89.6654L35.8765 96.7478ZM14.6387 96.7478L21.6935 89.6605L21.7001 89.6671L21.7068 89.6737L14.6387 96.7478ZM13.9227 96.0351L6.86791 103.122L6.66233 102.918L6.46897 102.702L13.9227 96.0351ZM13.9207 96.0328L20.9491 88.9194L21.1686 89.1363L21.3744 89.3663L13.9207 96.0328ZM11.4384 96.1918L3.62539 89.9503L3.62681 89.9485L11.4384 96.1918ZM11.5786 98.9706L4.51832 106.052L4.51222 106.046L11.5786 98.9706ZM12.2947 99.6845L19.355 92.6026L19.3625 92.6102L12.2947 99.6845ZM25.2571 105.044V95.0441C27.4094 95.0441 29.5267 94.2337 31.1519 92.6101L38.2196 99.6845L45.2873 106.759C39.7438 112.297 32.4678 115.044 25.2571 115.044V105.044ZM38.2196 99.6845L31.1593 92.6026L31.8754 91.8888L38.9356 98.9706L45.9959 106.052L45.2799 106.766L38.2196 99.6845ZM38.9356 98.9706L31.534 92.2464L31.6623 92.1052L39.0639 98.8294L46.4656 105.554L46.3373 105.695L38.9356 98.9706ZM39.0639 98.8294L31.3236 92.498C28.9668 95.3792 28.9021 99.4766 31.2635 102.433L39.0769 96.1918L46.8902 89.9507C50.4662 94.4276 50.365 100.808 46.8043 105.161L39.0639 98.8294ZM39.0769 96.1918L46.5306 102.858L46.5296 102.859L39.0759 96.193L31.6222 89.5265L31.6232 89.5253L39.0769 96.1918ZM39.0759 96.193L31.2517 102.42C34.0028 105.877 39.316 106.695 43.0402 103.667L36.7318 95.9083L30.4234 88.1492C35.5945 83.9449 42.934 84.9825 46.9001 89.9655L39.0759 96.193ZM36.7318 95.9083L43.4378 103.327L43.2975 103.453L36.5916 96.0351L29.8856 88.6168L30.0259 88.4901L36.7318 95.9083ZM36.5916 96.0351L43.6513 103.117L42.9362 103.83L35.8765 96.7478L28.8168 89.6654L29.5319 88.9526L36.5916 96.0351ZM35.8765 96.7478L42.9446 103.822C33.1902 113.568 17.3251 113.568 7.57067 103.822L14.6387 96.7478L21.7068 89.6737C23.6521 91.6174 26.8632 91.6174 28.8085 89.6737L35.8765 96.7478ZM14.6387 96.7478L7.58396 103.835L6.86791 103.122L13.9227 96.0351L20.9774 88.9477L21.6935 89.6605L14.6387 96.7478ZM13.9227 96.0351L6.46897 102.702L6.46698 102.699L13.9207 96.0328L21.3744 89.3663L21.3764 89.3686L13.9227 96.0351ZM13.9207 96.0328L6.89227 103.146C8.50717 104.742 10.8121 105.673 13.2703 105.52C15.7301 105.367 17.8698 104.162 19.25 102.435L11.4384 96.1918L3.62681 89.9485C7.94035 84.5515 15.9515 83.9815 20.9491 88.9194L13.9207 96.0328ZM11.4384 96.1918L19.2514 102.433C21.7226 99.34 21.5947 94.8406 18.645 91.8949L11.5786 98.9706L4.51222 106.046C0.113029 101.653 -0.141415 94.6655 3.62539 89.9503L11.4384 96.1918ZM11.5786 98.9706L18.6389 91.8888L19.3549 92.6026L12.2947 99.6845L5.23437 106.766L4.51832 106.052L11.5786 98.9706ZM12.2947 99.6845L19.3625 92.6102C20.988 94.2342 23.103 95.0441 25.2572 95.0441L25.2571 105.044L25.2571 115.044C18.0433 115.044 10.77 112.297 5.22685 106.759L12.2947 99.6845Z" fill="black" mask="url(#path-1-inside-1_434_452)"/>
<mask id="path-3-inside-2_434_452" fill="white">
<path d="M105.137 150.692C111.095 150.431 116.17 146.298 117.711 140.629L117.852 140.056L117.975 139.448L118.071 138.823L118.073 138.806L118.758 133.525L118.759 133.522L119.088 131.196V131.193C120.793 119.928 124.157 108.989 129.101 98.6211L129.584 97.619L130.134 96.4632C132.814 90.6651 134.442 84.6495 134.955 78.5671C135.871 67.6541 133.233 58.06 127.08 50.9567L126.473 50.2756C120.099 43.3415 110.772 39.6201 100.353 39.6201C96.7006 39.6202 93.1096 40.2733 89.6672 41.5561L88.9809 41.8203C84.7321 43.5184 80.0756 43.5723 75.8011 41.9803L75.797 41.9792L75.3914 41.8224L75.3883 41.8203C71.9663 40.4538 68.3885 39.7163 64.7452 39.6294L64.0155 39.6201C53.7773 39.6201 45.0443 43.0698 38.8655 49.2487C32.6868 55.4276 29.2368 64.1597 29.2368 74.3978C29.2368 82.1016 31.1937 90.2954 34.7292 97.5127C40.32 108.911 43.979 121.025 45.6096 133.523L46.297 138.824L46.298 138.832L46.3001 138.848L46.3011 138.851C47.2008 145.613 53.0036 150.706 59.8318 150.706L60.355 150.695C65.7446 150.492 70.4853 147.171 72.5007 142.125L78.4358 127.286L78.5545 127.018L78.5596 127.007C79.2388 125.619 80.6246 124.749 82.1851 124.749C83.8496 124.75 85.3131 125.74 85.9344 127.288L91.8695 142.126L92.0728 142.609C94.262 147.542 99.1091 150.706 104.538 150.706L105.137 150.692ZM104.538 143.443C101.941 143.443 99.647 141.911 98.6467 139.518L98.6446 139.513L92.6755 124.59C91.0045 120.416 87.0798 117.664 82.6185 117.496L82.1851 117.487C77.5458 117.487 73.4198 120.279 71.6947 124.587L65.7576 139.43C64.7772 141.873 62.4601 143.443 59.8318 143.443C56.6404 143.443 53.9127 141.05 53.5004 137.887L52.81 132.583C51.1308 119.734 47.4372 107.263 41.8273 95.5034L41.8263 95.5013L41.8026 95.4528L41.2515 94.3145C38.1819 88.0559 36.4991 80.963 36.4991 74.3978L36.5073 73.6155C36.6766 65.5806 39.4563 59.0165 44.0451 54.4273C48.782 49.6905 55.6232 46.8824 64.0155 46.8823L64.5697 46.8885C67.335 46.9545 70.0572 47.5152 72.6772 48.5583L72.6782 48.5573L73.2675 48.7843L73.2727 48.7874C79.2333 51.0077 85.7533 50.9332 91.6765 48.5635L91.6796 48.5614L92.1987 48.3612L92.2028 48.3602C94.8408 47.3779 97.5767 46.8824 100.353 46.8823L101.153 46.8906C109.394 47.0726 116.415 50.0659 121.126 55.191L121.129 55.1952L121.587 55.7091L121.59 55.7122C126.285 61.1341 128.494 68.7334 127.717 77.9582C127.25 83.5126 125.691 89.0545 123.062 94.4301C117.343 106.13 113.529 118.545 111.725 131.345L111.557 132.585L110.867 137.887C110.454 141.05 107.729 143.443 104.538 143.443Z"/>
</mask>
<path d="M105.137 150.692C111.095 150.431 116.17 146.298 117.711 140.629L117.852 140.056L117.975 139.448L118.071 138.823L118.073 138.806L118.758 133.525L118.759 133.522L119.088 131.196V131.193C120.793 119.928 124.157 108.989 129.101 98.6211L129.584 97.619L130.134 96.4632C132.814 90.6651 134.442 84.6495 134.955 78.5671C135.871 67.6541 133.233 58.06 127.08 50.9567L126.473 50.2756C120.099 43.3415 110.772 39.6201 100.353 39.6201C96.7006 39.6202 93.1096 40.2733 89.6672 41.5561L88.9809 41.8203C84.7321 43.5184 80.0756 43.5723 75.8011 41.9803L75.797 41.9792L75.3914 41.8224L75.3883 41.8203C71.9663 40.4538 68.3885 39.7163 64.7452 39.6294L64.0155 39.6201C53.7773 39.6201 45.0443 43.0698 38.8655 49.2487C32.6868 55.4276 29.2368 64.1597 29.2368 74.3978C29.2368 82.1016 31.1937 90.2954 34.7292 97.5127C40.32 108.911 43.979 121.025 45.6096 133.523L46.297 138.824L46.298 138.832L46.3001 138.848L46.3011 138.851C47.2008 145.613 53.0036 150.706 59.8318 150.706L60.355 150.695C65.7446 150.492 70.4853 147.171 72.5007 142.125L78.4358 127.286L78.5545 127.018L78.5596 127.007C79.2388 125.619 80.6246 124.749 82.1851 124.749C83.8496 124.75 85.3131 125.74 85.9344 127.288L91.8695 142.126L92.0728 142.609C94.262 147.542 99.1091 150.706 104.538 150.706L105.137 150.692ZM104.538 143.443C101.941 143.443 99.647 141.911 98.6467 139.518L98.6446 139.513L92.6755 124.59C91.0045 120.416 87.0798 117.664 82.6185 117.496L82.1851 117.487C77.5458 117.487 73.4198 120.279 71.6947 124.587L65.7576 139.43C64.7772 141.873 62.4601 143.443 59.8318 143.443C56.6404 143.443 53.9127 141.05 53.5004 137.887L52.81 132.583C51.1308 119.734 47.4372 107.263 41.8273 95.5034L41.8263 95.5013L41.8026 95.4528L41.2515 94.3145C38.1819 88.0559 36.4991 80.963 36.4991 74.3978L36.5073 73.6155C36.6766 65.5806 39.4563 59.0165 44.0451 54.4273C48.782 49.6905 55.6232 46.8824 64.0155 46.8823L64.5697 46.8885C67.335 46.9545 70.0572 47.5152 72.6772 48.5583L72.6782 48.5573L73.2675 48.7843L73.2727 48.7874C79.2333 51.0077 85.7533 50.9332 91.6765 48.5635L91.6796 48.5614L92.1987 48.3612L92.2028 48.3602C94.8408 47.3779 97.5767 46.8824 100.353 46.8823L101.153 46.8906C109.394 47.0726 116.415 50.0659 121.126 55.191L121.129 55.1952L121.587 55.7091L121.59 55.7122C126.285 61.1341 128.494 68.7334 127.717 77.9582C127.25 83.5126 125.691 89.0545 123.062 94.4301C117.343 106.13 113.529 118.545 111.725 131.345L111.557 132.585L110.867 137.887C110.454 141.05 107.729 143.443 104.538 143.443Z" fill="#323131"/>
<path d="M105.137 150.692L105.575 160.683L105.468 160.687L105.361 160.69L105.137 150.692ZM117.711 140.629L127.42 143.026L127.392 143.139L127.361 143.251L117.711 140.629ZM117.852 140.056L127.654 142.037L127.612 142.246L127.561 142.453L117.852 140.056ZM117.975 139.448L127.859 140.965L127.824 141.198L127.777 141.429L117.975 139.448ZM118.071 138.823L127.994 140.063L127.977 140.202L127.955 140.34L118.071 138.823ZM118.073 138.806L108.15 137.566L108.153 137.543L108.156 137.52L118.073 138.806ZM118.758 133.525L108.842 132.238L108.966 131.279L109.272 130.362L118.758 133.525ZM118.759 133.522L128.661 134.919L128.534 135.82L128.246 136.684L118.759 133.522ZM119.088 131.196H129.088V131.899L128.99 132.594L119.088 131.196ZM119.088 131.193H109.088V130.441L109.2 129.697L119.088 131.193ZM129.101 98.6211L120.075 94.3166L120.084 94.2979L120.093 94.2793L129.101 98.6211ZM129.584 97.619L138.614 101.916L138.603 101.938L138.593 101.961L129.584 97.619ZM130.134 96.4632L139.212 100.658L139.188 100.709L139.164 100.76L130.134 96.4632ZM134.955 78.5671L144.92 79.4033L144.919 79.4079L134.955 78.5671ZM127.08 50.9567L134.546 44.3046L134.592 44.3565L134.638 44.4091L127.08 50.9567ZM126.473 50.2756L133.835 43.5085L133.888 43.5656L133.939 43.6235L126.473 50.2756ZM100.353 39.6201L100.352 29.6201H100.353V39.6201ZM89.6672 41.5561L86.0745 32.2238L86.1247 32.2044L86.1752 32.1856L89.6672 41.5561ZM88.9809 41.8203L85.2696 32.5345L85.3288 32.5108L85.3883 32.488L88.9809 41.8203ZM75.8011 41.9803L78.2264 32.2789L78.7681 32.4143L79.2913 32.6091L75.8011 41.9803ZM75.797 41.9792L73.3716 51.6807L72.769 51.53L72.1897 51.306L75.797 41.9792ZM75.3914 41.8224L71.7841 51.1491L70.7589 50.7526L69.8444 50.1429L75.3914 41.8224ZM75.3883 41.8203L79.097 32.5335L80.0666 32.9207L80.9353 33.4998L75.3883 41.8203ZM64.7452 39.6294L64.8725 29.6302L64.9281 29.6309L64.9838 29.6322L64.7452 39.6294ZM64.0155 39.6201L64.0155 29.6201H64.0792L64.1428 29.6209L64.0155 39.6201ZM38.8655 49.2487L31.7943 42.1778L31.7944 42.1777L38.8655 49.2487ZM29.2368 74.3978L19.2368 74.3978V74.3978H29.2368ZM34.7292 97.5127L25.751 101.916L25.7488 101.912L34.7292 97.5127ZM45.6096 133.523L55.5256 132.229L55.5266 132.237L45.6096 133.523ZM46.297 138.824L56.214 137.538L56.2169 137.561L56.2197 137.584L46.297 138.824ZM46.298 138.832L36.3857 140.154L36.3803 140.113L36.3752 140.073L46.298 138.832ZM46.3001 138.848L36.8132 142.01L36.5132 141.11L36.3878 140.169L46.3001 138.848ZM46.3011 138.851L55.7879 135.689L56.0884 136.59L56.2138 137.532L46.3011 138.851ZM59.8318 150.706L60.029 160.704L59.9304 160.706H59.8318V150.706ZM60.355 150.695L60.731 160.688L60.6416 160.692L60.5522 160.693L60.355 150.695ZM72.5007 142.125L63.2141 138.416L63.2158 138.412L72.5007 142.125ZM78.4358 127.286L69.1509 123.573L69.2177 123.406L69.2904 123.241L78.4358 127.286ZM78.5545 127.018L69.4091 122.973L69.4297 122.926L69.4508 122.88L78.5545 127.018ZM78.5596 127.007L69.456 122.868L69.5152 122.738L69.5782 122.61L78.5596 127.007ZM82.1851 124.749V114.75H82.187L82.1851 124.749ZM85.9344 127.288L95.215 123.564L95.2192 123.574L85.9344 127.288ZM91.8695 142.126L82.6527 146.006L82.618 145.924L82.5847 145.84L91.8695 142.126ZM92.0728 142.609L82.9325 146.666L82.8934 146.578L82.856 146.489L92.0728 142.609ZM104.538 150.706L104.762 160.703L104.65 160.706H104.538V150.706ZM104.538 143.443L104.54 153.443H104.538V143.443ZM98.6467 139.518L107.591 135.045L107.743 135.349L107.873 135.662L98.6467 139.518ZM98.6446 139.513L89.7003 143.986L89.5143 143.613L89.3598 143.227L98.6446 139.513ZM92.6755 124.59L101.959 120.873L101.96 120.876L92.6755 124.59ZM82.6185 117.496L82.809 107.497L82.9022 107.499L82.9953 107.503L82.6185 117.496ZM82.1851 117.487V107.487H82.2803L82.3755 107.489L82.1851 117.487ZM71.6947 124.587L62.41 120.873L62.4113 120.87L71.6947 124.587ZM65.7576 139.43L75.0423 143.144L75.0385 143.153L65.7576 139.43ZM59.8318 143.443L59.8329 153.443H59.8318V143.443ZM53.5004 137.887L43.5843 139.179L43.5841 139.178L53.5004 137.887ZM52.81 132.583L62.7257 131.288L62.7263 131.293L52.81 132.583ZM41.8273 95.5034L50.7716 91.0312L50.813 91.1141L50.8529 91.1977L41.8273 95.5034ZM41.8263 95.5013L32.882 99.9735L32.8629 99.9352L32.8441 99.8969L41.8263 95.5013ZM41.8026 95.4528L32.8204 99.8483L32.8111 99.8294L32.8019 99.8103L41.8026 95.4528ZM41.2515 94.3145L50.2297 89.911L50.241 89.934L50.2521 89.957L41.2515 94.3145ZM36.4991 74.3978L26.4991 74.3978V74.345L26.4996 74.2922L36.4991 74.3978ZM36.5073 73.6155L26.5079 73.51L26.5084 73.4574L26.5095 73.4049L36.5073 73.6155ZM44.0451 54.4273L36.9738 47.3565L36.9741 47.3563L44.0451 54.4273ZM64.0155 46.8823L64.0155 36.8823H64.0714L64.1273 36.8829L64.0155 46.8823ZM64.5697 46.8885L64.6814 36.8891L64.7448 36.8899L64.8082 36.8914L64.5697 46.8885ZM72.6772 48.5583L79.7483 55.6294L75.0938 60.2838L68.9783 57.8491L72.6772 48.5583ZM72.6782 48.5573L65.6072 41.4862L70.2054 36.888L76.2735 39.2259L72.6782 48.5573ZM73.2675 48.7843L76.8628 39.453L77.6703 39.7641L78.4125 40.2094L73.2675 48.7843ZM73.2727 48.7874L69.782 58.1584L68.9182 57.8366L68.1277 57.3623L73.2727 48.7874ZM91.6765 48.5635L97.2235 56.884L96.3574 57.4613L95.391 57.848L91.6765 48.5635ZM91.6796 48.5614L86.1326 40.2409L87.0511 39.6285L88.0811 39.2313L91.6796 48.5614ZM92.1987 48.3612L88.6002 39.0311L89.1753 38.8093L89.7733 38.6598L92.1987 48.3612ZM92.2028 48.3602L95.6923 57.7316L95.1694 57.9263L94.6282 58.0616L92.2028 48.3602ZM100.353 46.8823L100.352 36.8823H100.404L100.456 36.8829L100.353 46.8823ZM101.153 46.8906L101.257 36.8911L101.315 36.8917L101.374 36.893L101.153 46.8906ZM121.126 55.191L128.488 48.4236L128.826 48.7914L129.126 49.191L121.126 55.191ZM121.129 55.1952L113.665 61.85L113.383 61.5339L113.129 61.1952L121.129 55.1952ZM121.587 55.7091L114.516 62.7802L114.314 62.5777L114.123 62.3639L121.587 55.7091ZM121.59 55.7122L128.661 48.6411L128.915 48.8948L129.15 49.1661L121.59 55.7122ZM127.717 77.9582L117.753 77.1196L117.753 77.119L127.717 77.9582ZM123.062 94.4301L114.078 90.0384L114.079 90.0363L123.062 94.4301ZM111.725 131.345L101.816 130L101.82 129.975L101.823 129.95L111.725 131.345ZM111.557 132.585L101.641 131.293L101.644 131.266L101.648 131.24L111.557 132.585ZM110.867 137.887L120.783 139.178L120.783 139.18L110.867 137.887ZM105.137 150.692L104.699 140.702C106.265 140.633 107.649 139.522 108.061 138.007L117.711 140.629L127.361 143.251C124.691 153.075 115.925 160.229 105.575 160.683L105.137 150.692ZM117.711 140.629L108.002 138.232L108.144 137.66L117.852 140.056L127.561 142.453L127.42 143.026L117.711 140.629ZM117.852 140.056L108.05 138.076L108.173 137.468L117.975 139.448L127.777 141.429L127.654 142.037L117.852 140.056ZM117.975 139.448L108.091 137.932L108.187 137.306L118.071 138.823L127.955 140.34L127.859 140.965L117.975 139.448ZM118.071 138.823L108.148 137.583L108.15 137.566L118.073 138.806L127.996 140.047L127.994 140.063L118.071 138.823ZM118.073 138.806L108.156 137.52L108.842 132.238L118.758 133.525L128.675 134.811L127.99 140.093L118.073 138.806ZM118.758 133.525L109.272 130.362L109.273 130.359L118.759 133.522L128.246 136.684L128.245 136.687L118.758 133.525ZM118.759 133.522L108.858 132.124L109.186 129.799L119.088 131.196L128.99 132.594L128.661 134.919L118.759 133.522ZM119.088 131.196H109.088V131.193H119.088H129.088V131.196H119.088ZM119.088 131.193L109.2 129.697C111.054 117.449 114.711 105.564 120.075 94.3166L129.101 98.6211L138.127 102.926C133.603 112.413 130.531 122.407 128.975 132.69L119.088 131.193ZM129.101 98.6211L120.093 94.2793L120.576 93.2772L129.584 97.619L138.593 101.961L138.11 102.963L129.101 98.6211ZM129.584 97.619L120.555 93.3219L121.105 92.166L130.134 96.4632L139.164 100.76L138.614 101.916L129.584 97.619ZM130.134 96.4632L121.057 92.268C123.275 87.4674 124.58 82.5828 124.99 77.7262L134.955 78.5671L144.919 79.4079C144.303 86.7162 142.352 93.8629 139.212 100.658L130.134 96.4632ZM134.955 78.5671L124.99 77.7309C125.731 68.9039 123.552 62.1576 119.521 57.5043L127.08 50.9567L134.638 44.4091C142.914 53.9623 146.011 66.4042 144.92 79.4033L134.955 78.5671ZM127.08 50.9567L119.613 57.6088L119.006 56.9276L126.473 50.2756L133.939 43.6235L134.546 44.3046L127.08 50.9567ZM126.473 50.2756L119.11 57.0427C114.902 52.464 108.401 49.6201 100.353 49.6201V39.6201V29.6201C113.143 29.6201 125.297 34.2191 133.835 43.5085L126.473 50.2756ZM100.353 39.6201L100.353 49.6201C97.907 49.6201 95.4977 50.0551 93.1592 50.9266L89.6672 41.5561L86.1752 32.1856C90.7215 30.4914 95.4942 29.6202 100.352 29.6201L100.353 39.6201ZM89.6672 41.5561L93.2598 50.8885L92.5735 51.1527L88.9809 41.8203L85.3883 32.488L86.0745 32.2238L89.6672 41.5561ZM88.9809 41.8203L92.6921 51.1062C86.1387 53.7253 78.915 53.8111 72.3109 51.3514L75.8011 41.9803L79.2913 32.6091C81.2361 33.3335 83.3256 33.3115 85.2696 32.5345L88.9809 41.8203ZM75.8011 41.9803L73.3757 51.6817L73.3716 51.6807L75.797 41.9792L78.2223 32.2778L78.2264 32.2789L75.8011 41.9803ZM75.797 41.9792L72.1897 51.306L71.7841 51.1491L75.3914 41.8224L78.9986 32.4957L79.4042 32.6525L75.797 41.9792ZM75.3914 41.8224L69.8444 50.1429L69.8413 50.1408L75.3883 41.8203L80.9353 33.4998L80.9384 33.5019L75.3914 41.8224ZM75.3883 41.8203L71.6796 51.1072C69.348 50.176 66.9443 49.6847 64.5065 49.6265L64.7452 39.6294L64.9838 29.6322C69.8328 29.748 74.5847 30.7315 79.097 32.5335L75.3883 41.8203ZM64.7452 39.6294L64.6179 49.6286L63.8882 49.6193L64.0155 39.6201L64.1428 29.6209L64.8725 29.6302L64.7452 39.6294ZM64.0155 39.6201L64.0156 49.6201C56.068 49.6201 49.9991 52.2573 45.9365 56.3198L38.8655 49.2487L31.7944 42.1777C40.0896 33.8824 51.4865 29.6201 64.0155 29.6201L64.0155 39.6201ZM38.8655 49.2487L45.9367 56.3197C41.8739 60.3825 39.2368 66.4509 39.2368 74.3978H29.2368H19.2368C19.2368 61.8685 23.4997 50.4727 31.7943 42.1778L38.8655 49.2487ZM29.2368 74.3978L39.2368 74.3977C39.2368 80.4978 40.8094 87.1931 43.7096 93.1136L34.7292 97.5127L25.7488 101.912C21.578 93.3977 19.2368 83.7054 19.2368 74.3978L29.2368 74.3978ZM34.7292 97.5127L43.7073 93.1089C49.7751 105.479 53.753 118.643 55.5256 132.229L45.6096 133.523L35.6937 134.816C34.205 123.406 30.865 112.343 25.751 101.916L34.7292 97.5127ZM45.6096 133.523L55.5266 132.237L56.214 137.538L46.297 138.824L36.38 140.11L35.6926 134.808L45.6096 133.523ZM46.297 138.824L56.2197 137.584L56.2208 137.592L46.298 138.832L36.3752 140.073L36.3742 140.064L46.297 138.824ZM46.298 138.832L56.2103 137.511L56.2123 137.526L46.3001 138.848L36.3878 140.169L36.3857 140.154L46.298 138.832ZM46.3001 138.848L55.7869 135.686L55.7879 135.689L46.3011 138.851L36.8143 142.013L36.8132 142.01L46.3001 138.848ZM46.3011 138.851L56.2138 137.532C56.4533 139.333 58.0245 140.706 59.8318 140.706V150.706V160.706C47.9827 160.706 37.9482 151.894 36.3884 140.17L46.3011 138.851ZM59.8318 150.706L59.6346 140.708L60.1578 140.697L60.355 150.695L60.5522 160.693L60.029 160.704L59.8318 150.706ZM60.355 150.695L59.979 140.702C61.4281 140.648 62.6693 139.78 63.2141 138.416L72.5007 142.125L81.7873 145.835C78.3012 154.563 70.0611 160.337 60.731 160.688L60.355 150.695ZM78.4358 127.286L69.2904 123.241L69.4091 122.973L78.5545 127.018L87.6998 131.063L87.5812 131.331L78.4358 127.286ZM78.5545 127.018L69.4508 122.88L69.456 122.868L78.5596 127.007L87.6633 131.145L87.6581 131.156L78.5545 127.018ZM78.5596 127.007L69.5782 122.61C71.9355 117.794 76.8056 114.75 82.1851 114.75V124.749V134.749C84.4437 134.749 86.542 133.444 87.5411 131.403L78.5596 127.007ZM82.1851 124.749L82.187 114.75C87.9425 114.751 93.0752 118.231 95.215 123.564L85.9344 127.288L76.6537 131.012C77.551 133.248 79.7567 134.749 82.1832 134.749L82.1851 124.749ZM85.9344 127.288L95.2192 123.574L101.154 138.413L91.8695 142.126L82.5847 145.84L76.6496 131.002L85.9344 127.288ZM91.8695 142.126L101.086 138.247L101.289 138.73L92.0728 142.609L82.856 146.489L82.6527 146.006L91.8695 142.126ZM92.0728 142.609L101.213 138.553C101.799 139.873 103.064 140.706 104.538 140.706V150.706V160.706C95.1543 160.706 86.7252 155.212 82.9325 146.666L92.0728 142.609ZM104.538 150.706L104.314 140.708L104.913 140.695L105.137 150.692L105.361 160.69L104.762 160.703L104.538 150.706ZM104.538 143.443V153.443C97.8993 153.443 91.972 149.48 89.4199 143.373L98.6467 139.518L107.873 135.662C107.322 134.342 105.983 133.443 104.538 133.443V143.443ZM98.6467 139.518L89.7024 143.99L89.7003 143.986L98.6446 139.513L107.589 135.041L107.591 135.045L98.6467 139.518ZM98.6446 139.513L89.3598 143.227L83.3906 128.303L92.6755 124.59L101.96 120.876L107.929 135.8L98.6446 139.513ZM92.6755 124.59L83.3918 128.306C83.191 127.805 82.7595 127.508 82.2417 127.488L82.6185 117.496L82.9953 107.503C91.4002 107.82 98.818 113.027 101.959 120.873L92.6755 124.59ZM82.6185 117.496L82.4281 127.494L81.9946 127.485L82.1851 117.487L82.3755 107.489L82.809 107.497L82.6185 117.496ZM82.1851 117.487V127.487C81.6337 127.487 81.1838 127.791 80.9781 128.305L71.6947 124.587L62.4113 120.87C65.6559 112.767 73.4579 107.487 82.1851 107.487V117.487ZM71.6947 124.587L80.9794 128.301L75.0423 143.144L65.7576 139.43L56.4728 135.716L62.41 120.873L71.6947 124.587ZM65.7576 139.43L75.0385 143.153C72.541 149.378 66.5567 153.443 59.8329 153.443L59.8318 143.443L59.8306 133.443C58.3635 133.443 57.0133 134.369 56.4767 135.706L65.7576 139.43ZM59.8318 143.443V153.443C51.6237 153.443 44.6466 147.33 43.5843 139.179L53.5004 137.887L63.4165 136.595C63.1788 134.771 61.6572 133.443 59.8318 133.443V143.443ZM53.5004 137.887L43.5841 139.178L42.8936 133.874L52.81 132.583L62.7263 131.293L63.4167 136.596L53.5004 137.887ZM52.81 132.583L42.8943 133.879C41.3523 122.079 37.9607 110.623 32.8018 99.8091L41.8273 95.5034L50.8529 91.1977C56.9136 103.902 60.9094 117.389 62.7257 131.288L52.81 132.583ZM41.8273 95.5034L32.8831 99.9755L32.882 99.9735L41.8263 95.5013L50.7706 91.0292L50.7716 91.0312L41.8273 95.5034ZM41.8263 95.5013L32.8441 99.8969L32.8204 99.8483L41.8026 95.4528L50.7847 91.0573L50.8085 91.1058L41.8263 95.5013ZM41.8026 95.4528L32.8019 99.8103L32.2508 98.672L41.2515 94.3145L50.2521 89.957L50.8032 91.0953L41.8026 95.4528ZM41.2515 94.3145L32.2732 98.718C28.5674 91.1622 26.4991 82.5693 26.4991 74.3978L36.4991 74.3978L46.4991 74.3977C46.4991 79.3567 47.7963 84.9495 50.2297 89.911L41.2515 94.3145ZM36.4991 74.3978L26.4996 74.2922L26.5079 73.51L36.5073 73.6155L46.5068 73.721L46.4985 74.5033L36.4991 74.3978ZM36.5073 73.6155L26.5095 73.4049C26.7262 63.1184 30.3424 53.9883 36.9738 47.3565L44.0451 54.4273L51.1164 61.4982C48.5701 64.0446 46.6269 68.0427 46.5051 73.8261L36.5073 73.6155ZM44.0451 54.4273L36.9741 47.3563C43.8259 40.5044 53.3303 36.8824 64.0155 36.8823L64.0155 46.8823L64.0156 56.8823C57.916 56.8823 53.738 58.8766 51.1162 61.4984L44.0451 54.4273ZM64.0155 46.8823L64.1273 36.8829L64.6814 36.8891L64.5697 46.8885L64.458 56.8879L63.9038 56.8817L64.0155 46.8823ZM64.5697 46.8885L64.8082 36.8914C68.7833 36.9862 72.6758 37.7944 76.3761 39.2676L72.6772 48.5583L68.9783 57.8491C67.4386 57.2361 65.8866 56.9228 64.3312 56.8857L64.5697 46.8885ZM72.6772 48.5583L65.6061 41.4872L65.6072 41.4862L72.6782 48.5573L79.7493 55.6283L79.7483 55.6294L72.6772 48.5583ZM73.2675 48.7843L78.4125 40.2094L78.4176 40.2125L73.2727 48.7874L68.1277 57.3623L68.1225 57.3593L73.2675 48.7843ZM73.2727 48.7874L76.7633 39.4164C80.3953 40.7693 84.3467 40.7254 87.9619 39.279L91.6765 48.5635L95.391 57.848C87.16 61.1411 78.0714 61.2461 69.782 58.1584L73.2727 48.7874ZM91.6765 48.5635L86.1295 40.243L86.1326 40.2409L91.6796 48.5614L97.2266 56.8819L97.2235 56.884L91.6765 48.5635ZM91.6796 48.5614L88.0811 39.2313L88.6002 39.0311L92.1987 48.3612L95.7972 57.6913L95.2781 57.8915L91.6796 48.5614ZM92.1987 48.3612L89.7733 38.6598L89.7774 38.6587L92.2028 48.3602L94.6282 58.0616L94.624 58.0626L92.1987 48.3612ZM92.2028 48.3602L88.7133 38.9887C92.4539 37.5959 96.3705 36.8825 100.352 36.8823L100.353 46.8823L100.353 56.8823C98.7829 56.8824 97.2278 57.1598 95.6923 57.7316L92.2028 48.3602ZM100.353 46.8823L100.456 36.8829L101.257 36.8911L101.153 46.8906L101.05 56.8901L100.249 56.8818L100.353 46.8823ZM101.153 46.8906L101.374 36.893C111.908 37.1256 121.665 41.0008 128.488 48.4236L121.126 55.191L113.764 61.9585C111.165 59.1309 106.879 57.0195 100.933 56.8881L101.153 46.8906ZM121.126 55.191L129.126 49.191L129.129 49.1952L121.129 55.1952L113.129 61.1952L113.126 61.191L121.126 55.191ZM121.129 55.1952L128.593 48.5404L129.051 49.0543L121.587 55.7091L114.123 62.3639L113.665 61.85L121.129 55.1952ZM121.587 55.7091L128.658 48.638L128.661 48.6411L121.59 55.7122L114.519 62.7833L114.516 62.7802L121.587 55.7091ZM121.59 55.7122L129.15 49.1661C135.991 57.0661 138.631 67.5302 137.682 78.7973L127.717 77.9582L117.753 77.119C118.357 69.9366 116.58 65.2021 114.031 62.2583L121.59 55.7122ZM127.717 77.9582L137.682 78.7968C137.104 85.6626 135.185 92.4046 132.045 98.8239L123.062 94.4301L114.079 90.0363C116.198 85.7043 117.395 81.3626 117.753 77.1196L127.717 77.9582ZM123.062 94.4301L132.046 98.8217C126.785 109.585 123.283 120.99 121.628 132.74L111.725 131.345L101.823 129.95C103.775 116.1 107.901 102.674 114.078 90.0384L123.062 94.4301ZM111.725 131.345L121.634 132.69L121.466 133.929L111.557 132.585L101.648 131.24L101.816 130L111.725 131.345ZM111.557 132.585L121.473 133.876L120.783 139.178L110.867 137.887L100.95 136.596L101.641 131.293L111.557 132.585ZM110.867 137.887L120.783 139.18C119.721 147.325 112.752 153.442 104.54 153.443L104.538 143.443L104.537 133.443C102.707 133.444 101.188 134.775 100.951 136.594L110.867 137.887ZM72.5007 142.125L63.2158 138.412L69.1509 123.573L78.4358 127.286L87.7207 131L81.7856 145.839L72.5007 142.125ZM72.6782 48.5573L76.2735 39.2259L76.8628 39.453L73.2675 48.7843L69.6722 58.1157L69.083 57.8886L72.6782 48.5573Z" fill="black" mask="url(#path-3-inside-2_434_452)"/>
<mask id="path-5-inside-3_434_452" fill="white">
<path d="M61.4201 78.5027C65.116 78.5025 68.1199 75.4952 68.1199 71.8018C68.1197 68.1087 65.116 65.1022 61.4201 65.102C57.7241 65.102 54.7194 68.1086 54.7192 71.8018C54.7192 75.4953 57.724 78.5027 61.4201 78.5027ZM61.4201 75.4841C59.3902 75.4841 57.7379 73.8317 57.7379 71.8018C57.738 69.7722 59.3903 68.1196 61.4201 68.1196C63.4497 68.1198 65.1021 69.7723 65.1023 71.8018C65.1023 73.8316 63.4498 75.4839 61.4201 75.4841Z"/>
</mask>
<path d="M61.4201 78.5027C65.116 78.5025 68.1199 75.4952 68.1199 71.8018C68.1197 68.1087 65.116 65.1022 61.4201 65.102C57.7241 65.102 54.7194 68.1086 54.7192 71.8018C54.7192 75.4953 57.724 78.5027 61.4201 78.5027ZM61.4201 75.4841C59.3902 75.4841 57.7379 73.8317 57.7379 71.8018C57.738 69.7722 59.3903 68.1196 61.4201 68.1196C63.4497 68.1198 65.1021 69.7723 65.1023 71.8018C65.1023 73.8316 63.4498 75.4839 61.4201 75.4841Z" fill="black"/>
<path d="M61.4201 78.5027L61.4205 88.5027H61.4201V78.5027ZM68.1199 71.8018L78.1199 71.8014V71.8018H68.1199ZM61.4201 65.102V55.102H61.4205L61.4201 65.102ZM54.7192 71.8018H44.7192V71.8014L54.7192 71.8018ZM61.4201 75.4841L61.4209 85.4841H61.4201V75.4841ZM57.7379 71.8018H47.7379L47.7379 71.8011L57.7379 71.8018ZM61.4201 68.1196V58.1196H61.4209L61.4201 68.1196ZM65.1023 71.8018L75.1023 71.8011V71.8018H65.1023ZM61.4201 78.5027L61.4196 68.5027C59.5889 68.5028 58.1199 69.9765 58.1199 71.8018H68.1199H78.1199C78.1199 81.0138 70.6432 88.5023 61.4205 88.5027L61.4201 78.5027ZM68.1199 71.8018L58.1199 71.8023C58.12 73.629 59.5904 75.102 61.4196 75.102L61.4201 65.102L61.4205 55.102C70.6415 55.1024 78.1195 62.5884 78.1199 71.8014L68.1199 71.8018ZM61.4201 65.102V75.102C63.248 75.102 64.7192 73.6305 64.7192 71.8023L54.7192 71.8018L44.7192 71.8014C44.7196 62.5867 52.2002 55.102 61.4201 55.102V65.102ZM54.7192 71.8018H64.7192C64.7192 69.975 63.2494 68.5027 61.4201 68.5027V78.5027V88.5027C52.1985 88.5027 44.7192 81.0155 44.7192 71.8018H54.7192ZM61.4201 75.4841V85.4841C53.8674 85.4841 47.7379 79.3545 47.7379 71.8018H57.7379H67.7379C67.7379 68.3088 64.9131 65.4841 61.4201 65.4841V75.4841ZM57.7379 71.8018L47.7379 71.8011C47.7385 64.2499 53.8667 58.1196 61.4201 58.1196V68.1196V78.1196C64.914 78.1196 67.7376 75.2944 67.7379 71.8026L57.7379 71.8018ZM61.4201 68.1196L61.4209 58.1196C68.9727 58.1202 75.1017 64.2492 75.1023 71.8011L65.1023 71.8018L55.1023 71.8026C55.1026 75.2953 57.9267 78.1194 61.4193 78.1196L61.4201 68.1196ZM65.1023 71.8018H75.1023C75.1023 79.3552 68.972 85.4835 61.4209 85.4841L61.4201 75.4841L61.4193 65.4841C57.9275 65.4843 55.1023 68.308 55.1023 71.8018H65.1023Z" fill="black" mask="url(#path-5-inside-3_434_452)"/>
<mask id="path-7-inside-4_434_452" fill="white">
<path d="M102.949 78.5027C106.645 78.5025 109.649 75.4952 109.649 71.8018C109.649 68.1087 106.645 65.1022 102.949 65.102C99.2531 65.102 96.2484 68.1086 96.2483 71.8018C96.2483 75.4953 99.253 78.5027 102.949 78.5027ZM102.949 75.4841C100.919 75.4841 99.2669 73.8317 99.2669 71.8018C99.2671 69.7722 100.919 68.1196 102.949 68.1196C104.979 68.1198 106.631 69.7723 106.631 71.8018C106.631 73.8316 104.979 75.4839 102.949 75.4841Z"/>
</mask>
<path d="M102.949 78.5027C106.645 78.5025 109.649 75.4952 109.649 71.8018C109.649 68.1087 106.645 65.1022 102.949 65.102C99.2531 65.102 96.2484 68.1086 96.2483 71.8018C96.2483 75.4953 99.253 78.5027 102.949 78.5027ZM102.949 75.4841C100.919 75.4841 99.2669 73.8317 99.2669 71.8018C99.2671 69.7722 100.919 68.1196 102.949 68.1196C104.979 68.1198 106.631 69.7723 106.631 71.8018C106.631 73.8316 104.979 75.4839 102.949 75.4841Z" fill="black"/>
<path d="M102.949 78.5027L102.95 88.5027H102.949V78.5027ZM109.649 71.8018L119.649 71.8014V71.8018H109.649ZM102.949 65.102V55.102H102.95L102.949 65.102ZM96.2483 71.8018H86.2483V71.8014L96.2483 71.8018ZM102.949 75.4841L102.95 85.4841H102.949V75.4841ZM99.2669 71.8018H89.2669L89.2669 71.8011L99.2669 71.8018ZM102.949 68.1196V58.1196H102.95L102.949 68.1196ZM106.631 71.8018L116.631 71.8011V71.8018H106.631ZM102.949 78.5027L102.949 68.5027C101.118 68.5028 99.6489 69.9765 99.6489 71.8018H109.649H119.649C119.649 81.0138 112.172 88.5023 102.95 88.5027L102.949 78.5027ZM109.649 71.8018L99.6489 71.8023C99.649 73.629 101.119 75.102 102.949 75.102L102.949 65.102L102.95 55.102C112.171 55.1024 119.649 62.5884 119.649 71.8014L109.649 71.8018ZM102.949 65.102V75.102C104.777 75.102 106.248 73.6305 106.248 71.8023L96.2483 71.8018L86.2483 71.8014C86.2487 62.5867 93.7292 55.102 102.949 55.102V65.102ZM96.2483 71.8018H106.248C106.248 69.975 104.778 68.5027 102.949 68.5027V78.5027V88.5027C93.7275 88.5027 86.2483 81.0155 86.2483 71.8018H96.2483ZM102.949 75.4841V85.4841C95.3965 85.4841 89.2669 79.3545 89.2669 71.8018H99.2669H109.267C109.267 68.3088 106.442 65.4841 102.949 65.4841V75.4841ZM99.2669 71.8018L89.2669 71.8011C89.2675 64.2499 95.3958 58.1196 102.949 58.1196V68.1196V78.1196C106.443 78.1196 109.267 75.2944 109.267 71.8026L99.2669 71.8018ZM102.949 68.1196L102.95 58.1196C110.502 58.1202 116.631 64.2492 116.631 71.8011L106.631 71.8018L96.6313 71.8026C96.6316 75.2953 99.4557 78.1194 102.948 78.1196L102.949 68.1196ZM106.631 71.8018H116.631C116.631 79.3552 110.501 85.4835 102.95 85.4841L102.949 75.4841L102.948 65.4841C99.4566 65.4843 96.6313 68.308 96.6313 71.8018H106.631Z" fill="black" mask="url(#path-7-inside-4_434_452)"/>
<mask id="path-9-inside-5_434_452" fill="white">
<path d="M12.1034 148.795C13.0532 148.795 13.8238 148.024 13.8238 147.074V1.72145C13.8238 0.771637 13.0532 0.000106812 12.1034 6.10352e-05H1.72139C0.771551 6.10352e-05 0 0.771606 0 1.72145V147.074C0 148.024 0.771551 148.795 1.72139 148.795H12.1034ZM3.44175 3.4418H10.383V145.353H3.44175V3.4418Z"/>
</mask>
<path d="M12.1034 148.795C13.0532 148.795 13.8238 148.024 13.8238 147.074V1.72145C13.8238 0.771637 13.0532 0.000106812 12.1034 6.10352e-05H1.72139C0.771551 6.10352e-05 0 0.771606 0 1.72145V147.074C0 148.024 0.771551 148.795 1.72139 148.795H12.1034ZM3.44175 3.4418H10.383V145.353H3.44175V3.4418Z" fill="#323131"/>
<path d="M12.1034 148.795L12.104 158.795H12.1034V148.795ZM12.1034 6.10352e-05V-9.99994H12.104L12.1034 6.10352e-05ZM3.44175 3.4418H-6.55825V-6.5582H3.44175V3.4418ZM10.383 3.4418V-6.5582H20.383V3.4418H10.383ZM10.383 145.353H20.383V155.353H10.383V145.353ZM3.44175 145.353V155.353H-6.55825V145.353H3.44175ZM12.1034 148.795L12.1028 138.795C7.52303 138.795 3.82377 142.508 3.82377 147.074H13.8238H23.8238C23.8238 153.539 18.5834 158.795 12.104 158.795L12.1034 148.795ZM13.8238 147.074H3.82377V1.72145H13.8238H23.8238V147.074H13.8238ZM13.8238 1.72145H3.82377C3.82377 6.28731 7.52303 9.99977 12.1028 10.0001L12.1034 6.10352e-05L12.104 -9.99994C18.5834 -9.99954 23.8238 -4.74402 23.8238 1.72145H13.8238ZM12.1034 6.10352e-05V10.0001H1.72139V6.10352e-05V-9.99994H12.1034V6.10352e-05ZM1.72139 6.10352e-05V10.0001C6.2944 10.0001 10 6.29445 10 1.72145H0H-10C-10 -4.75124 -4.7513 -9.99994 1.72139 -9.99994V6.10352e-05ZM0 1.72145H10V147.074H0H-10V1.72145H0ZM0 147.074H10C10 142.501 6.2944 138.795 1.72139 138.795V148.795V158.795C-4.7513 158.795 -10 153.546 -10 147.074H0ZM1.72139 148.795V138.795H12.1034V148.795V158.795H1.72139V148.795ZM3.44175 3.4418V-6.5582H10.383V3.4418V13.4418H3.44175V3.4418ZM10.383 3.4418H20.383V145.353H10.383H0.383046V3.4418H10.383ZM10.383 145.353V155.353H3.44175V145.353V135.353H10.383V145.353ZM3.44175 145.353H-6.55825V3.4418H3.44175H13.4418V145.353H3.44175Z" fill="black" mask="url(#path-9-inside-5_434_452)"/>
<mask id="path-11-inside-6_434_452" fill="white">
<path d="M32.8682 44.5485H12.1035C11.3871 44.5485 10.8057 43.967 10.8057 43.2507V1.72116C10.8057 1.00478 11.3871 0.423367 12.1035 0.423367H32.8682C33.5846 0.423367 34.166 1.00478 34.166 1.72116C34.166 2.43755 33.5846 3.01896 32.8682 3.01896H13.4013V41.9529H32.8682C33.5846 41.9529 34.166 42.5343 34.166 43.2507C34.166 43.967 33.5846 44.5485 32.8682 44.5485Z"/>
</mask>
<path d="M32.8682 44.5485H12.1035C11.3871 44.5485 10.8057 43.967 10.8057 43.2507V1.72116C10.8057 1.00478 11.3871 0.423367 12.1035 0.423367H32.8682C33.5846 0.423367 34.166 1.00478 34.166 1.72116C34.166 2.43755 33.5846 3.01896 32.8682 3.01896H13.4013V41.9529H32.8682C33.5846 41.9529 34.166 42.5343 34.166 43.2507C34.166 43.967 33.5846 44.5485 32.8682 44.5485Z" fill="#323131"/>
<path d="M13.4013 3.01896H3.40126V-6.98104H13.4013V3.01896ZM13.4013 41.9529V51.9529H3.40126V41.9529H13.4013ZM32.8682 44.5485V54.5485H12.1035V44.5485V34.5485H32.8682V44.5485ZM12.1035 44.5485V54.5485C5.86423 54.5485 0.805664 49.4899 0.805664 43.2507H10.8057H20.8057C20.8057 38.4442 16.9099 34.5485 12.1035 34.5485V44.5485ZM10.8057 43.2507H0.805664V1.72116H10.8057H20.8057V43.2507H10.8057ZM10.8057 1.72116H0.805664C0.805664 -4.51807 5.86423 -9.57663 12.1035 -9.57663V0.423367V10.4234C16.9099 10.4234 20.8057 6.52763 20.8057 1.72116H10.8057ZM12.1035 0.423367V-9.57663H32.8682V0.423367V10.4234H12.1035V0.423367ZM32.8682 0.423367V-9.57663C39.1074 -9.57663 44.166 -4.51807 44.166 1.72116H34.166H24.166C24.166 6.52763 28.0617 10.4234 32.8682 10.4234V0.423367ZM34.166 1.72116H44.166C44.166 7.96039 39.1074 13.019 32.8682 13.019V3.01896V-6.98104C28.0617 -6.98104 24.166 -3.0853 24.166 1.72116H34.166ZM32.8682 3.01896V13.019H13.4013V3.01896V-6.98104H32.8682V3.01896ZM13.4013 3.01896H23.4013V41.9529H13.4013H3.40126V3.01896H13.4013ZM13.4013 41.9529V31.9529H32.8682V41.9529V51.9529H13.4013V41.9529ZM32.8682 41.9529V31.9529C39.1074 31.9529 44.166 37.0114 44.166 43.2507H34.166H24.166C24.166 48.0571 28.0617 51.9529 32.8682 51.9529V41.9529ZM34.166 43.2507H44.166C44.166 49.4899 39.1074 54.5485 32.8682 54.5485V44.5485V34.5485C28.0617 34.5485 24.166 38.4442 24.166 43.2507H34.166Z" fill="black" mask="url(#path-11-inside-6_434_452)"/>
<mask id="path-13-inside-7_434_452" fill="white">
<path d="M32.8682 34.166H12.1035C11.3871 34.166 10.8057 33.5846 10.8057 32.8682V12.1035C10.8057 11.3871 11.3871 10.8057 12.1035 10.8057H32.8682C33.5846 10.8057 34.166 11.3871 34.166 12.1035C34.166 12.8199 33.5846 13.4013 32.8682 13.4013H13.4013V31.5704H32.8682C33.5846 31.5704 34.166 32.1518 34.166 32.8682C34.166 33.5846 33.5846 34.166 32.8682 34.166Z"/>
</mask>
<path d="M32.8682 34.166H12.1035C11.3871 34.166 10.8057 33.5846 10.8057 32.8682V12.1035C10.8057 11.3871 11.3871 10.8057 12.1035 10.8057H32.8682C33.5846 10.8057 34.166 11.3871 34.166 12.1035C34.166 12.8199 33.5846 13.4013 32.8682 13.4013H13.4013V31.5704H32.8682C33.5846 31.5704 34.166 32.1518 34.166 32.8682C34.166 33.5846 33.5846 34.166 32.8682 34.166Z" fill="#323131"/>
<path d="M13.4013 13.4013H3.40126V3.40127H13.4013V13.4013ZM13.4013 31.5704V41.5704H3.40126V31.5704H13.4013ZM32.8682 34.166V44.166H12.1035V34.166V24.166H32.8682V34.166ZM12.1035 34.166V44.166C5.86423 44.166 0.805664 39.1075 0.805664 32.8682H10.8057H20.8057C20.8057 28.0618 16.9099 24.166 12.1035 24.166V34.166ZM10.8057 32.8682H0.805664V12.1035H10.8057H20.8057V32.8682H10.8057ZM10.8057 12.1035H0.805664C0.805664 5.86424 5.86423 0.805672 12.1035 0.805672V10.8057V20.8057C16.9099 20.8057 20.8057 16.9099 20.8057 12.1035H10.8057ZM12.1035 10.8057V0.805672H32.8682V10.8057V20.8057H12.1035V10.8057ZM32.8682 10.8057V0.805672C39.1074 0.805672 44.166 5.86424 44.166 12.1035H34.166H24.166C24.166 16.9099 28.0617 20.8057 32.8682 20.8057V10.8057ZM34.166 12.1035H44.166C44.166 18.3427 39.1074 23.4013 32.8682 23.4013V13.4013V3.40127C28.0617 3.40127 24.166 7.29701 24.166 12.1035H34.166ZM32.8682 13.4013V23.4013H13.4013V13.4013V3.40127H32.8682V13.4013ZM13.4013 13.4013H23.4013V31.5704H13.4013H3.40126V13.4013H13.4013ZM13.4013 31.5704V21.5704H32.8682V31.5704V41.5704H13.4013V31.5704ZM32.8682 31.5704V21.5704C39.1074 21.5704 44.166 26.629 44.166 32.8682H34.166H24.166C24.166 37.6747 28.0617 41.5704 32.8682 41.5704V31.5704ZM34.166 32.8682H44.166C44.166 39.1075 39.1074 44.166 32.8682 44.166V34.166V24.166C28.0617 24.166 24.166 28.0618 24.166 32.8682H34.166Z" fill="black" mask="url(#path-13-inside-7_434_452)"/>
<mask id="path-15-inside-8_434_452" fill="white">
<path d="M34.1102 39.6351H13.3454C12.629 39.6351 12.0476 39.0537 12.0476 38.3373V17.5726C12.0476 16.8562 12.629 16.2748 13.3454 16.2748H34.1102C34.8265 16.2748 35.4079 16.8562 35.4079 17.5726C35.4079 18.289 34.8265 18.8704 34.1102 18.8704H14.6432V37.0395H34.1102C34.8265 37.0395 35.4079 37.621 35.4079 38.3373C35.4079 39.0537 34.8265 39.6351 34.1102 39.6351Z"/>
</mask>
<path d="M34.1102 39.6351H13.3454C12.629 39.6351 12.0476 39.0537 12.0476 38.3373V17.5726C12.0476 16.8562 12.629 16.2748 13.3454 16.2748H34.1102C34.8265 16.2748 35.4079 16.8562 35.4079 17.5726C35.4079 18.289 34.8265 18.8704 34.1102 18.8704H14.6432V37.0395H34.1102C34.8265 37.0395 35.4079 37.621 35.4079 38.3373C35.4079 39.0537 34.8265 39.6351 34.1102 39.6351Z" fill="#323131"/>
<path d="M14.6432 18.8704H4.6432V8.87038H14.6432V18.8704ZM14.6432 37.0395V47.0395H4.6432V37.0395H14.6432ZM34.1102 39.6351V49.6351H13.3454V39.6351V29.6351H34.1102V39.6351ZM13.3454 39.6351V49.6351C7.10617 49.6351 2.04761 44.5766 2.04761 38.3373H12.0476H22.0476C22.0476 33.5309 18.1519 29.6351 13.3454 29.6351V39.6351ZM12.0476 38.3373H2.04761V17.5726H12.0476H22.0476V38.3373H12.0476ZM12.0476 17.5726H2.04761C2.04761 11.3334 7.10617 6.27479 13.3454 6.27479V16.2748V26.2748C18.1519 26.2748 22.0476 22.379 22.0476 17.5726H12.0476ZM13.3454 16.2748V6.27479H34.1102V16.2748V26.2748H13.3454V16.2748ZM34.1102 16.2748V6.27479C40.3494 6.27479 45.408 11.3334 45.408 17.5726H35.4079H25.408C25.408 22.379 29.3037 26.2748 34.1102 26.2748V16.2748ZM35.4079 17.5726H45.408C45.408 23.8118 40.3494 28.8704 34.1102 28.8704V18.8704V8.87038C29.3037 8.87038 25.408 12.7661 25.408 17.5726H35.4079ZM34.1102 18.8704V28.8704H14.6432V18.8704V8.87038H34.1102V18.8704ZM14.6432 18.8704H24.6432V37.0395H14.6432H4.6432V18.8704H14.6432ZM14.6432 37.0395V27.0395H34.1102V37.0395V47.0395H14.6432V37.0395ZM34.1102 37.0395V27.0395C40.3494 27.0395 45.408 32.0981 45.408 38.3373H35.4079H25.408C25.408 43.1438 29.3037 47.0395 34.1102 47.0395V37.0395ZM35.4079 38.3373H45.408C45.408 44.5766 40.3494 49.6351 34.1102 49.6351V39.6351V29.6351C29.3037 29.6351 25.408 33.5309 25.408 38.3373H35.4079Z" fill="black" mask="url(#path-15-inside-8_434_452)"/>
<mask id="path-17-inside-9_434_452" fill="white">
<path d="M34.1102 29.0674H13.3454C12.629 29.0674 12.0476 28.486 12.0476 27.7696V7.00484C12.0476 6.28845 12.629 5.70704 13.3454 5.70704H34.1102C34.8265 5.70704 35.4079 6.28845 35.4079 7.00484C35.4079 7.72122 34.8265 8.30263 34.1102 8.30263H14.6432V26.4718H34.1102C34.8265 26.4718 35.4079 27.0532 35.4079 27.7696C35.4079 28.486 34.8265 29.0674 34.1102 29.0674Z"/>
</mask>
<path d="M34.1102 29.0674H13.3454C12.629 29.0674 12.0476 28.486 12.0476 27.7696V7.00484C12.0476 6.28845 12.629 5.70704 13.3454 5.70704H34.1102C34.8265 5.70704 35.4079 6.28845 35.4079 7.00484C35.4079 7.72122 34.8265 8.30263 34.1102 8.30263H14.6432V26.4718H34.1102C34.8265 26.4718 35.4079 27.0532 35.4079 27.7696C35.4079 28.486 34.8265 29.0674 34.1102 29.0674Z" fill="#323131"/>
<path d="M14.6432 8.30263H4.6432V-1.69737H14.6432V8.30263ZM14.6432 26.4718V36.4718H4.6432V26.4718H14.6432ZM34.1102 29.0674V39.0674H13.3454V29.0674V19.0674H34.1102V29.0674ZM13.3454 29.0674V39.0674C7.10617 39.0674 2.04761 34.0088 2.04761 27.7696H12.0476H22.0476C22.0476 22.9631 18.1519 19.0674 13.3454 19.0674V29.0674ZM12.0476 27.7696H2.04761V7.00484H12.0476H22.0476V27.7696H12.0476ZM12.0476 7.00484H2.04761C2.04761 0.765606 7.10617 -4.29296 13.3454 -4.29296V5.70704V15.707C18.1519 15.707 22.0476 11.8113 22.0476 7.00484H12.0476ZM13.3454 5.70704V-4.29296H34.1102V5.70704V15.707H13.3454V5.70704ZM34.1102 5.70704V-4.29296C40.3494 -4.29296 45.408 0.765606 45.408 7.00484H35.4079H25.408C25.408 11.8113 29.3037 15.707 34.1102 15.707V5.70704ZM35.4079 7.00484H45.408C45.408 13.2441 40.3494 18.3026 34.1102 18.3026V8.30263V-1.69737C29.3037 -1.69737 25.408 2.19837 25.408 7.00484H35.4079ZM34.1102 8.30263V18.3026H14.6432V8.30263V-1.69737H34.1102V8.30263ZM14.6432 8.30263H24.6432V26.4718H14.6432H4.6432V8.30263H14.6432ZM14.6432 26.4718V16.4718H34.1102V26.4718V36.4718H14.6432V26.4718ZM34.1102 26.4718V16.4718C40.3494 16.4718 45.408 21.5304 45.408 27.7696H35.4079H25.408C25.408 32.576 29.3037 36.4718 34.1102 36.4718V26.4718ZM35.4079 27.7696H45.408C45.408 34.0088 40.3494 39.0674 34.1102 39.0674V29.0674V19.0674C29.3037 19.0674 25.408 22.9631 25.408 27.7696H35.4079Z" fill="black" mask="url(#path-17-inside-9_434_452)"/>
<mask id="path-19-inside-10_434_452" fill="white">
<path d="M32.8682 23.7834H12.1035C11.3871 23.7834 10.8057 23.202 10.8057 22.4857C10.8057 21.7693 11.3871 21.1879 12.1035 21.1879H32.8682C33.5846 21.1879 34.166 21.7693 34.166 22.4857C34.166 23.202 33.5846 23.7834 32.8682 23.7834Z"/>
</mask>
<path d="M32.8682 23.7834H12.1035C11.3871 23.7834 10.8057 23.202 10.8057 22.4857C10.8057 21.7693 11.3871 21.1879 12.1035 21.1879H32.8682C33.5846 21.1879 34.166 21.7693 34.166 22.4857C34.166 23.202 33.5846 23.7834 32.8682 23.7834Z" fill="black"/>
<path d="M32.8682 23.7834V33.7834H12.1035V23.7834V13.7834H32.8682V23.7834ZM12.1035 23.7834V33.7834C5.86423 33.7834 0.805664 28.7249 0.805664 22.4857H10.8057H20.8057C20.8057 17.6792 16.9099 13.7834 12.1035 13.7834V23.7834ZM10.8057 22.4857H0.805664C0.805664 16.2464 5.86423 11.1879 12.1035 11.1879V21.1879V31.1879C16.9099 31.1879 20.8057 27.2921 20.8057 22.4857H10.8057ZM12.1035 21.1879V11.1879H32.8682V21.1879V31.1879H12.1035V21.1879ZM32.8682 21.1879V11.1879C39.1074 11.1879 44.166 16.2464 44.166 22.4857H34.166H24.166C24.166 27.2921 28.0617 31.1879 32.8682 31.1879V21.1879ZM34.166 22.4857H44.166C44.166 28.7249 39.1074 33.7834 32.8682 33.7834V23.7834V13.7834C28.0617 13.7834 24.166 17.6792 24.166 22.4857H34.166Z" fill="black" mask="url(#path-19-inside-10_434_452)"/>
<mask id="path-21-inside-11_434_452" fill="white">
<path d="M82.1842 105.304C92.0704 105.304 100.112 97.2621 100.112 87.3759C100.112 86.076 99.0581 85.0211 97.7582 85.0208H66.6111C65.3111 85.0208 64.2561 86.0759 64.2561 87.3759C64.2561 97.2621 72.298 105.304 82.1842 105.304ZM82.1842 100.595C75.7003 100.595 70.2886 95.898 69.1757 89.7299H95.1926C94.0797 95.898 88.668 100.595 82.1842 100.595Z"/>
</mask>
<path d="M82.1842 105.304C92.0704 105.304 100.112 97.2621 100.112 87.3759C100.112 86.076 99.0581 85.0211 97.7582 85.0208H66.6111C65.3111 85.0208 64.2561 86.0759 64.2561 87.3759C64.2561 97.2621 72.298 105.304 82.1842 105.304ZM82.1842 100.595C75.7003 100.595 70.2886 95.898 69.1757 89.7299H95.1926C94.0797 95.898 88.668 100.595 82.1842 100.595Z" fill="#323131"/>
<path d="M82.1842 105.304V115.304H82.1841L82.1842 105.304ZM100.112 87.3759H110.112V87.3759L100.112 87.3759ZM97.7582 85.0208V75.0208H97.76L97.7582 85.0208ZM64.2561 87.3759L54.2561 87.3759V87.3759H64.2561ZM82.1842 100.595V110.595H82.1841L82.1842 100.595ZM69.1757 89.7299L59.3346 91.5056L57.2099 79.7299H69.1757V89.7299ZM95.1926 89.7299V79.7299H107.159L105.034 91.5056L95.1926 89.7299ZM82.1842 105.304V95.304C86.5475 95.304 90.1122 91.7393 90.1122 87.3759L100.112 87.3759L110.112 87.3759C110.112 102.785 97.5933 115.304 82.1842 115.304V105.304ZM100.112 87.3759H90.1122C90.1122 91.5949 93.5309 95.0201 97.7565 95.0208L97.7582 85.0208L97.76 75.0208C104.585 75.022 110.112 80.5571 110.112 87.3759H100.112ZM97.7582 85.0208V95.0208H66.6111V85.0208V75.0208H97.7582V85.0208ZM66.6111 85.0208V95.0208C70.834 95.0208 74.2561 91.5987 74.2561 87.3759H64.2561H54.2561C54.2561 80.553 59.7883 75.0208 66.6111 75.0208V85.0208ZM64.2561 87.3759L74.2561 87.3759C74.2561 91.7392 77.8208 95.3039 82.1842 95.304L82.1842 105.304L82.1841 115.304C66.7751 115.304 54.2562 102.785 54.2561 87.3759L64.2561 87.3759ZM82.1842 100.595L82.1841 110.595C70.7699 110.595 61.2901 102.343 59.3346 91.5056L69.1757 89.7299L79.0168 87.9542C79.2872 89.4529 80.6308 90.5949 82.1842 90.5949L82.1842 100.595ZM69.1757 89.7299V79.7299H95.1926V89.7299V99.7299H69.1757V89.7299ZM95.1926 89.7299L105.034 91.5056C103.078 102.343 93.5985 110.595 82.1842 110.595V100.595V90.5949C83.7376 90.5949 85.0811 89.453 85.3516 87.9542L95.1926 89.7299Z" fill="black" mask="url(#path-21-inside-11_434_452)"/>
</svg>
