<svg width="112" height="153" viewBox="0 0 112 153" fill="none" xmlns="http://www.w3.org/2000/svg">
<path d="M96.59 82.0967C96.864 73.8787 93.1648 66.0857 86.7255 61.2682C80.2861 56.3091 71.9286 55.0339 64.3932 57.726C62.8861 58.2928 62.0641 58.8595 61.7901 59.7097C61.6531 60.2764 61.6531 60.8432 61.9271 61.4099C62.8862 63.3936 64.3932 62.8268 65.4893 62.4018L65.9003 62.2601C73.5727 59.8514 80.2861 61.2683 85.9034 66.7942C89.8766 70.6198 92.0687 75.7206 92.0687 81.2465C92.0687 86.9141 89.8766 92.2984 85.7664 96.4074C83.0263 99.2412 81.2452 102.075 80.5601 105.192C80.1491 107.176 80.1491 109.159 80.1491 111.143C80.1491 111.993 80.1491 112.843 80.1491 113.835C79.8751 121.628 77.683 128.713 73.4357 134.947C72.2027 136.789 70.9696 138.064 69.7365 138.914C69.3255 139.198 69.0515 139.339 68.9145 139.198C68.7775 139.198 68.6405 138.914 68.5035 138.489C67.9554 137.072 67.6814 135.655 67.2704 133.672C66.1743 126.021 66.0373 118.086 66.0373 110.718C66.0373 107.884 64.9413 105.192 63.0232 103.208C61.105 101.225 58.5019 100.091 55.7618 100.233C50.1445 100.233 45.7602 105.05 45.7602 111.001V113.694C45.7602 118.369 45.8972 123.187 45.4862 128.004V128.571C45.2122 131.83 44.9382 135.23 43.7051 138.348C43.5681 138.914 43.2941 139.198 43.0201 139.198C42.746 139.198 42.472 139.056 42.061 138.773C40.8279 137.781 39.5949 136.506 38.3618 134.805C33.5665 127.721 31.2374 119.645 31.6484 110.718C31.9224 105.05 30.0043 100.233 25.7571 95.9823C20.6878 90.8815 18.7697 84.3637 20.2768 77.1375C21.5099 71.1865 24.9351 66.3691 29.8673 63.5353C34.7996 60.7015 40.6909 60.1347 46.3082 62.1184C47.4043 62.5435 49.1854 63.1102 50.0074 61.1266C50.2815 60.5598 50.2814 59.993 50.1444 59.568C49.8704 58.8595 49.0484 58.2928 47.8153 57.726C43.9791 56.3091 39.7319 55.884 35.2106 56.7342C29.1823 57.726 23.565 61.4099 19.8658 67.0775C16.0296 72.6034 14.5225 79.4046 15.7556 85.6389C16.8516 91.4482 19.3178 96.2657 23.428 100.233C26.0311 102.783 27.2642 105.759 27.2642 109.443C27.2642 111.993 27.2642 114.827 27.5382 117.519C28.4973 126.162 31.3744 133.388 36.1697 139.339C37.6768 141.323 39.3209 142.598 41.1019 143.448C41.924 143.874 42.746 144.015 43.4311 144.015C44.9382 144.015 46.3082 143.165 47.4043 141.465C48.2263 140.048 48.7744 138.348 49.0484 136.931C50.2815 131.546 50.4185 125.879 50.5555 120.495V119.361C50.5555 118.511 50.5555 117.803 50.5555 116.952C50.5555 115.252 50.5555 113.41 50.5555 111.568C50.4185 107.884 52.7476 105.192 55.8988 105.05C57.5429 105.05 59.0499 105.476 60.146 106.609C61.2421 107.743 61.9271 109.443 61.9271 111.285C61.9271 116.386 61.9271 122.478 62.4751 128.571C62.7491 132.113 63.2972 136.364 64.8043 140.19C65.6263 142.315 66.7224 143.59 68.2294 144.015C69.5995 144.44 71.2436 144.015 73.0247 142.74C75.6278 140.898 77.4089 138.348 78.642 136.222C83.3003 128.713 85.4924 119.928 85.2184 110.293C85.0814 106.184 86.4514 102.925 89.4656 99.9496C93.8498 94.9905 96.453 89.0395 96.59 82.0967Z" fill="black"/>
<path d="M22.0581 52.7664C30.2785 52.7664 38.499 52.7664 46.5824 52.7664C49.7336 52.7664 52.8848 52.7664 56.036 52.7664H65.4895C73.7099 52.7664 81.9304 52.7664 90.2878 52.7664C93.85 52.7664 96.4532 51.4912 98.5083 48.6574C103.852 41.4312 105.907 33.4966 104.4 24.9952C102.344 13.66 95.9051 5.58367 85.4926 1.89973C75.08 -1.9259 65.3525 0.0577579 56.721 7.56733C56.036 8.13409 55.8989 8.13409 55.2139 7.56733C48.2265 1.33297 40.1431 -0.934073 31.2376 0.624517C21.236 2.46649 13.0156 9.26761 9.3164 19.0442C5.61719 28.8208 6.98727 39.731 13.1526 48.0907C15.4817 51.2078 18.2219 52.7664 22.0581 52.7664ZM60.5572 27.2622V27.829C60.6942 28.5374 60.6942 29.2459 60.6942 29.9543C60.6942 31.5129 61.6533 32.3631 62.8863 32.3631C63.5714 32.3631 64.1194 32.2214 64.5304 31.7963C64.9414 31.3712 65.2155 30.6628 65.2155 29.671C65.2155 25.4203 64.2564 21.4529 62.6123 17.6273C61.9273 16.0687 60.9682 14.2268 59.7352 12.5265C59.1871 11.9597 59.1871 11.6763 60.0092 11.1096C69.5997 2.18311 85.0816 2.89156 93.85 12.9515C102.07 22.3031 102.619 35.6219 95.3571 45.6819C93.987 47.5239 92.3429 48.374 90.1508 48.374C81.7934 48.374 73.4359 48.374 65.0784 48.374H56.036H47.1305C38.91 48.374 30.6896 48.374 22.4691 48.374C20.003 48.374 18.3589 47.5239 16.8518 45.5402C11.7825 38.4557 10.5495 29.2459 13.5636 21.0279C16.7148 12.8099 23.5652 7.00057 31.9226 5.30029C33.2927 5.01691 34.7998 4.87522 36.1699 4.87522C41.3762 4.87522 46.5824 6.57549 50.8297 9.97605C56.31 14.0851 59.8722 20.4611 60.5572 27.2622Z" fill="black"/>
<path d="M110.565 139.765C104.263 133.814 96.4533 131.122 87.4108 131.547C84.8076 131.689 82.7525 132.964 81.3825 135.514C80.2864 137.498 79.3273 139.34 78.0943 141.04C76.4502 143.307 74.3951 145.716 71.5179 147.275C68.3668 148.833 65.4896 147.983 63.5715 144.724C62.8864 143.449 62.4754 141.89 62.0644 140.473L61.9274 139.765C61.1054 136.79 58.9132 134.948 56.0361 134.948C53.2959 134.948 51.1038 136.79 50.1447 139.765L50.0077 140.332C49.4597 142.032 49.0487 143.732 48.2267 145.149C46.5826 147.841 44.1164 148.691 41.1022 147.558C40.1432 147.133 39.3212 146.708 38.3621 145.999C35.4849 143.732 33.0188 140.473 30.8267 136.081C29.3196 133.106 26.8535 131.547 23.7023 131.547C23.1543 131.547 22.7432 131.547 22.1952 131.547H21.5102C13.7007 131.83 6.85037 134.664 1.23307 139.907C0.685037 140.473 0 141.182 0 142.174C0 142.74 0.274015 143.307 0.685038 143.732C2.19212 145.433 3.83621 143.874 4.38424 143.307C9.72753 138.348 16.0299 135.939 23.9763 136.223C25.2094 136.223 26.0314 136.789 26.5795 137.923C27.6755 140.048 28.9086 142.174 30.1416 144.016C32.8818 147.841 35.4849 150.108 38.4991 151.667C40.1432 152.375 41.7873 152.8 43.2944 152.8C46.7196 152.8 49.8707 150.959 51.9258 147.416C52.8849 145.716 53.7069 143.732 54.255 141.324C54.529 139.907 55.214 139.765 55.8991 139.765C56.4471 139.765 57.1321 139.907 57.4061 141.324C57.9542 143.732 58.6392 145.716 59.7353 147.416C62.2014 151.525 65.7636 153.367 70.2849 152.659C72.34 152.375 74.1211 151.525 76.3132 149.825C79.7384 147.133 82.4785 143.449 85.0817 138.348C85.7667 136.931 86.5887 136.364 87.8218 136.223C95.6312 135.939 102.071 138.206 107.414 143.307C107.962 143.874 109.606 145.433 111.113 143.732C111.524 143.166 111.798 142.74 111.798 142.174C111.935 141.182 111.25 140.332 110.565 139.765Z" fill="black"/>
<path d="M53.7068 89.0393C53.2958 88.4725 52.7477 87.9058 52.3367 87.339C51.7887 86.7723 51.2406 86.4889 50.5556 86.4889C50.0076 86.4889 49.4595 86.7723 48.9115 87.1973C47.9525 88.1892 47.9525 89.4644 49.0485 90.5979L54.2548 95.9821C54.8028 96.5489 55.3509 96.8322 55.8989 96.8322C56.4469 96.8322 56.995 96.5489 57.543 96.1238C59.3241 94.4235 61.1052 92.4398 63.0233 90.4562C63.5713 89.8894 63.7083 89.3227 63.7083 88.7559C63.7083 88.1892 63.4343 87.6224 62.8863 87.1973C61.9272 86.2055 60.6942 86.3472 59.7351 87.339C59.1871 87.9058 58.7761 88.4725 58.228 89.0393L58.091 89.181C58.091 89.0393 58.091 88.7559 58.091 88.6142C58.091 88.4725 58.091 88.3308 58.091 88.1892C58.091 85.7804 58.091 83.3717 58.091 80.963V78.1292C58.091 77.8458 58.091 77.4207 58.091 77.1373C58.091 76.2872 57.817 75.5787 57.406 75.1537C56.995 74.7286 56.4469 74.5869 55.7619 74.5869C54.3918 74.5869 53.5698 75.5787 53.5698 77.279C53.5698 80.3962 53.5698 83.3717 53.5698 86.4889V89.3227L53.7068 89.0393Z" fill="black"/>
<path d="M83.5745 88.898C83.8485 89.4648 84.2595 89.8899 84.8076 90.1733C85.2186 90.3149 85.4926 90.4566 85.7666 90.4566C86.7257 90.4566 87.4107 89.7482 87.9588 88.473C88.9178 86.2059 89.3288 83.9389 89.3288 81.8135C89.3288 73.4538 83.9855 66.3693 76.4501 64.5274C75.7651 64.3857 73.71 63.8189 73.1619 65.9443C72.8879 66.9361 73.0249 67.5029 73.2989 67.9279C73.71 68.4947 74.258 68.9198 75.217 69.0614C78.6422 69.7699 81.6564 72.1786 83.4375 75.5792C85.2186 79.1214 85.3556 83.0888 83.8485 86.7727C83.4375 87.4811 83.3005 88.1896 83.5745 88.898Z" fill="black"/>
<path d="M55.8989 72.1788H56.0359C56.7209 72.1788 57.132 72.0371 57.543 71.6121C57.954 71.187 58.228 70.6202 58.228 69.7701C58.228 68.92 58.228 68.0698 58.091 67.078C57.954 65.8028 57.132 65.0943 55.7619 65.236C54.5288 65.236 53.7068 66.0862 53.7068 67.3614C53.7068 67.6447 53.7068 67.9281 53.7068 68.2115V69.7701C53.8438 71.187 54.5288 72.0371 55.8989 72.1788Z" fill="black"/>
<path d="M55.8988 62.6857C55.8988 62.6857 56.0358 62.6857 55.8988 62.6857C56.5838 62.6857 57.1319 62.544 57.5429 62.119C57.9539 61.6939 58.2279 60.9854 58.2279 60.277C58.2279 59.5685 58.2279 58.7184 58.2279 58.01C58.0909 56.5931 57.2689 55.7429 55.8988 55.7429C54.6657 55.7429 53.8437 56.5931 53.8437 58.01C53.8437 58.2933 53.8437 58.435 53.8437 58.7184V59.5685C53.8437 59.8519 53.8437 59.9936 53.8437 60.277C53.7067 61.6939 54.5287 62.6857 55.8988 62.6857Z" fill="black"/>
<path d="M79.1903 14.3684C83.8486 15.6436 87.5478 18.6191 89.6029 22.5864C91.658 26.6954 91.795 31.5129 89.8769 36.3303C89.6029 37.0388 88.9179 39.0225 90.973 39.8726C91.384 40.0143 91.658 40.156 91.932 40.156C92.206 40.156 92.3431 40.156 92.6171 40.0143C93.4391 39.7309 93.8501 38.8808 94.1242 38.1723C95.2202 35.4802 95.7682 32.7881 95.7682 29.8126C95.7682 20.1777 89.0549 11.5346 80.1494 9.69263C79.4643 9.55094 77.4092 9.12587 76.8612 11.2512C76.5872 13.6599 78.6423 14.2267 79.1903 14.3684Z" fill="black"/>
</svg>
