<svg width="134" height="134" viewBox="0 0 134 134" fill="none" xmlns="http://www.w3.org/2000/svg">
<path d="M77.9485 133.333C74.099 133.333 70.9678 130.202 70.9678 126.353V98.9248C70.9678 96.5525 69.0388 94.6237 66.6668 94.6237C64.2947 94.6237 62.3657 96.5525 62.3657 98.9248V126.353C62.3657 130.202 59.2345 133.333 55.385 133.333C52.1764 133.333 49.3893 131.159 48.6108 128.045L46.3119 118.843C44.2259 110.506 40.6904 102.695 35.7979 95.6301C27.8538 84.1592 23.656 70.7183 23.656 56.7592C23.656 44.4347 33.6818 34.4087 46.0066 34.4087C50.4689 34.4087 54.9184 35.8192 58.8754 38.4863C59.8582 39.1508 60.1184 40.4882 59.4538 41.4727C58.7915 42.4581 57.456 42.7142 56.4689 42.054C53.2259 39.8648 49.6087 38.7097 46.0066 38.7097C36.0539 38.7097 27.9571 46.8061 27.9571 56.7592C27.9571 69.8388 31.8904 82.4321 39.3356 93.1805C44.5227 100.673 48.2732 108.957 50.484 117.8L52.7829 127.004C53.0839 128.198 54.1528 129.032 55.385 129.032C56.8625 129.032 58.0646 127.83 58.0646 126.353V98.9248C58.0646 94.1809 61.9227 90.3226 66.6668 90.3226C71.4108 90.3226 75.2689 94.1809 75.2689 98.9248V126.353C75.2689 127.83 76.471 129.032 77.9485 129.032C79.1807 129.032 80.2496 128.198 80.5506 127.004L82.8495 117.8C85.0603 108.957 88.8108 100.673 93.9979 93.1805C101.443 82.4321 105.376 69.8388 105.376 56.7592C105.376 46.8061 97.2796 38.7097 87.3269 38.7097C83.7248 38.7097 80.1076 39.8648 76.8646 42.054C75.8775 42.7142 74.542 42.4581 73.8797 41.4727C73.2151 40.4882 73.4753 39.1508 74.4581 38.4863C78.4151 35.8192 82.8646 34.4087 87.3269 34.4087C99.6517 34.4087 109.677 44.4347 109.677 56.7592C109.677 70.7183 105.48 84.1592 97.5356 95.6301C92.6431 102.695 89.1076 110.506 87.0216 118.843L84.7227 128.045C83.9442 131.159 81.1571 133.333 77.9485 133.333Z" fill="black"/>
<path d="M66.6665 53.7634C61.2859 53.7634 56.0966 52.1808 51.6579 49.1851C50.673 48.5224 50.4127 47.1824 51.0772 46.1978C51.7439 45.215 53.0794 44.9572 54.0643 45.6191C57.7891 48.1333 62.1461 49.4624 66.6665 49.4624C71.1869 49.4624 75.5461 48.1333 79.2708 45.6174C80.2557 44.9572 81.5912 45.2107 82.2579 46.1955C82.9224 47.1809 82.6622 48.518 81.6772 49.1826C77.2364 52.1808 72.0472 53.7634 66.6665 53.7634Z" fill="black"/>
<path d="M43.3589 14.8645L66.6664 47.8839L89.9739 14.8645L84.6922 4.30107H48.6407L43.3589 14.8645ZM66.6664 53.7634C65.9675 53.7634 65.3116 53.4232 64.9095 52.8538L39.103 16.2946C38.6471 15.6452 38.5804 14.8 38.9352 14.0925L45.3868 1.18925C45.7524 0.460217 46.4966 -7.62939e-06 47.3116 -7.62939e-06H86.0213C86.8363 -7.62939e-06 87.5805 0.460217 87.9461 1.18925L94.3977 14.0925C94.7525 14.8 94.6858 15.6452 94.2299 16.2946L68.4234 52.8538C68.0213 53.4232 67.3654 53.7634 66.6664 53.7634Z" fill="black"/>
<path d="M75.2688 17.2043C75.2301 17.2043 75.1935 17.2043 75.1526 17.2018C74.4774 17.1633 73.8559 16.8104 73.4796 16.2476L66.6666 6.02801L59.8537 16.2476C59.4773 16.8104 58.8559 17.1633 58.1806 17.2018C57.4473 17.2263 56.8473 16.9506 56.4107 16.4323L45.658 3.52909C44.8989 2.61511 45.0236 1.25812 45.9333 0.496832C46.8494 -0.260157 48.2021 -0.137596 48.9655 0.772081L57.8731 11.4646L64.8774 0.957024C65.6753 -0.238674 67.658 -0.238674 68.4558 0.957024L75.4602 11.4646L84.3677 0.772081C85.129 -0.137596 86.4839 -0.260157 87.4 0.496832C88.3097 1.25812 88.4344 2.61511 87.6752 3.52909L76.9225 16.4323C76.5118 16.9228 75.9053 17.2043 75.2688 17.2043Z" fill="black"/>
<path d="M92.4731 17.2043H40.8603C39.671 17.2043 38.7097 16.2433 38.7097 15.0538C38.7097 13.8646 39.671 12.9033 40.8603 12.9033H92.4731C93.6624 12.9033 94.6237 13.8646 94.6237 15.0538C94.6237 16.2433 93.6624 17.2043 92.4731 17.2043Z" fill="black"/>
<path d="M66.6687 53.7634C66.5053 53.7634 66.3397 53.7441 66.1741 53.7071C65.0171 53.4342 64.301 52.2774 64.5719 51.1206L73.1741 14.5613C73.4472 13.4021 74.6085 12.6946 75.7612 12.9591C76.9182 13.2323 77.6344 14.3892 77.3634 15.546L68.7613 52.1051C68.5269 53.0948 67.6429 53.7634 66.6687 53.7634Z" fill="black"/>
<path d="M66.6644 53.7634C65.6902 53.7634 64.8062 53.0948 64.5718 52.1051L55.9696 15.546C55.6987 14.3892 56.4148 13.2323 57.5718 12.9591C58.7245 12.6946 59.8859 13.4021 60.159 14.5613L68.7611 51.1206C69.0321 52.2774 68.3159 53.4342 67.1589 53.7071C66.9934 53.7441 66.8278 53.7634 66.6644 53.7634Z" fill="black"/>
<path d="M107.559 21.5055C111.32 23.5595 114.348 26.8061 116.129 30.7117C117.91 26.8061 120.937 23.5595 124.699 21.5055C120.937 19.4515 117.91 16.2048 116.129 12.3012C114.348 16.2048 111.32 19.4515 107.559 21.5055ZM116.129 43.0109C115.045 43.0109 114.129 42.2018 113.996 41.1266L113.469 36.9029C112.628 30.1975 107.387 24.738 100.722 23.6257C99.6858 23.4537 98.9246 22.5573 98.9246 21.5055C98.9246 20.4537 99.6858 19.5573 100.722 19.3853C107.387 18.273 112.628 12.813 113.469 6.10765L113.996 1.88399C114.129 0.80872 115.045 0.000118256 116.129 0.000118256C117.213 0.000118256 118.129 0.80872 118.262 1.88399L118.789 6.10765C119.63 12.813 124.871 18.273 131.535 19.3853C132.572 19.5573 133.333 20.4537 133.333 21.5055C133.333 22.5573 132.572 23.4537 131.535 23.6257C124.871 24.738 119.63 30.1975 118.789 36.9029L118.262 41.1266C118.129 42.2018 117.213 43.0109 116.129 43.0109Z" fill="black"/>
<path d="M8.63439 111.828C12.3957 113.882 15.4237 117.129 17.2043 121.034C18.9849 117.129 22.0129 113.882 25.7742 111.828C22.0129 109.774 18.9849 106.526 17.2043 102.623C15.4237 106.526 12.3957 109.774 8.63439 111.828ZM17.2043 133.333C16.1204 133.333 15.2043 132.524 15.071 131.449L14.5441 127.225C13.7032 120.52 8.46233 115.06 1.79782 113.948C0.761261 113.776 0 112.88 0 111.828C0 110.776 0.761261 109.88 1.79782 109.708C8.46233 108.596 13.7032 103.135 14.5441 96.4297L15.071 92.2061C15.2043 91.1308 16.1204 90.3226 17.2043 90.3226C18.2882 90.3226 19.2043 91.1308 19.3376 92.2061L19.8645 96.4297C20.7054 103.135 25.9463 108.596 32.6108 109.708C33.6473 109.88 34.4086 110.776 34.4086 111.828C34.4086 112.88 33.6473 113.776 32.6108 113.948C25.9463 115.06 20.7054 120.52 19.8645 127.225L19.3376 131.449C19.2043 132.524 18.2882 133.333 17.2043 133.333Z" fill="black"/>
<path d="M21.5055 25.8065C20.3163 25.8065 19.355 24.8454 19.355 23.656V19.3549C19.355 18.1654 20.3163 17.2044 21.5055 17.2044C22.6948 17.2044 23.6561 18.1654 23.6561 19.3549V23.656C23.6561 24.8454 22.6948 25.8065 21.5055 25.8065Z" fill="black"/>
<path d="M17.2043 30.1075H12.9032C11.714 30.1075 10.7527 29.1465 10.7527 27.957C10.7527 26.7675 11.714 25.8065 12.9032 25.8065H17.2043C18.3935 25.8065 19.3548 26.7675 19.3548 27.957C19.3548 29.1465 18.3935 30.1075 17.2043 30.1075Z" fill="black"/>
<path d="M21.5055 38.7098C20.3163 38.7098 19.355 37.7488 19.355 36.5593V32.2582C19.355 31.0688 20.3163 30.1077 21.5055 30.1077C22.6948 30.1077 23.6561 31.0688 23.6561 32.2582V36.5593C23.6561 37.7488 22.6948 38.7098 21.5055 38.7098Z" fill="black"/>
<path d="M30.1076 30.1075H25.8065C24.6173 30.1075 23.656 29.1465 23.656 27.957C23.656 26.7675 24.6173 25.8065 25.8065 25.8065H30.1076C31.2969 25.8065 32.2582 26.7675 32.2582 27.957C32.2582 29.1465 31.2969 30.1075 30.1076 30.1075Z" fill="black"/>
<path d="M109.677 105.376C108.488 105.376 107.527 104.415 107.527 103.226V98.9247C107.527 97.7353 108.488 96.7742 109.677 96.7742C110.867 96.7742 111.828 97.7353 111.828 98.9247V103.226C111.828 104.415 110.867 105.376 109.677 105.376Z" fill="black"/>
<path d="M105.376 109.677H101.075C99.8859 109.677 98.9246 108.716 98.9246 107.527C98.9246 106.337 99.8859 105.376 101.075 105.376H105.376C106.565 105.376 107.527 106.337 107.527 107.527C107.527 108.716 106.565 109.677 105.376 109.677Z" fill="black"/>
<path d="M109.677 118.28C108.488 118.28 107.527 117.318 107.527 116.129V111.828C107.527 110.638 108.488 109.677 109.677 109.677C110.867 109.677 111.828 110.638 111.828 111.828V116.129C111.828 117.318 110.867 118.28 109.677 118.28Z" fill="black"/>
<path d="M118.279 109.677H113.978C112.789 109.677 111.828 108.716 111.828 107.527C111.828 106.337 112.789 105.376 113.978 105.376H118.279C119.469 105.376 120.43 106.337 120.43 107.527C120.43 108.716 119.469 109.677 118.279 109.677Z" fill="black"/>
</svg>
