<svg width="307" height="76" viewBox="0 0 307 76" fill="none" xmlns="http://www.w3.org/2000/svg">
<path d="M24.354 26.784C25.974 26.676 27.756 26.298 29.376 25.704C29.592 32.616 25.38 39.744 16.632 39.744C2.15997 39.744 -3.03909e-05 20.25 10.098 14.364C9.23397 16.038 9.23397 17.766 9.88197 19.494C7.39797 27.27 9.66597 39.312 16.632 39.312C21.654 39.366 24.192 33.156 24.354 26.784ZM39.798 17.496C43.524 12.906 46.872 11.88 50.328 13.392V21.762C49.464 14.148 44.01 12.744 39.798 18.036C38.718 19.386 36.99 20.682 35.316 21.762C36.774 21.222 38.286 20.412 39.798 19.332V33.696C39.852 36.018 39.798 38.502 43.038 39.366C39.042 39.366 35.748 39.366 31.752 39.366C34.992 38.502 34.938 36.018 34.938 33.696V21.978C15.876 34.722 1.83597 12.744 16.632 12.744C24.03 12.744 28.188 17.82 29.16 23.544C27.594 24.138 26.028 24.462 24.3 24.57C23.868 18.63 21.33 13.122 16.632 13.122C2.59197 13.122 16.47 33.966 34.938 21.492V20.088C34.938 17.82 34.992 15.336 31.752 14.472C35.154 14.472 37.476 14.04 39.798 12.744V17.496ZM60.7445 33.264C60.7445 37.476 64.9025 40.662 69.4385 35.91C64.7405 42.552 55.8305 39.69 55.8305 33.264V13.5H52.6985V13.122H55.8305C55.8305 10.908 55.7225 8.64001 52.6985 7.83001C56.1005 7.83001 58.4225 7.39801 60.7445 6.10201V13.122H63.9305V13.5H60.7445C60.7445 18.522 60.7445 28.242 60.7445 33.264ZM87.3053 39.312C90.4913 38.502 90.4913 36.018 90.4913 33.696V21.762C90.4913 13.122 82.9313 12.528 78.7193 18.036V33.696C78.7193 36.018 78.7193 38.502 81.9053 39.312C77.9633 39.312 74.6153 39.312 70.6733 39.312C73.8593 38.502 73.8053 36.018 73.8593 33.696C73.8593 24.948 73.8593 16.146 73.8593 7.34401C73.8053 5.07601 73.8593 2.59201 70.6733 1.72801C74.0753 1.72801 76.3973 1.29601 78.7193 9.29832e-06V17.496C85.5233 9.01801 95.4053 12.744 95.4053 21.762V33.696C95.4053 36.018 95.3513 38.502 98.5913 39.312C94.5953 39.312 91.2473 39.312 87.3053 39.312ZM144.815 12.744C161.771 12.744 161.771 39.744 144.815 39.744C141.089 39.744 138.551 37.26 137.147 34.938V45.09C137.147 47.358 137.093 49.842 140.279 50.706C136.337 50.706 132.989 50.706 129.047 50.706C132.233 49.842 132.179 47.358 132.233 45.09V22.41C113.171 35.154 99.1309 12.744 113.927 12.744C121.487 12.744 125.645 17.982 126.509 23.868C124.943 24.57 123.323 24.894 121.595 24.948C121.271 18.846 118.733 13.122 113.927 13.122C99.8869 13.122 113.765 34.452 132.233 21.978V20.142C132.179 17.82 132.233 15.336 129.047 14.472C132.503 14.472 134.771 14.04 137.147 12.744V17.496C138.659 15.12 141.089 12.744 144.815 12.744ZM137.147 34.236C142.763 43.038 152.537 38.286 152.537 26.244C152.537 14.202 142.763 9.39601 137.147 18.252C136.013 19.71 134.285 21.06 132.611 22.194C133.583 21.924 135.095 21.114 137.147 19.71V34.236ZM113.927 39.312C118.895 39.366 121.433 33.318 121.649 27.054C123.377 27 125.051 26.622 126.671 26.028C126.779 32.832 122.513 39.744 113.927 39.744C99.4549 39.744 97.2949 20.25 107.393 14.364C106.529 16.038 106.529 17.766 107.177 19.494C104.693 27.27 106.961 39.312 113.927 39.312ZM159.9 39.312C163.086 38.502 163.032 36.018 163.032 33.696V7.34401C163.032 5.07601 163.086 2.59201 159.9 1.72801C163.302 1.72801 165.624 1.29601 167.946 9.29832e-06V33.696C167.946 36.018 167.946 38.502 171.132 39.312C167.19 39.312 163.842 39.312 159.9 39.312ZM215.593 39.312C218.779 38.502 218.725 36.018 218.725 33.696V21.762C218.725 13.122 211.165 12.582 207.007 18.09C204.145 21.978 202.741 23.976 202.741 23.976C204.091 22.518 205.549 21.222 207.007 19.872V33.696C207.007 36.018 206.953 38.502 210.193 39.366C206.197 39.366 202.903 39.366 198.907 39.366C202.147 38.502 202.093 36.018 202.093 33.696V24.624C199.609 27.702 197.071 30.51 194.047 33.048C194.047 35.856 193.939 38.448 197.233 39.366H189.187V36.558C186.541 38.178 184.813 39.744 180.709 39.744C171.961 39.744 169.801 25.596 182.437 22.194C184.921 21.492 186.595 21.006 189.187 19.548C189.187 12.312 179.845 13.122 176.335 17.172C178.981 11.772 194.209 8.85601 194.047 23.112V32.508C197.017 29.97 199.609 27.108 202.093 24.03V20.088C202.093 17.82 202.147 15.336 198.907 14.472C202.363 14.472 204.685 14.04 207.007 12.744V17.496C213.757 9.01801 223.639 12.744 223.639 21.762V33.696C223.639 36.018 223.639 38.502 226.825 39.312C222.883 39.312 219.535 39.312 215.593 39.312ZM184.111 38.286C186.379 38.286 191.455 34.614 193.345 33.102L189.187 34.722V20.142C184.975 22.248 184.543 22.248 182.707 23.166C174.931 27 178.711 38.178 184.111 38.286ZM235.032 33.264C235.032 37.476 239.19 40.662 243.726 35.91C239.028 42.552 230.118 39.69 230.118 33.264V13.5H226.986V13.122H230.118C230.118 10.908 230.01 8.64001 226.986 7.83001C230.388 7.83001 232.71 7.39801 235.032 6.10201V13.122H238.218V13.5H235.032C235.032 18.522 235.032 28.242 235.032 33.264Z" fill="#E8B120"/>
<path d="M213.421 45.922C215.917 45.922 218.101 47.053 219.817 48.613V52.045H219.778C218.881 49.276 217.126 46.312 213.499 46.312C209.716 46.312 207.415 49.471 207.415 55.477C207.415 62.341 210.418 65.539 214.396 65.539C216.19 65.539 217.984 64.876 219.193 63.433L219.466 63.628C218.023 65.305 216.034 66.241 213.46 66.241C209.014 66.241 205.114 62.614 205.114 56.062C205.114 49.549 208.936 45.922 213.421 45.922ZM221.377 65.812V65.734C222.937 65.383 223.483 64.33 223.483 62.926V49.198C223.483 47.794 222.937 46.741 221.377 46.39V46.312H227.812V46.39C226.252 46.741 225.706 47.794 225.706 49.198V65.149C232.219 64.174 237.562 65.5 239.317 63.316H239.395C239.317 64.759 238.888 66.592 235.612 66.592C232.843 66.592 228.085 65.266 221.377 65.812ZM233.116 61.483V61.405C234.676 61.054 235.222 60.001 235.222 58.597V49.198C235.222 47.794 234.676 46.741 233.116 46.39V46.312H239.434V46.39C237.874 46.741 237.328 47.794 237.328 49.198V58.597C237.328 60.001 237.874 61.054 239.434 61.405V61.483H233.116ZM241.41 65.812V65.734C242.97 65.383 243.516 64.33 243.516 62.926V47.365L242.697 46.312H245.466L256.113 59.923V49.198C256.113 47.794 255.567 46.741 254.007 46.39V46.312H258.687V46.39C257.127 46.741 256.581 47.794 256.581 49.198V62.926C256.581 64.33 257.127 65.383 258.687 65.734V65.812H254.007V65.734C255.294 65.461 255.879 64.681 256.074 63.589L243.984 47.989V62.926C243.984 64.33 244.53 65.383 246.09 65.734V65.812H241.41ZM261.024 65.773V65.695C262.584 65.344 263.13 64.291 263.13 62.887V49.198C263.13 47.794 262.584 46.741 261.024 46.39V46.312H267.381V46.39C265.821 46.741 265.275 47.794 265.275 49.198V62.887C265.275 64.291 265.821 65.344 267.381 65.695V65.773H261.024ZM277.634 45.922C280.13 45.922 282.314 47.053 284.03 48.613V52.045H283.991C283.094 49.276 281.339 46.312 277.712 46.312C273.929 46.312 271.628 49.471 271.628 55.477C271.628 62.341 274.631 65.539 278.609 65.539C280.403 65.539 282.197 64.876 283.406 63.433L283.679 63.628C282.236 65.305 280.247 66.241 277.673 66.241C273.227 66.241 269.327 62.614 269.327 56.062C269.327 49.549 273.149 45.922 277.634 45.922Z" fill="black"/>
</svg>
