<svg width="157" height="178" viewBox="0 0 157 178" fill="none" xmlns="http://www.w3.org/2000/svg">
<path d="M81.4561 51.3213C82.6094 54.2045 85.2042 55.6461 88.3758 55.7903C89.9615 55.7903 91.6915 55.7903 93.2773 55.7903C94.1422 55.7903 94.5747 56.0786 94.7189 56.9436C96.4488 66.314 98.1787 75.6845 99.9086 85.0549C100.774 89.9564 103.945 92.8396 108.558 92.9838C113.027 92.9838 116.343 89.9564 117.352 85.1991C119.082 75.8286 120.812 66.4582 122.542 57.0877C122.686 56.2227 122.974 55.9344 123.839 55.9344C125.281 55.9344 126.723 55.9344 128.164 55.9344C132.057 55.9344 134.507 54.3487 135.949 50.7446C136.237 49.8797 136.67 49.1589 136.958 48.2939C140.13 40.5092 143.445 32.7245 144.166 24.219C144.454 20.9033 144.454 17.4435 143.301 14.2719C142.724 12.8303 141.571 12.1095 140.13 12.542C138.688 12.9745 137.823 14.2719 138.255 15.7135C139.409 19.6059 138.976 23.4982 138.255 27.3906C136.814 34.5986 133.931 41.23 131.336 48.0056C130.471 50.3122 130.038 50.6005 127.443 50.6005C115.911 50.6005 104.233 50.6005 92.7006 50.6005C85.7809 50.6005 87.0784 51.1771 84.6276 45.2665C81.7444 37.9143 78.717 30.4179 77.9962 22.3449C77.2754 15.4252 81.3119 8.64965 87.7991 6.19892C92.4123 4.46899 96.8813 4.90147 101.206 7.35221C105.819 9.80294 110.432 10.0913 115.19 7.64053C120.524 4.75731 125.858 4.18067 131.336 7.20804C132.633 7.92885 133.931 7.35221 134.651 6.05476C135.372 4.61315 134.94 3.3157 133.498 2.45074C131.192 1.15329 128.741 0.576644 126.29 0C124.272 0 122.398 0 120.38 0C117.208 0.864965 114.181 2.30657 111.153 3.60402C109.423 4.32483 107.549 4.32483 105.963 3.60402C102.792 2.30657 99.7645 0.720804 96.4488 0C94.4305 0 92.2681 0 90.2499 0C90.1057 0.288322 89.8174 0.288322 89.5291 0.432483C86.3575 1.00913 83.6185 2.30657 81.0236 4.18067C73.3831 10.2354 71.7973 18.1643 73.3831 27.2464C74.6805 35.4636 78.1404 43.3924 81.4561 51.3213ZM111.73 84.7666C111.297 86.929 109.567 87.794 107.549 87.3615C105.963 86.929 104.522 84.6224 104.954 82.8925C104.954 82.6042 105.243 82.3159 105.387 82.1717C107.982 79.4326 110.721 76.6936 113.46 74.0987C113.604 74.0987 113.748 74.2429 113.892 74.2429C113.171 77.8469 112.595 81.3067 111.73 84.7666ZM117.064 55.7903C117.64 56.0786 117.208 56.6552 117.064 57.2319C116.776 58.5293 116.487 59.6826 116.343 60.9801C116.199 63.7191 114.901 65.5932 113.027 67.3231C110 70.2064 106.973 73.2337 103.801 76.5494C103.369 74.0987 102.936 71.9363 102.504 69.918C102.359 69.3414 102.792 69.0531 103.08 68.7647C107.117 64.7282 111.297 60.5476 115.334 56.5111C115.911 55.7903 116.487 55.5019 117.064 55.7903ZM100.918 55.7903C103.224 55.7903 105.675 55.7903 107.837 55.7903C105.675 57.9527 103.369 60.1151 101.062 62.4217C100.774 60.6917 100.341 58.6735 99.9086 56.6552C99.7645 55.6461 100.341 55.7903 100.918 55.7903Z" fill="black"/>
<path d="M156.708 140.557C156.563 132.196 156.708 123.69 155.266 115.473C153.824 107.112 147.625 104.805 140.994 109.995C139.264 111.436 137.823 113.022 136.525 114.752C135.516 116.194 134.074 116.77 132.344 116.915C130.614 116.915 129.029 116.915 127.299 116.915C126.29 116.915 126.146 116.626 126.146 115.761C126.146 114.031 126.146 112.301 126.146 110.571C126.146 108.553 125.136 107.544 123.118 107.544C113.315 107.544 103.656 107.544 93.8535 107.544C91.9794 107.544 91.1144 108.409 90.9703 110.283C90.8261 111.869 90.9703 113.455 90.9703 115.04C90.9703 115.617 91.5469 116.915 90.5378 116.915C89.0962 116.915 87.3662 117.78 86.3571 116.338C84.0505 112.734 80.7349 111.148 76.41 111.148C78.14 106.102 79.5816 101.201 80.014 96.0112C80.7349 87.9382 77.9958 81.1626 71.3644 76.4053C64.733 71.648 57.3808 71.2155 50.1727 74.8196C45.9921 76.982 42.5322 76.982 38.3516 74.8196C24.8004 67.7557 8.51024 77.8469 8.36608 93.128C8.36608 97.3087 9.08691 101.345 10.2402 105.238C10.5285 106.391 10.5285 106.967 9.23105 106.967C6.92448 107.112 5.33874 108.409 3.89713 110.139C2.02304 112.301 1.59052 114.896 1.15804 117.491C-0.139411 126.717 0.00476718 135.944 0.00476718 145.314C0.00476718 146.468 0.148946 147.477 0.293107 148.63C1.59055 155.261 5.91535 159.73 11.2493 163.478C12.8351 164.632 14.2767 164.343 15.1417 163.046C16.1508 161.604 15.8624 160.307 14.1325 159.01C12.2584 157.712 10.5285 156.27 9.08688 154.541C6.92447 152.09 5.33874 149.351 5.33874 146.179C5.05042 137.674 5.33874 129.312 6.05954 120.807C6.2037 118.933 6.34784 117.059 7.06864 115.185C7.64528 113.599 9.23106 112.301 10.8168 112.157C12.5468 112.157 13.1234 113.455 13.5559 114.752C14.2767 116.626 14.9975 118.356 15.7183 120.23C18.6015 127.727 21.9172 134.935 23.3588 142.863C23.6472 144.305 23.9355 145.747 24.5121 147.044C26.6745 151.657 31.4318 152.666 35.18 149.062C36.9099 147.332 38.0632 145.314 38.784 143.008C39.9373 139.115 41.0906 135.223 42.2439 131.331C42.5322 130.177 42.9647 129.024 44.4063 129.024C45.8479 129.024 46.1362 130.177 46.5687 131.331C47.722 135.223 48.8753 139.259 50.0286 143.152C50.7494 145.747 52.0468 147.909 54.2093 149.639C57.6691 152.234 61.7056 151.513 63.868 147.765C64.5888 146.468 65.0213 145.17 65.3096 143.728C66.7512 135.223 70.3553 127.438 73.5268 119.509C74.2476 117.635 75.9776 116.626 78.14 116.626C80.1582 116.626 81.4557 117.635 82.1765 119.365C83.1856 121.528 84.7713 122.393 87.0779 122.248C90.3936 122.104 93.8535 122.248 97.1692 122.248C98.1783 122.248 98.6108 122.537 98.6108 123.546C98.7549 125.132 99.0433 126.717 99.3316 128.303C100.485 136.088 101.494 143.728 102.647 151.513C103.224 155.117 105.963 157.28 109.423 157.28C112.883 157.28 115.478 154.973 116.054 151.369C117.352 142.143 118.505 132.916 119.658 123.69C119.802 122.537 120.091 122.248 121.244 122.248C124.992 122.393 128.74 122.248 132.489 122.248C136.525 122.393 139.552 120.663 141.715 117.491C142.868 115.905 143.877 114.32 145.463 113.166C147.193 111.869 148.49 112.157 149.644 113.887C150.509 115.329 150.653 116.915 150.797 118.5C151.806 127.15 151.806 135.8 151.95 144.305C151.95 148.053 150.653 151.225 148.202 154.108C146.616 155.982 144.598 157.568 142.58 159.01C136.093 163.334 128.885 165.785 121.388 167.659C109.279 170.687 97.025 171.984 84.6272 172.272C69.4903 172.705 54.4976 171.552 39.7932 168.38C35.6125 167.515 31.576 166.362 27.6837 164.92C25.3771 164.055 23.503 165.641 23.9355 167.947C24.2238 169.245 25.2329 169.677 26.2421 169.966C39.2165 174.579 52.6235 176.597 66.3188 177.318C84.7714 178.183 103.08 177.318 121.1 172.993C129.894 170.975 138.543 168.092 146.184 162.902C151.085 159.586 155.122 155.55 156.708 149.639C156.996 146.9 156.708 143.728 156.708 140.557ZM74.6801 94.5696C74.2476 102.498 71.2202 109.706 68.4812 117.059C65.598 124.555 62.2823 131.763 60.5523 139.548C60.1199 141.278 59.8315 143.008 59.3991 144.593C59.2549 145.314 58.9665 146.035 58.1016 146.035C57.2366 146.179 56.8042 145.603 56.5158 144.882C55.2184 143.008 54.6417 140.845 54.0651 138.683C53.056 135.511 52.3352 132.196 51.1819 129.024C49.3078 123.546 43.1089 121.96 39.2165 125.853C38.0633 127.006 37.4866 128.447 37.0541 129.889C36.045 133.493 35.0359 137.241 33.8826 140.845C33.4501 142.431 32.8735 143.873 31.8643 145.17C30.8552 146.323 29.9902 146.179 29.4136 144.738C28.6928 143.152 28.5486 141.278 28.2603 139.548C26.3862 131.475 22.9263 123.978 20.0431 116.194C17.7365 110.283 15.43 104.373 14.4209 98.0295C14.1325 96.4437 13.9884 94.8579 13.9884 93.993C13.8442 81.5951 26.0979 73.9546 36.4775 79.4327C41.9556 82.3159 47.1454 82.4601 52.6235 79.4327C57.8133 76.5495 63.2914 76.8378 68.1928 80.2977C72.806 83.7575 74.9684 88.5149 74.6801 94.5696ZM113.459 126.141C112.45 133.926 111.441 141.71 110.432 149.495C110.432 149.783 110.288 150.216 110.288 150.504C110.144 151.369 109.855 151.946 108.846 151.946C107.981 151.946 107.549 151.369 107.405 150.504C106.972 147.765 106.54 144.882 106.251 142.143C105.386 135.944 104.521 129.601 103.512 123.402C103.368 122.248 103.656 121.96 104.666 122.104C105.963 122.248 107.26 122.104 108.702 122.104C109.135 122.104 109.567 122.104 110.144 122.104C114.036 122.248 113.892 122.248 113.459 126.141ZM118.073 116.915C111.441 116.915 104.81 116.915 98.0341 116.915C96.7367 116.915 96.0159 116.626 96.3042 115.185C96.4484 114.752 96.3042 114.32 96.3042 113.743C96.16 112.878 96.5926 112.59 97.4575 112.59C101.206 112.59 104.954 112.59 108.702 112.59C112.162 112.59 115.766 112.59 119.226 112.59C120.235 112.59 120.667 112.734 120.667 114.031C120.812 116.915 120.812 116.915 118.073 116.915Z" fill="black"/>
<path d="M83.1855 20.9032C83.1855 22.7773 84.1947 23.7864 85.9246 23.7864C87.6545 23.7864 88.3753 22.7773 88.5195 21.1915C88.952 17.7316 90.9702 15.7134 94.1417 15.4251C96.16 15.2809 97.1691 14.1276 97.025 12.5419C96.8808 10.9561 95.7275 10.0911 93.8534 10.2353C88.2312 10.2353 83.1855 15.2809 83.1855 20.9032Z" fill="black"/>
<path d="M29.7023 83.0367C24.0801 83.0367 18.8903 88.2265 18.7461 93.8488C18.7461 95.5787 19.6111 96.732 21.1968 96.8762C22.6385 97.0203 23.7917 96.1554 24.0801 94.7138C24.945 90.2448 25.6658 89.3798 30.279 88.3707C31.8647 88.0824 32.7297 86.9291 32.5855 85.4875C32.4414 83.9017 31.2881 82.8926 29.7023 83.0367Z" fill="black"/>
</svg>
