<svg width="214" height="145" viewBox="0 0 214 145" fill="none" xmlns="http://www.w3.org/2000/svg">
<path d="M103.058 41.1571C94.1995 55.6337 89.5026 72.3633 89.5033 89.4365V105.519C89.5033 108.318 88.4153 111.002 86.4785 112.981C84.5418 114.96 81.915 116.071 79.176 116.071L67.5836 80.5377C66.9495 78.5945 65.733 76.9044 64.1066 75.7068C62.4802 74.5092 60.5262 73.8647 58.5214 73.8647C56.5167 73.8647 54.5627 74.5092 52.9363 75.7068C51.3098 76.9044 50.0934 78.5945 49.4592 80.5377L37.8668 116.071C35.1279 116.071 32.5011 114.96 30.5643 112.981C28.6276 111.002 27.5396 108.318 27.5396 105.519V89.4365C27.5403 72.3633 22.8434 55.6337 13.985 41.1571C11.599 37.3919 10.3288 33.0023 10.3274 28.5168C10.3274 14.751 20.5256 3.51758 34.9838 3.51758C38.2093 3.51741 41.402 4.17887 44.3726 5.46275C47.3433 6.74664 50.0314 8.62682 52.2777 10.9918L58.5214 17.5868L65.2385 10.7236C69.7554 6.11125 75.8796 3.51944 82.2656 3.51758C102.098 3.51758 112.834 25.1666 103.058 41.1571Z" fill="#F6F6F6"/>
<path d="M37.8666 105.519H41.309L37.8666 116.071C35.1276 116.071 32.5008 114.959 30.5641 112.981C28.6274 111.002 27.5393 108.318 27.5393 105.519V94.9673C27.5393 97.7658 28.6274 100.45 30.5641 102.429C32.5008 104.407 35.1276 105.519 37.8666 105.519ZM89.5031 94.9673V105.519C89.5031 108.318 88.415 111.002 86.4783 112.981C84.5415 114.959 81.9148 116.071 79.1758 116.071L75.7334 105.519H79.1758C81.9148 105.519 84.5415 104.407 86.4783 102.429C88.415 100.45 89.5031 97.7658 89.5031 94.9673Z" fill="#DCDCDC"/>
<path d="M79.1759 119.588C78.4533 119.588 77.7491 119.356 77.1629 118.925C76.5768 118.493 76.1384 117.884 75.9099 117.183L64.3175 81.6499C63.9117 80.4072 63.1336 79.3264 62.0933 78.5606C61.0531 77.7948 59.8034 77.3827 58.5213 77.3827C57.2391 77.3827 55.9895 77.7948 54.9492 78.5606C53.909 79.3264 53.1309 80.4072 52.7251 81.6499L41.1327 117.183C40.9042 117.884 40.4658 118.493 39.8796 118.925C39.2935 119.356 38.5892 119.588 37.8667 119.588C34.2147 119.588 30.7124 118.106 28.13 115.468C25.5477 112.829 24.097 109.251 24.097 105.519V89.4363C24.1015 72.8863 19.5119 56.6744 10.8608 42.6826C8.19589 38.3253 6.81554 33.2761 6.88481 28.1385C6.88481 13.2823 18.3782 0.000121779 34.9837 0.000121779C38.6701 0.00832384 42.3177 0.769006 45.7124 2.2375C49.107 3.70599 52.1804 5.8527 54.7518 8.55156L58.56 12.5745L62.8071 8.23501C65.356 5.61536 68.3884 3.53859 71.7286 2.12503C75.0687 0.711465 78.6502 -0.0107882 82.2655 0.000121779C104.68 0.000121779 117.236 24.6212 105.975 43.0211C97.4568 56.9377 92.9416 73.0221 92.9456 89.4363V105.519C92.9456 109.251 91.4949 112.829 88.9125 115.468C86.3302 118.106 82.8278 119.588 79.1759 119.588ZM58.5213 70.3462C61.2492 70.3442 63.9084 71.2203 66.1214 72.85C68.3344 74.4797 69.9887 76.7803 70.8495 79.4252L81.521 112.114C82.8481 111.623 83.9954 110.727 84.8074 109.547C85.6194 108.367 86.0569 106.961 86.0607 105.519V89.4363C86.0605 71.7112 90.9379 54.3432 100.136 39.3148C108.548 25.5621 99.2754 7.05671 82.2655 7.05671C79.5559 7.04717 76.8714 7.58621 74.3669 8.6427C71.8624 9.69918 69.5876 11.2522 67.6739 13.212L60.9568 20.0795C60.6339 20.41 60.2497 20.6714 59.8269 20.8485C59.404 21.0257 58.9508 21.115 58.4938 21.1113C58.0368 21.1076 57.5851 21.011 57.165 20.8271C56.7449 20.6431 56.3649 20.3755 56.047 20.04L49.8033 13.445C47.8757 11.4216 45.5717 9.81222 43.0268 8.7114C40.4819 7.61058 37.7473 7.04052 34.9837 7.03473H34.4243C28.9463 7.03473 23.6928 9.25816 19.8193 13.2159C15.9458 17.1736 13.7697 22.5415 13.7697 28.1385C13.7017 31.9561 14.7196 35.7119 16.7 38.9498C26.0354 54.0611 30.9874 71.5665 30.9818 89.4363V105.519C30.9856 106.961 31.4232 108.367 32.2352 109.547C33.0472 110.727 34.1945 111.623 35.5215 112.114L46.1931 79.4076C47.0568 76.766 48.7124 74.4693 50.9251 72.8429C53.1379 71.2165 55.7955 70.3429 58.5213 70.3462Z" fill="black"/>
<path d="M65.4063 31.656H51.6365C49.7353 31.656 48.1941 33.2308 48.1941 35.1733V56.2771C48.1941 58.2197 49.7353 59.7944 51.6365 59.7944H65.4063C67.3075 59.7944 68.8487 58.2197 68.8487 56.2771V35.1733C68.8487 33.2308 67.3075 31.656 65.4063 31.656Z" fill="#A8EDFD"/>
<path d="M65.4063 49.2424H51.6365C50.7235 49.2424 49.8479 48.8718 49.2024 48.2122C48.5568 47.5526 48.1941 46.6579 48.1941 45.7251V56.277C48.1941 57.2098 48.5568 58.1045 49.2024 58.7641C49.8479 59.4237 50.7235 59.7943 51.6365 59.7943H65.4063C66.3192 59.7943 67.1948 59.4237 67.8404 58.7641C68.486 58.1045 68.8487 57.2098 68.8487 56.277V45.7251C68.8487 46.6579 68.486 47.5526 67.8404 48.2122C67.1948 48.8718 66.3192 49.2424 65.4063 49.2424Z" fill="#DE8B8B"/>
<path d="M65.4061 63.3114H51.6363C49.8103 63.3114 48.0592 62.5703 46.768 61.2511C45.4768 59.9318 44.7515 58.1425 44.7515 56.2768V35.173C44.7515 33.3073 45.4768 31.5181 46.768 30.1988C48.0592 28.8796 49.8103 28.1384 51.6363 28.1384H65.4061C67.232 28.1384 68.9832 28.8796 70.2744 30.1988C71.5656 31.5181 72.2909 33.3073 72.2909 35.173V56.2768C72.2909 58.1425 71.5656 59.9318 70.2744 61.2511C68.9832 62.5703 67.232 63.3114 65.4061 63.3114ZM51.6363 35.173V56.2768H65.4061V35.173H51.6363Z" fill="black"/>
<path d="M199.446 41.1571C190.587 55.6337 185.891 72.3633 185.891 89.4365V105.519C185.891 108.318 184.803 111.002 182.866 112.981C180.93 114.96 178.303 116.071 175.564 116.071L163.972 80.5377C163.337 78.5945 162.121 76.9044 160.495 75.7068C158.868 74.5092 156.914 73.8647 154.909 73.8647C152.905 73.8647 150.951 74.5092 149.324 75.7068C147.698 76.9044 146.481 78.5945 145.847 80.5377L134.255 116.071C131.516 116.071 128.889 114.96 126.952 112.981C125.016 111.002 123.927 108.318 123.927 105.519V89.4365C123.928 72.3633 119.231 55.6337 110.373 41.1571C107.987 37.3919 106.717 33.0023 106.715 28.5168C106.715 14.751 116.914 3.51758 131.372 3.51758C134.597 3.51741 137.79 4.17887 140.761 5.46275C143.731 6.74664 146.419 8.62682 148.666 10.9918L154.909 17.5868L161.626 10.7236C166.143 6.11125 172.268 3.51944 178.654 3.51758C198.486 3.51758 209.222 25.1666 199.446 41.1571Z" fill="#F6F6F6"/>
<path d="M134.255 105.519H137.697L134.255 116.071C131.516 116.071 128.889 114.959 126.953 112.981C125.016 111.002 123.928 108.318 123.928 105.519V94.9673C123.928 97.7658 125.016 100.45 126.953 102.429C128.889 104.407 131.516 105.519 134.255 105.519ZM185.892 94.9673V105.519C185.892 108.318 184.803 111.002 182.867 112.981C180.93 114.959 178.303 116.071 175.564 116.071L172.122 105.519H175.564C178.303 105.519 180.93 104.407 182.867 102.429C184.803 100.45 185.892 97.7658 185.892 94.9673Z" fill="#DCDCDC"/>
<path d="M175.564 119.588C174.841 119.588 174.137 119.356 173.551 118.925C172.965 118.493 172.526 117.884 172.298 117.183L160.705 81.6499C160.3 80.4072 159.522 79.3264 158.481 78.5606C157.441 77.7948 156.191 77.3827 154.909 77.3827C153.627 77.3827 152.377 77.7948 151.337 78.5606C150.297 79.3264 149.519 80.4072 149.113 81.6499L137.521 117.183C137.292 117.884 136.854 118.493 136.268 118.925C135.681 119.356 134.977 119.588 134.255 119.588C130.603 119.588 127.1 118.106 124.518 115.468C121.936 112.829 120.485 109.251 120.485 105.519V89.4363C120.489 72.8863 115.9 56.6744 107.249 42.6826C104.584 38.3253 103.203 33.2761 103.273 28.1385C103.273 13.2823 114.766 0.000121779 131.372 0.000121779C135.058 0.00832384 138.706 0.769006 142.1 2.2375C145.495 3.70599 148.568 5.8527 151.14 8.55156L154.948 12.5745L159.195 8.23501C161.744 5.61536 164.776 3.53859 168.117 2.12503C171.457 0.711465 175.038 -0.0107882 178.653 0.000121779C196.167 0.000121779 208.633 15.4762 206.262 32.1614C206.13 33.085 205.646 33.9174 204.914 34.4756C204.182 35.0338 203.263 35.2721 202.359 35.138C201.455 35.0039 200.64 34.5084 200.094 33.7606C199.548 33.0127 199.314 32.0737 199.446 31.1502C201.197 18.8397 192.131 7.03473 178.653 7.03473C175.944 7.02519 173.259 7.56423 170.755 8.62071C168.25 9.6772 165.976 11.2302 164.062 13.19L157.345 20.0575C157.022 20.388 156.638 20.6494 156.215 20.8265C155.792 21.0037 155.339 21.093 154.882 21.0893C154.425 21.0857 153.973 20.989 153.553 20.8051C153.133 20.6211 152.753 20.3536 152.435 20.018L146.191 13.423C144.262 11.4036 141.957 9.79828 139.412 8.70127C136.867 7.60426 134.134 7.03766 131.372 7.03473H130.812C125.334 7.03473 120.081 9.25816 116.207 13.2159C112.334 17.1736 110.158 22.5415 110.158 28.1385C110.09 31.9561 111.108 35.7119 113.088 38.9498C122.423 54.0611 127.375 71.5665 127.37 89.4363V105.519C127.374 106.961 127.811 108.367 128.623 109.547C129.435 110.727 130.582 111.623 131.909 112.114L142.581 79.4076C143.444 76.7639 145.098 74.4645 147.311 72.8351C149.524 71.2057 152.182 70.3289 154.909 70.3289C157.637 70.3289 160.295 71.2057 162.508 72.8351C164.72 74.4645 166.375 76.7639 167.237 79.4076L177.909 112.114C179.236 111.623 180.383 110.727 181.195 109.547C182.007 108.367 182.445 106.961 182.449 105.519V89.4363C182.461 73.5713 186.365 57.9624 193.804 44.0367C194.004 43.6017 194.289 43.213 194.642 42.8948C194.994 42.5766 195.407 42.3356 195.854 42.1866C196.301 42.0376 196.773 41.9838 197.242 42.0286C197.71 42.0734 198.164 42.2157 198.577 42.4468C198.989 42.678 199.351 42.993 199.639 43.3725C199.928 43.752 200.137 44.1879 200.255 44.6532C200.372 45.1186 200.395 45.6036 200.321 46.0784C200.248 46.5531 200.08 47.0074 199.829 47.4133C192.947 60.3043 189.339 74.7525 189.334 89.4363V105.519C189.334 109.251 187.883 112.829 185.301 115.468C182.718 118.106 179.216 119.588 175.564 119.588Z" fill="black"/>
<path d="M161.794 31.656H148.025C146.124 31.656 144.582 33.2308 144.582 35.1733V56.2771C144.582 58.2197 146.124 59.7944 148.025 59.7944H161.794C163.696 59.7944 165.237 58.2197 165.237 56.2771V35.1733C165.237 33.2308 163.696 31.656 161.794 31.656Z" fill="#A8EDFD"/>
<path d="M161.794 49.2424H148.025C147.112 49.2424 146.236 48.8718 145.591 48.2122C144.945 47.5526 144.582 46.6579 144.582 45.7251V56.277C144.582 57.2098 144.945 58.1045 145.591 58.7641C146.236 59.4237 147.112 59.7943 148.025 59.7943H161.794C162.707 59.7943 163.583 59.4237 164.229 58.7641C164.874 58.1045 165.237 57.2098 165.237 56.277V45.7251C165.237 46.6579 164.874 47.5526 164.229 48.2122C163.583 48.8718 162.707 49.2424 161.794 49.2424Z" fill="#DE8B8B"/>
<path d="M161.794 63.3114H148.025C146.199 63.3114 144.447 62.5703 143.156 61.2511C141.865 59.9318 141.14 58.1425 141.14 56.2768V35.173C141.14 33.3073 141.865 31.5181 143.156 30.1988C144.447 28.8796 146.199 28.1384 148.025 28.1384H161.794C163.62 28.1384 165.372 28.8796 166.663 30.1988C167.954 31.5181 168.679 33.3073 168.679 35.173V56.2768C168.679 58.1425 167.954 59.9318 166.663 61.2511C165.372 62.5703 163.62 63.3114 161.794 63.3114ZM148.025 35.173V56.2768H161.794V35.173H148.025ZM48.1941 49.2422H3.44243C2.52944 49.2422 1.65385 48.8717 1.00826 48.212C0.362684 47.5524 0 46.6578 0 45.7249C0 44.7921 0.362684 43.8974 1.00826 43.2378C1.65385 42.5782 2.52944 42.2076 3.44243 42.2076H48.1941C49.107 42.2076 49.9826 42.5782 50.6282 43.2378C51.2738 43.8974 51.6365 44.7921 51.6365 45.7249C51.6365 46.6578 51.2738 47.5524 50.6282 48.212C49.9826 48.8717 49.107 49.2422 48.1941 49.2422Z" fill="black"/>
<path d="M144.582 49.2421H68.8484C67.9354 49.2421 67.0598 48.8716 66.4143 48.2119C65.7687 47.5523 65.406 46.6577 65.406 45.7248C65.406 44.792 65.7687 43.8973 66.4143 43.2377C67.0598 42.5781 67.9354 42.2075 68.8484 42.2075H144.582C145.495 42.2075 146.371 42.5781 147.016 43.2377C147.662 43.8973 148.024 44.792 148.024 45.7248C148.024 46.6577 147.662 47.5523 147.016 48.2119C146.371 48.8716 145.495 49.2421 144.582 49.2421ZM209.988 49.2421H165.237C164.324 49.2421 163.448 48.8716 162.802 48.2119C162.157 47.5523 161.794 46.6577 161.794 45.7248C161.794 44.792 162.157 43.8973 162.802 43.2377C163.448 42.5781 164.324 42.2075 165.237 42.2075H209.988C210.901 42.2075 211.777 42.5781 212.422 43.2377C213.068 43.8973 213.431 44.792 213.431 45.7248C213.431 46.6577 213.068 47.5523 212.422 48.2119C211.777 48.8716 210.901 49.2421 209.988 49.2421Z" fill="black"/>
</svg>
