<?xml version="1.0" standalone="no"?>
<!DOCTYPE svg PUBLIC "-//W3C//DTD SVG 20010904//EN"
 "http://www.w3.org/TR/2001/REC-SVG-20010904/DTD/svg10.dtd">
<svg version="1.0" xmlns="http://www.w3.org/2000/svg"
 width="462.000000pt" height="356.000000pt" viewBox="0 0 462.000000 356.000000"
 preserveAspectRatio="xMidYMid meet">

<g transform="translate(0.000000,356.000000) scale(0.100000,-0.100000)"
fill="#000000" stroke="none">
<path d="M2311 2463 c-1 -24 4 -43 9 -43 12 0 12 37 0 65 -7 15 -9 10 -9 -22z"/>
<path d="M1876 2300 c-5 -74 -11 -175 -15 -225 l-6 -90 -40 -5 c-36 -5 -38 -6
-20 -17 29 -16 69 -5 100 27 31 32 39 91 24 160 -6 24 -6 48 0 58 5 11 3 45
-5 92 -28 143 -30 143 -38 0z"/>
<path d="M2741 2345 c-8 -38 -16 -125 -18 -193 -3 -112 -2 -125 17 -152 30
-42 120 -64 120 -29 0 5 -8 9 -18 9 -37 0 -52 23 -57 90 -4 53 -19 228 -28
325 -1 11 -8 -11 -16 -50z"/>
<path d="M2297 2320 c-4 -33 -10 -72 -13 -87 -5 -17 -3 -24 4 -19 10 6 28 153
20 162 -3 2 -8 -23 -11 -56z"/>
<path d="M1498 2211 c-5 -131 -5 -131 -39 -174 -18 -23 -43 -50 -56 -60 -12
-10 -25 -26 -28 -37 -3 -10 -16 -21 -28 -23 -12 -3 12 -2 53 1 85 5 121 20
166 65 30 31 30 32 16 72 -22 62 -49 165 -57 215 -14 89 -22 71 -27 -59z"/>
<path d="M3107 2204 c-15 -67 -36 -136 -46 -155 l-18 -33 33 -32 c44 -44 85
-60 174 -67 41 -3 65 -3 53 0 -13 2 -23 10 -23 17 0 7 -15 26 -32 42 -46 41
-82 91 -91 128 -5 17 -12 74 -15 126 l-7 95 -28 -121z"/>
<path d="M2344 2265 c4 -22 13 -77 20 -121 16 -92 26 -117 65 -150 20 -18 38
-23 81 -24 30 0 62 5 70 10 13 9 13 10 0 11 -8 1 -19 0 -25 -1 -5 -1 -33 1
-61 5 -41 5 -55 12 -73 36 -12 17 -24 38 -26 47 -28 124 -38 171 -40 190 -2
13 -7 27 -11 30 -4 4 -4 -11 0 -33z"/>
<path d="M2271 2153 c-27 -103 -41 -130 -74 -144 -18 -8 -60 -14 -94 -14 -78
0 -67 -17 14 -22 98 -6 137 31 159 148 16 83 13 102 -5 32z"/>
<path d="M880 2009 c0 -19 -37 -54 -66 -63 -12 -4 -43 1 -69 10 -38 12 -53 13
-73 4 -49 -22 -7 -32 151 -38 169 -5 233 4 303 44 22 13 44 21 49 16 4 -4 6
-1 4 6 -5 16 -5 16 -75 2 -65 -14 -202 0 -215 22 -7 10 -9 10 -9 -3z"/>
<path d="M3725 1998 c-35 -11 -168 -12 -222 -2 -22 4 -34 3 -30 -2 5 -5 12 -9
15 -9 4 0 23 -10 42 -22 55 -34 144 -46 299 -41 133 4 171 13 171 39 0 14 -44
15 -84 2 -56 -19 -93 -16 -114 8 -26 31 -44 37 -77 27z"/>
<path d="M2945 1976 c24 -19 68 -21 63 -3 -3 6 -22 13 -44 15 -37 3 -38 2 -19
-12z"/>
<path d="M1634 1971 c7 -11 56 -20 73 -14 28 11 11 23 -33 23 -25 0 -43 -4
-40 -9z"/>
<path d="M1908 1861 c-15 -21 -22 -22 -189 -24 -166 -2 -175 -3 -197 -25 -12
-12 -26 -22 -32 -22 -5 0 -32 -13 -58 -30 -27 -16 -55 -30 -62 -30 -7 0 -40
22 -74 48 -33 27 -69 52 -79 55 -21 8 -74 -14 -104 -43 -20 -18 -21 -18 -49 1
-53 36 -69 39 -216 28 -166 -11 -223 -24 -298 -67 -41 -22 -55 -36 -54 -52 0
-13 -4 -19 -13 -16 -8 3 -13 -2 -13 -14 0 -11 -5 -19 -12 -17 -7 1 -12 -7 -12
-18 0 -13 5 -19 16 -17 12 2 16 -4 15 -18 -1 -11 -6 -20 -12 -20 -5 0 -2 -5 7
-11 13 -7 15 -15 9 -32 -5 -12 -9 -26 -9 -32 -6 -72 -16 -113 -26 -109 -15 6
-36 62 -36 97 0 25 -16 48 -18 24 0 -13 -2 -19 -26 -105 -16 -60 -17 -64 -22
-77 -110 -333 -142 -515 -123 -695 13 -117 46 -148 188 -174 337 -61 1864 -99
2776 -67 456 16 947 46 1047 66 180 34 200 62 199 272 0 138 -10 213 -41 316
-35 119 -125 431 -154 537 -18 63 -29 82 -73 120 -88 78 -194 105 -429 112
-95 3 -103 1 -141 -24 -35 -23 -43 -25 -53 -13 -24 30 -80 57 -104 51 -12 -3
-56 -33 -97 -66 -40 -33 -77 -60 -81 -60 -12 0 -113 63 -117 73 -2 5 -16 23
-31 41 -28 30 -28 31 -49 12 -19 -17 -26 -18 -78 -7 -31 6 -96 11 -144 11 -78
0 -90 2 -99 20 -9 17 -14 18 -30 7 -11 -6 -23 -20 -26 -29 -3 -10 -15 -18 -28
-18 -28 0 -105 -25 -173 -56 -28 -13 -56 -24 -61 -24 -12 0 -46 48 -67 98 -10
23 -24 42 -30 42 -7 0 -24 -25 -39 -55 -16 -30 -38 -66 -51 -79 l-24 -26 -73
34 c-40 18 -91 39 -113 46 -23 7 -53 28 -71 48 l-31 35 -15 -22z m1849 -93
c-3 -7 -5 -2 -5 12 0 14 2 19 5 13 2 -7 2 -19 0 -25z m68 -42 c5 -41 3 -71 -4
-82 -10 -16 -10 -15 -5 9 3 15 2 27 -2 27 -5 0 -10 27 -10 60 -2 77 12 68 21
-14z m-2969 -16 c0 -47 3 -80 9 -81 22 -3 51 3 62 13 7 5 17 7 23 3 5 -3 10 1
10 9 0 9 4 16 9 16 6 0 6 12 0 32 -10 37 -12 95 -3 85 13 -12 31 -126 23 -139
-5 -7 -9 -9 -9 -4 0 6 -7 1 -15 -10 -8 -11 -15 -14 -15 -6 0 23 -18 12 -29
-18 -13 -38 -31 -38 -60 0 -24 34 -41 32 -41 -6 0 -16 -6 -24 -17 -25 -10 -1
-4 -4 12 -8 25 -6 30 -11 27 -34 -3 -27 -2 -27 47 -21 43 5 51 3 61 -15 8 -16
8 -21 -2 -21 -7 -1 -2 -7 12 -15 15 -9 19 -15 10 -15 -9 0 -6 -6 10 -14 l24
-14 -39 -11 c-51 -14 -56 -14 -80 5 -19 16 -19 16 5 9 19 -5 21 -4 10 4 -8 6
-11 11 -7 11 5 0 5 6 0 13 -4 6 -8 15 -8 19 0 12 -15 21 -15 9 0 -7 -6 -11
-14 -8 -15 6 -16 -9 -3 -31 5 -7 2 -15 -8 -19 -16 -5 -16 -7 -1 -15 9 -5 21
-6 28 -2 7 5 8 3 2 -7 -5 -8 -9 -17 -9 -20 0 -9 -29 -34 -42 -36 -7 -2 -17 14
-23 35 -13 47 -13 68 1 93 8 15 6 31 -6 64 -10 24 -14 49 -10 57 3 7 0 5 -9
-6 -16 -20 -40 -17 -42 5 -3 48 -4 49 -36 49 -41 0 -27 14 15 16 18 0 39 4 48
8 12 5 18 1 22 -13 9 -36 28 -24 25 16 -2 30 -8 39 -28 44 -21 6 -22 7 -5 9
11 1 26 2 34 1 7 -2 10 2 7 8 -4 5 -2 12 4 16 5 3 10 15 10 26 0 10 6 19 14
19 11 0 13 -18 12 -80z m46 40 c-5 -48 -22 -64 -22 -21 0 17 -5 31 -11 31 -8
0 -8 5 1 15 23 27 36 17 32 -25z m2781 -18 c-3 -29 -9 -52 -13 -52 -6 0 -4 42
6 89 9 41 14 17 7 -37z m-2998 16 c-11 -6 -22 -14 -25 -18 -3 -4 -19 -15 -37
-25 -18 -10 -29 -23 -26 -28 4 -6 1 -7 -7 -2 -7 4 -16 2 -21 -6 -6 -10 -9 -11
-9 -1 0 6 -10 13 -22 13 -21 1 -21 2 -3 6 11 3 31 13 45 23 14 9 37 20 53 24
15 3 27 11 27 16 0 6 10 10 23 10 21 -1 21 -1 2 -12z m992 -45 c-5 -32 -9 -64
-10 -70 0 -7 -4 -13 -9 -13 -5 0 -7 8 -4 18 2 9 8 41 11 70 4 28 10 52 14 52
5 0 4 -26 -2 -57z m89 26 c-3 -17 -6 -53 -6 -80 0 -48 -1 -49 -30 -49 -34 0
-34 0 -24 99 7 60 8 61 37 61 28 0 29 -2 23 -31z m51 -1 c-3 -7 -5 -2 -5 12 0
14 2 19 5 13 2 -7 2 -19 0 -25z m1125 -5 c5 -118 5 -121 -13 -126 -23 -6 -35
4 -36 28 0 11 -4 46 -8 78 l-8 57 32 0 c29 0 31 -3 33 -37z m42 -23 c3 -27 3
-39 -3 -30 -11 20 -22 96 -12 84 5 -5 11 -29 15 -54z m799 -76 c12 -12 -6 -34
-28 -34 -21 0 -25 9 -16 38 2 5 38 2 44 -4z m-2719 -10 c9 -3 16 -16 16 -29 0
-12 7 -39 16 -60 8 -20 13 -47 11 -59 -3 -18 -5 -17 -16 12 -14 35 -26 41 -35
16 -6 -15 -8 -15 -25 2 -22 23 -16 44 13 45 20 0 20 1 1 9 -17 7 -17 9 -2 9
19 1 23 16 7 26 -10 6 -14 35 -6 35 2 0 11 -3 20 -6z m2790 -9 c-4 -8 -8 -15
-10 -15 -2 0 -4 7 -4 15 0 8 4 15 10 15 5 0 7 -7 4 -15z m-2954 -45 c-20 -13
-40 -13 -40 0 0 6 12 10 28 10 21 0 24 -2 12 -10z m754 -12 c8 -31 7 -38 -3
-38 -5 0 -11 14 -13 30 -5 35 7 41 16 8z m116 2 c0 -11 -9 -29 -20 -40 l-20
-20 -11 27 c-13 36 -5 53 26 53 18 0 25 -5 25 -20z m1150 5 c0 -8 -9 -15 -20
-15 -11 0 -20 7 -20 15 0 8 9 15 20 15 11 0 20 -7 20 -15z m23 -5 c-3 -11 -7
-20 -9 -20 -2 0 -4 9 -4 20 0 11 4 20 9 20 5 0 7 -9 4 -20z m837 10 c0 -5 -7
-7 -15 -4 -8 4 -15 8 -15 10 0 2 7 4 15 4 8 0 15 -4 15 -10z m79 -2 c0 -7 -4
-21 -8 -31 -6 -16 -9 -16 -18 -5 -16 21 -12 48 9 48 10 0 18 -6 17 -12z m-857
-40 c-6 -6 -7 0 -4 19 5 21 7 23 10 9 2 -10 0 -22 -6 -28z m-1122 -18 c0 -13
-1 -13 -10 0 -5 8 -10 22 -10 30 0 13 1 13 10 0 5 -8 10 -22 10 -30z m1740 21
c0 -6 -9 -9 -19 -8 -11 0 -17 5 -15 9 7 11 34 10 34 -1z m147 -12 c27 -10 27
-11 9 -25 -14 -10 -16 -14 -5 -14 12 0 12 -2 -1 -10 -13 -8 -13 -10 -1 -10 11
0 10 -4 -5 -16 -10 -8 -12 -12 -4 -8 12 7 13 5 3 -8 -7 -8 -9 -18 -5 -23 4 -4
-4 -4 -18 0 -47 14 -70 24 -70 31 0 3 7 4 15 0 16 -6 16 14 0 27 -6 4 0 10 13
13 16 5 20 9 11 14 -15 10 -4 40 15 40 8 0 27 -5 43 -11z m89 -56 c3 -12 0
-41 -8 -63 l-14 -42 -19 23 c-11 12 -14 19 -6 14 11 -6 13 -4 8 8 -3 9 -1 19
5 23 7 5 8 2 3 -6 -5 -9 -4 -11 4 -6 8 6 9 12 2 20 -7 9 -7 16 0 23 8 8 5 15
-10 25 -12 8 -18 18 -15 21 10 10 44 -17 50 -40z m-972 21 c3 -8 2 -12 -4 -9
-6 3 -10 10 -10 16 0 14 7 11 14 -7z m-1821 -11 c-7 -2 -19 -2 -25 0 -7 3 -2
5 12 5 14 0 19 -2 13 -5z m-183 -13 c0 -5 -7 -7 -15 -4 -8 4 -15 8 -15 10 0 2
7 4 15 4 8 0 15 -4 15 -10z m1010 0 c0 -5 -5 -10 -11 -10 -5 0 -7 5 -4 10 3 6
8 10 11 10 2 0 4 -4 4 -10z m880 -3 c0 -8 -6 -14 -14 -14 -8 0 -12 6 -9 14 3
7 9 13 14 13 5 0 9 -6 9 -13z m-1700 -7 c8 -5 11 -10 5 -10 -5 0 -17 5 -25 10
-8 5 -10 10 -5 10 6 0 17 -5 25 -10z m725 -20 c-17 -7 -16 -9 10 -9 29 -1 30
-2 30 -54 0 -31 -5 -55 -12 -60 -17 -10 -17 -37 0 -38 8 0 8 -2 -2 -6 -11 -4
-11 -7 0 -14 19 -11 11 -16 -41 -23 l-45 -6 35 14 35 14 -30 2 c-27 1 -28 2
-12 14 25 19 21 26 -15 26 -24 0 -29 3 -21 11 7 7 8 20 3 33 -8 23 -10 30 -10
46 0 6 -6 10 -13 10 -7 0 -13 10 -14 23 0 12 1 16 4 10 5 -15 43 -18 43 -4 0
9 27 17 60 19 9 0 7 -3 -5 -8z m1131 -20 c21 -10 33 -19 26 -20 -7 0 -10 -4
-7 -10 3 -5 -1 -10 -10 -10 -13 0 -14 -4 -5 -20 8 -14 8 -20 0 -20 -7 0 -9 -8
-5 -20 5 -17 2 -20 -24 -20 -17 0 -31 -4 -31 -10 0 -5 7 -10 15 -10 8 0 15 -4
15 -10 0 -5 -13 -10 -29 -10 -17 0 -33 5 -36 10 -3 6 -2 10 3 10 5 0 9 7 9 15
0 8 -6 15 -13 15 -14 0 -14 61 1 72 7 5 6 8 0 8 -6 0 -11 9 -12 19 -1 14 6 21
25 24 15 2 30 5 33 6 3 0 23 -8 45 -19z m-1251 -10 c3 -5 1 -10 -5 -10 -6 0
-8 -4 -5 -10 3 -5 -2 -10 -12 -10 -12 0 -19 8 -20 20 -2 21 30 29 42 10z
m1350 0 c-3 -5 -16 -10 -28 -10 -18 0 -19 2 -7 10 20 13 43 13 35 0z m-1952
-17 c-7 -2 -19 -2 -25 0 -7 3 -2 5 12 5 14 0 19 -2 13 -5z m-123 -27 c0 -2 -9
-6 -20 -9 -11 -3 -18 -1 -14 4 5 9 34 13 34 5z m711 -5 c-11 -7 -10 -10 5 -13
17 -3 17 -4 -3 -10 -18 -5 -23 -2 -23 13 0 11 7 19 18 19 14 0 14 -2 3 -9z
m2073 0 c4 -5 -3 -7 -14 -4 -23 6 -26 13 -6 13 8 0 17 -4 20 -9z m-2734 -9 c0
-5 -10 -14 -22 -20 -20 -9 -18 -10 12 -5 47 8 36 0 -25 -20 -39 -13 -46 -13
-32 -3 18 14 17 15 -5 18 -21 4 -20 6 12 21 39 18 60 21 60 9z m-123 -20 c-10
-10 -14 -22 -10 -27 5 -4 2 -5 -6 0 -10 6 -12 4 -6 -5 5 -9 4 -11 -3 -6 -8 5
-10 2 -6 -8 3 -9 2 -16 -3 -16 -20 0 -10 41 14 60 32 25 41 26 20 2z m2843 3
l25 -14 -25 0 c-14 0 -36 6 -50 14 l-25 14 25 0 c14 0 36 -6 50 -14z m98 -39
c2 -9 -2 -16 -9 -16 -7 0 -9 3 -6 7 4 3 -3 18 -15 32 l-23 25 25 -16 c14 -8
26 -23 28 -32z m-2148 19 c0 -9 -6 -12 -16 -8 -13 5 -13 7 -2 14 17 11 18 11
18 -6z m2040 -10 c14 -8 21 -14 15 -14 -5 0 -21 6 -35 14 -14 8 -20 14 -15 14
6 0 21 -6 35 -14z m-2810 -10 c-7 -8 -9 -15 -4 -15 5 0 -1 -7 -13 -15 -12 -8
-20 -22 -19 -30 4 -25 14 -28 21 -6 8 25 21 27 29 4 4 -10 4 -14 0 -10 -10 9
-45 -44 -37 -56 3 -6 1 -7 -6 -3 -6 4 -9 16 -6 25 3 10 -1 24 -9 31 -14 10
-13 17 4 51 11 21 28 39 36 39 14 0 14 -3 4 -15z m120 -1 c0 -8 -67 -34 -87
-34 -12 1 -6 8 17 20 34 18 70 26 70 14z m2685 -21 c24 -16 9 -17 -33 -2 -18
6 -30 15 -27 20 6 9 30 2 60 -18z m95 -33 c0 -8 -9 -1 -20 15 -11 17 -20 35
-20 40 1 16 40 -38 40 -55z m-2095 30 c3 -5 -3 -10 -14 -10 -12 0 -21 5 -21
10 0 6 6 10 14 10 8 0 18 -4 21 -10z m1270 0 c-3 -5 -11 -10 -16 -10 -6 0 -7
5 -4 10 3 6 11 10 16 10 6 0 7 -4 4 -10z m-1975 -15 c-14 -8 -32 -14 -40 -14
-9 0 -4 6 10 14 14 8 32 14 40 14 9 0 4 -6 -10 -14z m2705 -11 c11 -8 16 -14
12 -14 -14 0 -77 29 -77 35 0 9 41 -5 65 -21z m-805 -5 l25 -7 -25 -1 c-18 -1
-21 -4 -11 -10 22 -14 -2 -20 -43 -11 -51 11 -57 20 -15 21 23 1 27 3 12 6
-13 2 -23 9 -23 14 0 9 22 6 80 -12z m-1876 -14 c-19 -14 -19 -14 1 -16 13 0
6 -7 -23 -21 -49 -22 -69 -18 -25 6 15 8 22 15 15 16 -7 0 -23 -5 -35 -12 -20
-10 -21 -10 -7 6 16 21 46 34 74 35 20 1 20 1 0 -14z m653 9 c-3 -3 -12 -4
-19 -1 -8 3 -5 6 6 6 11 1 17 -2 13 -5z m651 -7 c6 -5 12 -17 12 -26 0 -13 -2
-13 -9 -2 -6 9 -17 11 -32 6 -23 -7 -24 -7 -4 8 20 16 20 16 -1 11 -12 -3 -25
-1 -28 5 -9 13 43 12 62 -2z m1343 -3 c17 -8 28 -18 26 -21 -8 -8 -77 17 -77
28 0 13 17 11 51 -7z m-1831 -3 c-14 -9 -64 -15 -85 -11 -20 3 31 19 65 19 25
0 31 -2 20 -8z m1933 -13 c9 -31 2 -33 -11 -3 -6 14 -8 25 -3 25 5 0 11 -10
14 -22z m-1346 6 c-3 -3 -12 -4 -19 -1 -8 3 -5 6 6 6 11 1 17 -2 13 -5z m543
-4 c0 -5 -5 -10 -11 -10 -5 0 -7 5 -4 10 3 6 8 10 11 10 2 0 4 -4 4 -10z
m-1257 -7 c-7 -2 -19 -2 -25 0 -7 3 -2 5 12 5 14 0 19 -2 13 -5z m1954 -8 c20
-8 34 -18 30 -21 -3 -3 -25 4 -49 15 -50 23 -35 28 19 6z m-1827 -5 c-8 -5
-28 -10 -45 -10 -23 0 -27 3 -15 10 8 5 29 10 45 10 23 0 27 -3 15 -10z m560
6 c0 -3 -4 -8 -10 -11 -5 -3 -10 -1 -10 4 0 6 5 11 10 11 6 0 10 -2 10 -4z
m469 -5 c13 -3 25 -14 27 -24 2 -13 -5 -17 -29 -16 -18 0 -41 4 -52 9 -16 7
-10 9 25 11 35 2 38 3 15 6 -35 5 -60 24 -29 22 10 -1 30 -4 43 -8z m-1957
-44 c-11 -12 -17 -29 -15 -37 4 -13 3 -13 -5 -1 -11 15 3 60 23 73 19 14 17
-13 -3 -35z m124 18 c-19 -15 -19 -15 5 -15 23 -1 22 -2 -7 -14 -17 -7 -41
-16 -55 -20 -22 -6 -22 -6 4 9 34 20 35 29 2 21 -35 -9 -31 2 8 19 44 19 68
19 43 0z m651 9 c-3 -3 -12 -4 -19 -1 -8 3 -5 6 6 6 11 1 17 -2 13 -5z m2069
-17 c1 -7 5 -21 10 -32 5 -14 1 -12 -15 7 -12 15 -19 33 -16 39 8 12 18 5 21
-14z m-1921 3 c-28 -12 -78 -12 -70 0 3 6 25 10 48 9 33 0 38 -2 22 -9z m1835
-5 c17 -20 -5 -20 -40 0 l-25 14 26 1 c15 0 32 -7 39 -15z m-1950 1 c0 -11
-19 -15 -25 -6 -3 5 1 10 9 10 9 0 16 -2 16 -4z m1237 -2 c-3 -3 -12 -4 -19
-1 -8 3 -5 6 6 6 11 1 17 -2 13 -5z m693 -19 c17 -9 30 -17 30 -20 0 -6 -63
16 -74 26 -16 15 12 10 44 -6z m-1830 -5 c-14 -4 -34 -8 -45 -8 l-20 -1 20 9
c11 5 31 8 45 8 l25 0 -25 -8z m1055 0 c18 -8 18 -9 -5 -9 -14 0 -34 4 -45 9
-18 8 -18 9 5 9 14 0 34 -4 45 -9z m-1925 -9 c0 -5 -9 -19 -21 -32 l-20 -24 7
25 c4 14 12 28 18 32 14 10 16 10 16 -1z m120 -7 c0 -5 -63 -34 -75 -34 -14 0
-2 18 18 28 24 12 57 15 57 6z m785 -3 c-15 -15 -85 -25 -85 -13 0 11 25 18
70 21 15 0 20 -3 15 -8z m1030 -12 c5 -5 -1 -9 -15 -9 -37 0 -70 11 -64 21 6
10 64 1 79 -12z m848 -9 c9 -16 12 -32 9 -34 -4 -2 -14 12 -23 30 -9 19 -13
34 -8 34 4 0 14 -13 22 -30z m-783 10 c0 -5 -5 -10 -11 -10 -5 0 -7 5 -4 10 3
6 8 10 11 10 2 0 4 -4 4 -10z m706 -5 c19 -14 19 -14 -1 -14 -11 0 -31 6 -45
14 l-25 14 26 1 c14 0 34 -7 45 -15z m-1923 -2 c-7 -2 -19 -2 -25 0 -7 3 -2 5
12 5 14 0 19 -2 13 -5z m-687 -19 c-22 -8 -41 -12 -44 -9 -7 6 39 24 63 24 11
0 3 -7 -19 -15z m2594 -5 c26 -15 29 -18 10 -13 -35 9 -78 33 -60 33 8 0 31
-9 50 -20z m-1823 5 c-3 -3 -12 -4 -19 -1 -8 3 -5 6 6 6 11 1 17 -2 13 -5z
m1040 0 c-3 -3 -12 -4 -19 -1 -8 3 -5 6 6 6 11 1 17 -2 13 -5z m-1892 -21 c-6
-15 -11 -35 -14 -52 -1 -3 -6 0 -11 5 -13 13 4 64 21 64 7 0 8 -7 4 -17z m106
-7 c-9 -11 -9 -15 1 -19 14 -5 -35 -28 -64 -30 -23 -2 -30 -23 -13 -37 16 -13
9 -45 -14 -62 -14 -11 -14 -11 -5 2 7 8 11 26 9 40 -3 34 -3 34 -20 20 -18
-15 -18 -10 -5 25 6 16 17 26 27 24 33 -3 53 1 53 11 0 5 -7 7 -15 4 -8 -4
-15 -1 -15 4 0 14 30 31 54 32 15 0 16 -3 7 -14z m779 4 c-8 -5 -31 -9 -50 -9
-29 0 -31 2 -15 9 11 5 34 9 50 9 23 1 26 -2 15 -9z m1020 0 c11 -7 6 -10 -20
-10 -19 0 -42 5 -50 10 -11 7 -6 10 20 10 19 0 42 -5 50 -10z m764 -11 c5 -5
7 -12 3 -16 -9 -8 -57 17 -57 29 0 10 40 1 54 -13z m76 7 c0 -8 3 -23 6 -33 3
-10 -2 -7 -10 7 -18 30 -20 40 -6 40 6 0 10 -6 10 -14z m-1970 0 c0 -11 -19
-15 -25 -6 -3 5 1 10 9 10 9 0 16 -2 16 -4z m1197 -2 c-3 -3 -12 -4 -19 -1 -8
3 -5 6 6 6 11 1 17 -2 13 -5z m710 -51 c-6 -5 -67 21 -67 29 0 4 16 0 35 -9
19 -9 33 -18 32 -20z m-780 21 c-3 -3 -12 -4 -19 -1 -8 3 -5 6 6 6 11 1 17 -2
13 -5z m-1003 -14 c-5 -5 -25 -12 -44 -16 -33 -5 -34 -5 -16 10 22 17 77 23
60 6z m1001 -11 c5 -6 1 -9 -10 -9 -32 0 -65 12 -65 22 0 11 60 1 75 -13z
m820 0 c0 -8 5 -21 10 -29 7 -13 6 -13 -7 -2 -20 16 -31 55 -15 49 7 -2 12
-10 12 -18z m-2595 6 c0 -11 -50 -36 -61 -29 -8 4 -4 11 12 20 24 13 49 18 49
9z m1830 -5 c0 -5 -5 -10 -11 -10 -5 0 -7 5 -4 10 3 6 8 10 11 10 2 0 4 -4 4
-10z m696 -12 c3 -5 4 -12 1 -14 -7 -7 -47 15 -47 25 0 11 38 2 46 -11z
m-1869 6 c-3 -3 -12 -4 -19 -1 -8 3 -5 6 6 6 11 1 17 -2 13 -5z m-652 -23 c-6
-5 -23 -12 -40 -15 l-30 -6 30 14 c35 18 54 20 40 7z m1752 3 c-3 -3 -12 -4
-19 -1 -8 3 -5 6 6 6 11 1 17 -2 13 -5z m-991 -26 c-9 -5 -27 -8 -39 -5 -22 3
-22 4 3 14 31 13 61 5 36 -9z m1749 12 c8 -13 -5 -13 -25 0 -13 8 -13 10 2 10
9 0 20 -4 23 -10z m-755 -10 c12 -7 8 -10 -15 -10 -16 0 -37 5 -45 10 -12 7
-8 10 15 10 17 0 37 -5 45 -10z m816 -20 c0 -23 -12 -17 -19 9 -3 12 0 18 7
15 6 -2 12 -13 12 -24z m-2566 5 c-7 -8 -21 -15 -32 -15 -17 0 -18 3 -8 15 7
8 21 15 32 15 17 0 18 -3 8 -15z m660 5 c0 -5 -4 -10 -10 -10 -5 0 -10 5 -10
10 0 6 5 10 10 10 6 0 10 -4 10 -10z m1829 -4 c15 -8 20 -16 13 -20 -13 -8
-52 10 -52 24 0 13 10 12 39 -4z m-2559 -39 c0 -7 -6 -22 -14 -33 -14 -18 -15
-17 -12 11 4 37 4 35 16 35 6 0 10 -6 10 -13z m77 7 c-3 -3 -12 -4 -19 -1 -8
3 -5 6 6 6 11 1 17 -2 13 -5z m763 -4 c-8 -5 -26 -10 -40 -10 -20 0 -22 2 -10
10 8 5 26 10 40 10 20 0 22 -2 10 -10z m965 0 c14 -6 16 -9 5 -10 -24 -3 -44
1 -54 11 -12 11 21 11 49 -1z m750 0 c13 -6 15 -9 5 -9 -8 0 -22 4 -30 9 -18
12 -2 12 25 0z m-1815 -10 c0 -5 -4 -10 -10 -10 -5 0 -10 5 -10 10 0 6 5 10
10 10 6 0 10 -4 10 -10z m1130 0 c0 -5 -4 -10 -10 -10 -5 0 -10 5 -10 10 0 6
5 10 10 10 6 0 10 -4 10 -10z m741 -3 c-1 -12 -15 -9 -19 4 -3 6 1 10 8 8 6
-3 11 -8 11 -12z m-2521 -6 c0 -10 -25 -21 -48 -21 -15 1 -14 3 2 15 22 17 46
20 46 6z m2456 -5 c10 -8 16 -17 13 -20 -10 -10 -61 13 -54 24 8 14 18 13 41
-4z m-1749 -12 c-3 -3 -12 -4 -19 -1 -8 3 -5 6 6 6 11 1 17 -2 13 -5z m1020 0
c-3 -3 -12 -4 -19 -1 -8 3 -5 6 6 6 11 1 17 -2 13 -5z m-967 -13 c0 -11 -59
-26 -67 -17 -6 6 33 24 55 25 6 1 12 -3 12 -8z m956 -12 c6 -10 -27 -12 -51
-3 -12 5 -13 9 -5 14 14 9 48 2 56 -11z m-1786 -2 c0 -7 -6 -21 -13 -31 -11
-16 -13 -14 -11 11 3 35 2 33 14 33 6 0 10 -6 10 -13z m55 3 c-27 -12 -43 -12
-25 0 8 5 22 9 30 9 10 0 8 -3 -5 -9z m1785 0 c0 -5 -5 -10 -11 -10 -5 0 -7 5
-4 10 3 6 8 10 11 10 2 0 4 -4 4 -10z m680 0 c13 -9 13 -10 0 -10 -8 0 -22 5
-30 10 -13 9 -13 10 0 10 8 0 22 -5 30 -10z m-1783 -6 c-3 -3 -12 -4 -19 -1
-8 3 -5 6 6 6 11 1 17 -2 13 -5z m1836 -21 c5 -26 4 -26 -9 -8 -16 22 -18 35
-5 35 5 0 11 -12 14 -27z m-2493 2 c0 -8 6 -15 13 -15 6 -1 -1 -8 -16 -16 -16
-9 -31 -13 -34 -10 -3 3 5 10 18 15 24 10 24 10 -5 10 -24 1 -27 3 -16 16 7 8
19 15 26 15 8 0 14 -7 14 -15z m2435 -15 c-3 -4 -14 -6 -25 -3 -20 5 -25 15
-14 26 9 9 46 -12 39 -23z m-1685 -10 c-20 -13 -60 -13 -60 0 0 6 17 10 38 10
27 0 33 -3 22 -10z m945 0 c3 -6 -5 -10 -19 -10 -14 0 -28 5 -31 10 -3 6 5 10
19 10 14 0 28 -4 31 -10z m-1755 -13 c0 -7 -7 -22 -16 -33 -14 -17 -15 -17
-10 -1 3 10 6 25 6 33 0 8 5 14 10 14 6 0 10 -6 10 -13z m730 9 c0 -11 -19
-15 -25 -6 -3 5 1 10 9 10 9 0 16 -2 16 -4z m1080 -6 c0 -5 -4 -10 -10 -10 -5
0 -10 5 -10 10 0 6 5 10 10 10 6 0 10 -4 10 -10z m670 0 c13 -8 13 -10 -2 -10
-9 0 -20 5 -23 10 -8 13 5 13 25 0z m53 -27 c5 -26 4 -26 -9 -8 -16 22 -18 35
-5 35 5 0 11 -12 14 -27z m-2468 -10 c-24 -17 -35 -17 -35 1 0 8 8 16 18 19
27 6 37 -5 17 -20z m2410 8 c3 -5 1 -12 -4 -15 -12 -8 -41 3 -41 15 0 12 37
12 45 0z m-1660 -10 c6 -11 -33 -26 -43 -16 -4 3 0 10 8 15 19 12 27 12 35 1z
m930 -19 c-2 -3 -17 -1 -32 3 l-28 8 25 7 c22 6 46 -7 35 -18z m-1725 -23
c-14 -25 -17 -24 -14 4 3 30 3 29 14 22 7 -4 7 -13 0 -26z m50 15 c-14 -8 -17
-13 -8 -10 10 3 20 1 23 -4 4 -6 -1 -10 -9 -10 -9 0 -16 -6 -17 -12 0 -7 -5
-2 -10 11 -10 26 1 41 31 40 9 0 5 -6 -10 -15z m2388 8 c15 -10 6 -38 -14 -46
-9 -3 -12 -1 -9 4 3 6 1 10 -5 10 -6 0 -8 5 -5 10 4 6 12 7 18 3 7 -4 6 0 -2
10 -14 18 -5 22 17 9z m48 -22 c0 -11 -1 -20 -3 -20 -1 0 -7 9 -13 20 -8 15
-8 20 3 20 7 0 13 -9 13 -20z m-772 -6 c9 -23 8 -24 -19 -24 -14 0 -25 5 -25
10 0 6 7 10 16 10 8 0 12 5 9 10 -3 6 -2 10 3 10 6 0 13 -7 16 -16z m-919 -14
c-3 -5 -15 -10 -26 -10 -10 0 -19 5 -19 10 0 6 12 10 26 10 14 0 23 -4 19 -10z"/>
<path d="M815 1521 c-3 -5 -2 -12 3 -15 5 -3 9 1 9 9 0 17 -3 19 -12 6z"/>
<path d="M426 1587 c3 -10 9 -15 12 -12 3 3 0 11 -7 18 -10 9 -11 8 -5 -6z"/>
</g>
</svg>
