<?xml version="1.0" standalone="no"?>
<!DOCTYPE svg PUBLIC "-//W3C//DTD SVG 20010904//EN"
 "http://www.w3.org/TR/2001/REC-SVG-20010904/DTD/svg10.dtd">
<svg version="1.0" xmlns="http://www.w3.org/2000/svg"
 width="462.000000pt" height="356.000000pt" viewBox="0 0 462.000000 356.000000"
 preserveAspectRatio="xMidYMid meet">

<g transform="translate(0.000000,356.000000) scale(0.100000,-0.100000)"
fill="#000000" stroke="none">
<path d="M2700 3126 c0 -2 103 -86 229 -186 265 -210 256 -195 195 -331 -19
-42 -34 -81 -34 -87 0 -5 14 -12 32 -16 108 -21 135 -39 76 -49 -90 -15 -175
-40 -192 -56 -17 -17 -18 -29 -11 -125 6 -89 10 -106 23 -106 28 0 231 65 312
98 41 18 106 50 144 72 l69 41 31 -28 c17 -15 32 -28 33 -28 1 -1 -11 -46 -28
-100 -31 -104 -52 -234 -64 -391 l-7 -91 111 21 c61 12 116 27 121 32 6 6 13
49 16 95 2 46 8 97 12 112 7 28 8 27 37 -32 16 -34 32 -61 36 -61 4 0 42 25
84 55 43 31 82 54 89 52 6 -3 19 2 28 10 15 14 35 1 209 -138 106 -85 196
-152 199 -149 3 3 4 37 3 75 -1 39 -2 306 -3 595 0 289 -4 541 -9 560 -4 20
-13 34 -20 32 -7 -1 -10 2 -6 8 3 5 1 19 -5 30 -14 26 -88 73 -105 66 -8 -3
-15 0 -17 6 -6 16 -134 24 -151 10 -8 -7 -18 -7 -27 -2 -31 20 -43 12 -36 -25
4 -22 3 -35 -4 -35 -5 0 -10 15 -10 34 l0 34 -246 1 c-218 0 -245 -1 -240 -15
4 -11 1 -14 -12 -12 -9 2 -16 9 -15 15 2 7 -66 11 -214 12 l-215 1 4 -25 c3
-14 1 -25 -3 -25 -9 0 -10 3 -13 33 -1 8 -29 13 -98 15 -86 2 -97 1 -101 -15
-4 -17 -5 -17 -6 0 -1 15 -13 17 -101 17 -55 0 -100 -2 -100 -4z m522 -50 c-3
-5 -9 -1 -13 10 -12 31 -10 39 5 19 8 -11 12 -24 8 -29z m448 34 c0 -5 -5 -10
-11 -10 -5 0 -7 5 -4 10 3 6 8 10 11 10 2 0 4 -4 4 -10z m280 0 c0 -5 -4 -10
-10 -10 -5 0 -10 5 -10 10 0 6 5 10 10 10 6 0 10 -4 10 -10z m-160 -16 c0 -8
-4 -12 -10 -9 -5 3 -10 10 -10 16 0 5 5 9 10 9 6 0 10 -7 10 -16z m-437 -24
c-3 -11 -9 -20 -15 -20 -5 0 -4 9 2 20 6 11 12 20 14 20 2 0 2 -9 -1 -20z
m186 -1 c-16 -10 -23 -4 -14 10 3 6 11 8 17 5 6 -4 5 -9 -3 -15z m691 1 c0 -5
-2 -10 -4 -10 -3 0 -8 5 -11 10 -3 6 -1 10 4 10 6 0 11 -4 11 -10z m-412 -25
c-3 -3 -9 2 -12 12 -6 14 -5 15 5 6 7 -7 10 -15 7 -18z m-777 -21 c-5 -16 -10
-21 -10 -12 -1 18 10 51 15 45 2 -1 -1 -16 -5 -33z m864 26 c3 -5 1 -10 -4
-10 -6 0 -11 5 -11 10 0 6 2 10 4 10 3 0 8 -4 11 -10z m298 -6 c4 -1 16 -2 27
-3 23 -1 28 -31 4 -31 -8 0 -13 4 -9 9 3 5 -7 11 -22 13 -14 2 -29 9 -31 17
-3 10 0 11 9 5 8 -5 17 -9 22 -10z m157 6 c0 -5 -2 -10 -4 -10 -3 0 -8 5 -11
10 -3 6 -1 10 4 10 6 0 11 -4 11 -10z m-961 -32 c14 -19 5 -23 -18 -9 -7 5
-10 14 -6 21 4 6 8 10 9 8 1 -2 8 -11 15 -20z m661 -3 c0 -8 -4 -15 -9 -15
-13 0 -22 16 -14 24 11 11 23 6 23 -9z m30 5 c0 -5 -2 -10 -4 -10 -3 0 -8 5
-11 10 -3 6 -1 10 4 10 6 0 11 -4 11 -10z m-835 -9 c3 -5 1 -12 -5 -16 -5 -3
-10 1 -10 9 0 18 6 21 15 7z m225 -16 c0 -8 -5 -17 -11 -21 -16 -10 -29 17
-16 31 14 15 27 10 27 -10z m-385 -25 c3 -5 1 -10 -4 -10 -6 0 -11 5 -11 10 0
6 2 10 4 10 3 0 8 -4 11 -10z m285 0 c0 -5 -4 -10 -10 -10 -5 0 -10 5 -10 10
0 6 5 10 10 10 6 0 10 -4 10 -10z m717 4 c-3 -3 -12 -4 -19 -1 -8 3 -5 6 6 6
11 1 17 -2 13 -5z m-777 -8 c0 -3 -4 -8 -10 -11 -5 -3 -10 -1 -10 4 0 6 5 11
10 11 6 0 10 -2 10 -4z m416 -22 c-4 -9 -9 -15 -11 -12 -3 3 -3 13 1 22 4 9 9
15 11 12 3 -3 3 -13 -1 -22z m-467 -18 c16 -17 19 -25 9 -28 -26 -9 -46 3 -44
28 1 30 7 30 35 0z m281 14 c0 -5 -5 -10 -11 -10 -5 0 -7 5 -4 10 3 6 8 10 11
10 2 0 4 -4 4 -10z m40 1 c0 -5 3 -17 6 -25 5 -12 2 -15 -10 -10 -17 7 -22 44
-6 44 6 0 10 -4 10 -9z m-376 -17 c5 -14 4 -15 -9 -4 -17 14 -19 20 -6 20 5 0
12 -7 15 -16z m426 12 c0 -3 -4 -8 -10 -11 -5 -3 -10 -1 -10 4 0 6 5 11 10 11
6 0 10 -2 10 -4z m142 -13 c19 -17 25 -63 8 -63 -5 0 -10 9 -10 20 0 11 -7 23
-15 26 -8 4 -15 12 -15 20 0 18 9 18 32 -3z m373 7 c3 -5 1 -10 -4 -10 -6 0
-11 5 -11 10 0 6 2 10 4 10 3 0 8 -4 11 -10z m-775 -10 c0 -5 -4 -10 -9 -10
-6 0 -13 5 -16 10 -3 6 1 10 9 10 9 0 16 -4 16 -10z m150 -31 c0 -6 -4 -7 -10
-4 -5 3 -10 11 -10 16 0 6 5 7 10 4 6 -3 10 -11 10 -16z m-220 -13 c0 -3 -4
-8 -10 -11 -5 -3 -10 -1 -10 4 0 6 5 11 10 11 6 0 10 -2 10 -4z m259 -30 c0
-7 -2 -7 -5 1 -3 7 -12 9 -20 6 -14 -5 -19 8 -7 20 8 9 33 -12 32 -27z m421 9
c0 -9 -6 -12 -15 -9 -8 4 -15 10 -15 15 0 5 7 9 15 9 8 0 15 -7 15 -15z m90 0
c0 -8 -4 -15 -10 -15 -5 0 -10 7 -10 15 0 8 5 15 10 15 6 0 10 -7 10 -15z
m210 11 c0 -3 -4 -8 -10 -11 -5 -3 -10 -1 -10 4 0 6 5 11 10 11 6 0 10 -2 10
-4z m-1030 -22 c0 -8 -4 -12 -10 -9 -5 3 -10 10 -10 16 0 5 5 9 10 9 6 0 10
-7 10 -16z m690 6 c0 -5 -4 -10 -10 -10 -5 0 -10 5 -10 10 0 6 5 10 10 10 6 0
10 -4 10 -10z m-60 -14 c0 -3 -4 -8 -10 -11 -5 -3 -10 -1 -10 4 0 6 5 11 10
11 6 0 10 -2 10 -4z m-45 -16 c-3 -5 -10 -10 -16 -10 -5 0 -9 5 -9 10 0 6 7
10 16 10 8 0 12 -4 9 -10z m-105 -15 c-7 -8 -14 -15 -15 -15 -2 0 -5 7 -9 15
-4 10 1 15 16 15 17 0 18 -2 8 -15z m270 11 c0 -3 -4 -8 -10 -11 -5 -3 -10 -1
-10 4 0 6 5 11 10 11 6 0 10 -2 10 -4z m240 -6 c0 -5 -4 -10 -10 -10 -5 0 -10
5 -10 10 0 6 5 10 10 10 6 0 10 -4 10 -10z m-50 -4 c0 -3 -4 -8 -10 -11 -5 -3
-10 -1 -10 4 0 6 5 11 10 11 6 0 10 -2 10 -4z m-517 -20 c6 -16 -1 -26 -19
-26 -7 0 -10 8 -7 20 6 23 19 26 26 6z m277 4 c0 -5 -2 -10 -4 -10 -3 0 -8 5
-11 10 -3 6 -1 10 4 10 6 0 11 -4 11 -10z m-170 -30 c0 -5 -2 -10 -4 -10 -3 0
-8 5 -11 10 -3 6 -1 10 4 10 6 0 11 -4 11 -10z m280 0 c0 -5 -4 -10 -10 -10
-5 0 -10 5 -10 10 0 6 5 10 10 10 6 0 10 -4 10 -10z m-340 -40 c0 -5 -4 -10
-10 -10 -5 0 -10 5 -10 10 0 6 5 10 10 10 6 0 10 -4 10 -10z m650 -6 c0 -14
-3 -14 -15 -4 -8 7 -15 14 -15 16 0 2 7 4 15 4 8 0 15 -7 15 -16z m-749 -7
c-1 -12 -15 -9 -19 4 -3 6 1 10 8 8 6 -3 11 -8 11 -12z m197 -28 c3 -12 2 -12
-6 0 -6 8 -15 10 -22 6 -9 -5 -11 -4 -6 4 10 15 28 10 34 -10z m96 6 c-4 -8
-8 -15 -10 -15 -2 0 -4 7 -4 15 0 8 4 15 10 15 5 0 7 -7 4 -15z m491 -15 c3
-5 1 -10 -4 -10 -6 0 -11 5 -11 10 0 6 2 10 4 10 3 0 8 -4 11 -10z m-375 -4
c0 -3 -4 -8 -10 -11 -5 -3 -10 -1 -10 4 0 6 5 11 10 11 6 0 10 -2 10 -4z
m-386 -22 c3 -8 2 -12 -4 -9 -6 3 -10 10 -10 16 0 14 7 11 14 -7z m226 6 c0
-5 -7 -10 -16 -10 -8 0 -12 5 -9 10 3 6 10 10 16 10 5 0 9 -4 9 -10z m495 0
c3 -5 2 -10 -4 -10 -5 0 -13 5 -16 10 -3 6 -2 10 4 10 5 0 13 -4 16 -10z
m-655 -24 c0 -8 -4 -18 -10 -21 -5 -3 -10 3 -10 14 0 12 5 21 10 21 6 0 10 -6
10 -14z m85 -6 c3 -5 -1 -10 -9 -10 -9 0 -16 5 -16 10 0 6 4 10 9 10 6 0 13
-4 16 -10z m-55 -4 c0 -3 -4 -8 -10 -11 -5 -3 -10 -1 -10 4 0 6 5 11 10 11 6
0 10 -2 10 -4z m640 -16 c17 -10 14 -15 -16 -24 -14 -4 -26 -1 -35 11 -12 15
-12 16 4 10 9 -3 17 -2 17 3 0 12 11 12 30 0z m-500 -27 c-1 -24 -2 -26 -11
-10 -5 9 -7 22 -4 27 10 17 15 11 15 -17z m280 -13 c0 -5 -2 -10 -4 -10 -3 0
-8 5 -11 10 -3 6 -1 10 4 10 6 0 11 -4 11 -10z m130 -14 c0 -3 -4 -8 -10 -11
-5 -3 -10 -1 -10 4 0 6 5 11 10 11 6 0 10 -2 10 -4z m-342 -45 c3 -8 -1 -12
-9 -9 -7 2 -15 10 -17 17 -3 8 1 12 9 9 7 -2 15 -10 17 -17z m-241 -17 c-3 -3
-12 -4 -19 -1 -8 3 -5 6 6 6 11 1 17 -2 13 -5z m528 -64 c17 -7 17 -9 3 -9
-10 -1 -18 -5 -18 -11 0 -5 -4 -10 -8 -10 -4 0 -8 9 -8 20 0 22 2 23 31 10z
m35 -76 c0 -8 -4 -12 -10 -9 -5 3 -10 13 -10 21 0 8 5 12 10 9 6 -3 10 -13 10
-21z m-50 6 c0 -5 -4 -10 -10 -10 -5 0 -10 5 -10 10 0 6 5 10 10 10 6 0 10 -4
10 -10z m104 -16 c8 -21 8 -24 -3 -24 -5 0 -11 9 -14 20 -6 24 8 27 17 4z
m-34 -34 c0 -5 -4 -10 -10 -10 -5 0 -10 5 -10 10 0 6 5 10 10 10 6 0 10 -4 10
-10z m114 -19 c3 -5 -5 -8 -18 -7 -13 0 -22 4 -19 9 6 10 31 9 37 -2z m-191
-21 c-3 -11 -7 -20 -9 -20 -2 0 -4 9 -4 20 0 11 4 20 9 20 5 0 7 -9 4 -20z
m27 -40 c0 -5 -4 -10 -10 -10 -5 0 -10 5 -10 10 0 6 5 10 10 10 6 0 10 -4 10
-10z m-30 -15 c0 -8 -4 -15 -10 -15 -5 0 -10 7 -10 15 0 8 5 15 10 15 6 0 10
-7 10 -15z m196 -92 c-11 -11 -19 6 -11 24 8 17 8 17 12 0 3 -10 2 -21 -1 -24z
m-96 -4 c0 -5 -7 -9 -15 -9 -9 0 -15 9 -15 21 0 18 2 19 15 9 8 -7 15 -16 15
-21z m62 -22 c-5 -20 -26 -18 -30 4 -1 9 5 15 16 15 13 0 18 -6 14 -19z m-15
-113 c-3 -3 -12 -4 -19 -1 -8 3 -5 6 6 6 11 1 17 -2 13 -5z m70 -46 c-3 -8 -6
-5 -6 6 -1 11 2 17 5 13 3 -3 4 -12 1 -19z m-22 2 c3 -5 2 -10 -4 -10 -5 0
-13 5 -16 10 -3 6 -2 10 4 10 5 0 13 -4 16 -10z"/>
<path d="M611 2801 c-93 -35 -146 -83 -192 -176 -24 -51 -29 -72 -29 -137 0
-101 26 -171 88 -237 58 -62 141 -102 227 -109 223 -17 407 200 351 416 -27
105 -99 192 -195 235 -67 30 -180 33 -250 8z m119 -24 c0 -16 -6 -23 -20 -23
-14 0 -20 7 -20 21 0 14 7 21 20 22 14 1 20 -4 20 -20z m44 17 c26 -10 19 -39
-9 -40 -18 -1 -25 3 -25 15 0 15 8 31 16 31 1 0 9 -3 18 -6z m-104 -24 c0 -11
-4 -20 -10 -20 -5 0 -10 7 -10 15 0 8 -5 15 -11 15 -6 0 -8 -9 -4 -22 6 -16 4
-20 -7 -15 -9 3 -22 -5 -33 -19 -10 -13 -25 -24 -33 -24 -8 0 -13 -3 -9 -6 3
-3 -4 -15 -15 -26 -11 -11 -20 -18 -21 -16 -1 2 -7 13 -14 25 -15 27 5 51 26
30 10 -9 12 -9 11 3 -5 35 0 42 25 38 18 -4 25 -1 25 10 0 8 3 13 6 9 4 -3 13
0 21 8 22 22 53 19 53 -5z m200 -25 c0 -21 -2 -22 -24 -12 -19 9 -22 15 -15
29 13 23 39 12 39 -17z m-33 -38 c81 -42 143 -143 143 -231 -1 -90 -76 -192
-166 -226 -67 -24 -92 -25 -161 -3 -104 33 -174 124 -177 229 -1 52 -2 54 -28
54 -31 0 -41 11 -32 34 8 20 44 21 44 2 0 -32 21 -25 36 13 19 48 93 119 143
138 44 16 157 11 198 -10z m111 3 c12 0 13 -3 4 -12 -17 -17 -15 -27 6 -22 20
6 53 -37 33 -44 -20 -7 -12 -20 9 -15 15 4 20 0 20 -16 0 -11 -2 -21 -4 -21
-2 0 -11 -3 -19 -6 -10 -3 -17 3 -21 20 -3 13 -18 38 -32 55 -14 17 -23 35
-19 41 3 6 0 7 -9 4 -19 -7 -21 7 -4 24 8 8 14 9 16 2 2 -5 11 -10 20 -10z
m-450 -62 c-4 -29 -38 -38 -38 -10 0 22 8 32 27 32 9 0 13 -8 11 -22z m-38
-56 c-27 -4 -32 1 -24 21 5 14 8 14 25 -1 20 -17 20 -17 -1 -20z m580 -47 c0
-21 -30 -31 -41 -14 -14 23 -11 29 16 29 16 0 25 -6 25 -15z m-592 -47 c-2
-13 -10 -23 -18 -23 -8 0 -16 10 -18 23 -3 17 2 22 18 22 16 0 21 -5 18 -22z
m592 -7 c0 -10 -9 -21 -20 -24 -16 -4 -20 0 -20 19 0 17 6 24 20 24 13 0 20
-7 20 -19z m0 -45 c0 -18 -15 -36 -30 -36 -13 0 -17 5 -13 20 4 16 43 31 43
16z m-583 -21 c-4 -8 -2 -17 4 -20 5 -4 7 -11 4 -16 -4 -5 6 -20 21 -34 15
-14 23 -25 18 -25 -5 0 0 -6 11 -12 19 -11 18 -12 -10 -20 -35 -9 -54 4 -36
26 10 12 9 13 -10 9 -18 -5 -21 -3 -16 10 3 9 1 18 -6 20 -8 3 -5 10 8 20 20
16 20 16 -1 11 -27 -7 -40 21 -16 35 24 15 35 13 29 -4z m573 -44 c0 -17 -15
-19 -35 -5 -18 13 -18 14 8 14 15 0 27 -4 27 -9z m-22 -44 c4 -20 -25 -34 -40
-19 -15 15 -1 44 19 40 10 -2 19 -11 21 -21z m-39 -60 c-8 -7 -19 -12 -25 -10
-7 2 -14 -8 -18 -22 -8 -31 -21 -32 -37 -3 -10 18 -9 20 5 15 12 -5 16 0 16
16 0 29 39 49 59 31 12 -11 12 -15 0 -27z m-409 3 c0 -5 -4 -10 -10 -10 -5 0
-10 -7 -10 -15 0 -19 -5 -19 -30 3 l-21 17 23 7 c35 9 48 9 48 -2z m13 -50
c-5 -20 -15 -25 -26 -14 -8 8 15 44 24 38 4 -2 5 -13 2 -24z m317 -18 c0 -8
-3 -12 -7 -9 -3 4 -12 2 -19 -4 -19 -16 -31 16 -14 36 15 18 40 3 40 -23z
m-280 8 c0 -13 -6 -20 -17 -19 -10 0 -13 3 -6 5 7 3 9 12 6 20 -3 8 0 14 6 14
6 0 11 -9 11 -20z m85 -10 c3 -5 1 -10 -4 -10 -6 0 -11 5 -11 10 0 6 2 10 4
10 3 0 8 -4 11 -10z m72 -12 c-3 -8 -6 -5 -6 6 -1 11 2 17 5 13 3 -3 4 -12 1
-19z m-112 -18 c3 -5 1 -10 -4 -10 -6 0 -11 5 -11 10 0 6 2 10 4 10 3 0 8 -4
11 -10z m79 -5 c3 -9 0 -15 -9 -15 -9 0 -12 6 -9 15 4 8 7 15 9 15 2 0 5 -7 9
-15z m81 5 c-3 -5 -11 -10 -16 -10 -6 0 -7 5 -4 10 3 6 11 10 16 10 6 0 7 -4
4 -10z"/>
<path d="M555 2730 c3 -5 8 -10 11 -10 2 0 4 5 4 10 0 6 -5 10 -11 10 -5 0 -7
-4 -4 -10z"/>
<path d="M790 2685 l-25 -15 35 3 c38 2 41 -5 26 -83 -7 -35 -7 -35 8 5 19 48
20 77 4 93 -15 15 -17 15 -48 -3z"/>
<path d="M612 2678 c-18 -18 -15 -43 9 -69 l20 -24 -11 23 c-21 43 -9 66 35
73 l40 6 -40 2 c-23 0 -46 -4 -53 -11z"/>
<path d="M675 2630 c-3 -6 1 -7 9 -4 18 7 21 14 7 14 -6 0 -13 -4 -16 -10z"/>
<path d="M654 2536 c17 -14 18 -16 3 -16 -20 0 -23 -16 -4 -24 9 -5 9 -7 0
-12 -7 -3 -9 -12 -6 -20 3 -8 -1 -14 -8 -14 -11 0 -11 -3 1 -10 12 -8 13 -11
1 -19 -11 -7 -11 -9 0 -14 11 -4 11 -6 1 -6 -18 -1 -5 -21 14 -21 8 0 12 5 9
10 -3 6 1 10 11 10 13 0 14 3 4 15 -9 10 -9 15 -1 15 6 0 11 5 11 11 0 5 -4 7
-10 4 -5 -3 -10 -1 -10 4 0 6 7 11 15 11 18 0 20 16 3 23 -8 3 -6 6 5 6 19 1
24 21 5 21 -6 0 -3 7 8 15 19 14 19 14 -1 15 -11 0 -31 3 -45 6 -24 5 -24 5
-6 -10z"/>
<path d="M742 2523 c11 -3 23 -26 34 -64 9 -33 21 -62 27 -66 14 -9 37 26 36
56 -1 24 -2 23 -10 -6 -13 -46 -26 -48 -34 -6 -10 53 -33 93 -53 92 -16 -1
-16 -2 0 -6z"/>
<path d="M822 2500 c0 -14 2 -19 5 -12 2 6 2 18 0 25 -3 6 -5 1 -5 -13z"/>
<path d="M945 2290 c3 -5 8 -10 11 -10 2 0 4 5 4 10 0 6 -5 10 -11 10 -5 0 -7
-4 -4 -10z"/>
<path d="M1271 2711 c-53 -53 13 -127 80 -91 21 12 26 40 6 40 -7 0 -18 -5
-24 -11 -16 -16 -43 -3 -43 20 0 28 18 36 48 20 20 -11 26 -11 29 -1 3 6 11
12 19 12 10 0 14 -12 14 -40 0 -33 3 -40 20 -40 17 0 20 7 20 40 0 22 5 40 10
40 6 0 10 5 10 11 0 6 -22 10 -52 9 -29 0 -67 2 -85 6 -24 5 -36 1 -52 -15z"/>
<path d="M1483 2723 c-10 -3 -9 -12 3 -35 9 -17 14 -39 11 -49 -4 -13 0 -19
12 -19 11 0 26 18 41 50 25 53 22 74 -8 47 -15 -14 -20 -14 -33 -3 -8 7 -20
12 -26 9z"/>
<path d="M1597 2724 c-4 -4 -7 -20 -7 -36 0 -16 -5 -39 -11 -50 -14 -26 4 -49
23 -30 15 15 48 16 48 2 0 -5 7 -10 15 -10 13 0 15 11 13 63 l-3 62 -35 3
c-20 2 -39 0 -43 -4z m43 -54 c0 -16 -4 -30 -10 -30 -5 0 -10 14 -10 30 0 17
5 30 10 30 6 0 10 -13 10 -30z"/>
<path d="M1707 2724 c-4 -4 -7 -29 -7 -56 0 -56 20 -65 44 -20 l15 27 1 -27
c0 -18 5 -28 15 -28 12 0 15 13 15 55 0 62 -18 74 -40 28 -12 -25 -14 -26 -18
-8 -5 25 -16 37 -25 29z"/>
<path d="M1827 2719 c-23 -13 -20 -99 4 -99 8 0 20 5 27 12 9 9 12 9 12 0 0
-7 7 -12 15 -12 22 0 21 95 -1 104 -22 8 -36 7 -57 -5z m43 -34 c0 -8 -4 -15
-9 -15 -13 0 -22 16 -14 24 11 11 23 6 23 -9z"/>
<path d="M1270 2520 c-11 -11 -20 -29 -20 -40 0 -27 35 -60 64 -60 54 0 78 74
34 104 -30 21 -54 20 -78 -4z m65 -30 c8 -24 -1 -40 -21 -40 -17 0 -28 24 -20
45 8 22 34 18 41 -5z"/>
<path d="M1602 2524 c-43 -30 -17 -104 36 -104 28 0 62 34 62 60 0 25 -34 60
-58 60 -10 0 -28 -7 -40 -16z m53 -44 c0 -15 -6 -26 -16 -28 -19 -3 -31 21
-22 43 9 25 38 13 38 -15z"/>
<path d="M1842 2524 c-33 -23 -27 -73 11 -94 24 -13 30 -13 55 0 35 20 41 61
13 89 -25 25 -49 27 -79 5z m56 -38 c6 -29 -15 -43 -35 -24 -14 14 -14 20 -3
33 16 19 34 15 38 -9z"/>
<path d="M1956 2533 c-9 -9 -7 -86 3 -102 12 -18 31 -5 31 20 0 28 24 19 28
-10 6 -41 27 -15 30 37 2 40 0 52 -11 52 -8 0 -17 -9 -20 -20 -7 -25 -27 -26
-27 -1 0 19 -23 35 -34 24z"/>
<path d="M2167 2534 c-11 -12 -8 -102 4 -110 6 -3 22 6 35 22 l23 29 1 -28 c0
-18 5 -27 13 -24 15 5 17 109 1 114 -6 2 -17 -8 -25 -23 l-14 -26 -5 23 c-6
24 -21 34 -33 23z"/>
<path d="M1390 2474 c0 -41 4 -54 15 -54 8 0 15 6 15 13 0 7 14 18 30 24 21 8
30 18 30 33 0 15 5 20 18 18 12 -2 18 -15 20 -46 4 -56 26 -51 30 6 2 23 7 42
13 42 5 0 9 4 9 10 0 5 -39 9 -90 9 l-90 0 0 -55z m52 21 c0 -5 -5 -11 -11
-13 -6 -2 -11 4 -11 13 0 9 5 15 11 13 6 -2 11 -8 11 -13z"/>
<path d="M1720 2500 c0 -17 -5 -39 -12 -49 -14 -24 -3 -60 14 -43 15 15 51 15
66 0 19 -19 22 -5 16 60 l-7 62 -38 0 c-37 0 -39 -2 -39 -30z m50 -20 c0 -16
-4 -30 -10 -30 -5 0 -10 14 -10 30 0 17 5 30 10 30 6 0 10 -13 10 -30z"/>
<path d="M2060 2521 c0 -5 7 -11 15 -15 10 -3 15 -19 15 -46 0 -29 4 -40 15
-40 11 0 15 11 15 40 0 27 5 43 15 46 30 12 14 24 -30 24 -25 0 -45 -4 -45 -9z"/>
<path d="M2282 2478 c3 -58 21 -73 39 -34 13 28 29 25 29 -5 0 -12 5 -19 13
-17 7 3 13 26 15 56 3 46 1 52 -17 52 -11 0 -22 -9 -26 -20 -3 -11 -11 -20
-16 -20 -5 0 -9 9 -9 20 0 11 -7 20 -16 20 -12 0 -14 -10 -12 -52z"/>
<path d="M1266 2343 c-3 -3 -6 -30 -6 -60 0 -61 19 -72 44 -25 14 25 15 25 16
5 0 -25 17 -40 30 -27 11 12 0 104 -12 104 -5 0 -18 -10 -29 -22 l-18 -23 -1
22 c0 23 -13 37 -24 26z"/>
<path d="M1416 2343 c-11 -11 -6 -102 6 -109 6 -4 21 5 35 22 l23 29 0 -27 c0
-18 5 -28 15 -28 12 0 15 13 15 55 0 61 -15 72 -43 33 l-16 -23 0 21 c-1 21
-23 38 -35 27z"/>
<path d="M1817 2344 c-4 -4 -7 -21 -7 -39 0 -17 -5 -36 -12 -43 -9 -9 -9 -15
0 -24 17 -17 42 8 42 43 0 46 19 43 22 -3 2 -30 7 -43 18 -43 11 0 16 14 18
53 3 49 2 52 -22 52 -13 0 -31 2 -38 5 -8 3 -17 2 -21 -1z"/>
<path d="M2264 2342 c-13 -8 -46 -103 -39 -110 3 -3 16 1 30 8 19 10 27 10 39
1 27 -23 37 -3 19 42 -19 51 -34 69 -49 59z m13 -64 c-3 -8 -6 -5 -6 6 -1 11
2 17 5 13 3 -3 4 -12 1 -19z"/>
<path d="M2580 2291 c0 -34 4 -61 9 -61 5 0 19 12 30 28 l20 27 1 -27 c0 -18
5 -28 15 -28 12 0 15 13 15 55 0 60 -19 75 -42 33 l-12 -23 -6 24 c-3 14 -11
26 -18 29 -9 3 -12 -14 -12 -57z"/>
<path d="M1532 2288 c2 -30 8 -53 16 -56 7 -2 12 5 12 17 0 27 16 27 23 1 7
-29 25 -25 34 8 l7 27 6 -24 c3 -14 11 -26 18 -29 8 -2 12 13 12 52 0 47 -3
56 -18 56 -11 0 -25 -13 -34 -32 l-15 -33 -7 33 c-6 25 -13 32 -32 32 -24 0
-25 -3 -22 -52z"/>
<path d="M1682 2288 c2 -39 7 -53 18 -53 10 0 16 13 18 43 2 23 7 42 12 42 12
0 23 -41 18 -66 -2 -12 3 -19 12 -19 11 0 16 14 18 53 l3 52 -51 0 -51 0 3
-52z"/>
<path d="M1927 2289 c-21 -58 -17 -68 18 -49 20 11 27 11 40 0 25 -20 30 -4
14 48 -22 68 -48 69 -72 1z m39 -16 c-10 -10 -19 5 -10 18 6 11 8 11 12 0 2
-7 1 -15 -2 -18z"/>
<path d="M2030 2285 c0 -42 3 -55 15 -55 8 0 15 9 15 20 0 27 26 26 33 -1 10
-39 32 -15 35 39 3 47 1 52 -17 52 -14 0 -21 -6 -21 -20 0 -11 -7 -20 -15 -20
-8 0 -15 9 -15 20 0 11 -7 20 -15 20 -12 0 -15 -13 -15 -55z"/>
<path d="M2140 2331 c0 -5 7 -11 15 -15 10 -3 15 -19 15 -46 0 -29 4 -40 15
-40 11 0 15 12 15 45 0 33 4 45 15 45 8 0 15 5 15 10 0 6 -20 10 -45 10 -25 0
-45 -4 -45 -9z"/>
<path d="M2342 2288 l3 -53 44 -7 c25 -4 46 -6 48 -4 2 2 1 29 -3 60 -5 37
-11 56 -20 56 -10 0 -14 -13 -14 -41 0 -52 -24 -48 -28 4 -2 25 -8 37 -18 37
-12 0 -14 -11 -12 -52z"/>
<path d="M2460 2285 c0 -63 19 -74 44 -27 l15 27 1 -28 c0 -22 4 -28 17 -25
21 4 27 28 18 74 -7 38 -30 46 -40 14 -3 -11 -11 -20 -16 -20 -5 0 -9 9 -9 20
0 11 -7 20 -15 20 -12 0 -15 -13 -15 -55z"/>
<path d="M440 1774 c0 -93 1 -95 23 -92 20 3 22 9 25 71 3 63 4 67 27 67 23 0
24 -4 27 -67 3 -62 5 -68 26 -71 21 -3 22 -1 22 92 l0 96 -75 0 -75 0 0 -96z"/>
<path d="M645 1845 c-19 -18 -25 -35 -25 -69 0 -37 5 -48 31 -70 55 -47 129
-32 155 31 18 42 5 94 -29 118 -35 24 -104 19 -132 -10z m113 -64 c7 -46 -56
-72 -78 -32 -14 28 -13 38 11 62 18 18 23 19 42 6 12 -8 23 -24 25 -36z"/>
<path d="M850 1807 c0 -45 -5 -68 -15 -77 -8 -7 -15 -25 -15 -41 0 -24 4 -29
25 -29 14 0 25 5 25 10 0 6 18 10 40 10 29 0 40 -4 40 -15 0 -9 9 -15 25 -15
22 0 25 4 25 38 0 21 -3 42 -6 45 -4 4 -7 35 -8 69 l-1 63 -67 3 -68 3 0 -64z
m88 -29 c-2 -31 -8 -44 -20 -46 -15 -3 -18 4 -18 42 0 40 3 46 21 46 18 0 20
-5 17 -42z"/>
<path d="M1045 1788 c-16 -46 -30 -89 -33 -95 -6 -19 43 -16 58 2 7 8 20 15
30 15 10 0 23 -7 30 -15 14 -16 60 -21 60 -6 0 6 -14 48 -31 95 -29 79 -33 86
-58 86 -25 0 -30 -6 -56 -82z m71 -35 c-2 -3 -11 -3 -19 -1 -11 2 -12 9 -5 28
l10 25 9 -24 c5 -13 7 -26 5 -28z"/>
<path d="M1210 1775 c0 -94 0 -95 24 -95 18 0 26 6 28 22 2 16 12 24 38 29 44
9 73 44 65 78 -10 42 -41 61 -101 61 l-54 0 0 -95z m90 40 c10 -12 10 -18 0
-30 -19 -23 -30 -18 -30 15 0 33 11 38 30 15z"/>
<path d="M1406 1844 c-58 -59 -14 -164 69 -164 47 0 71 14 91 52 35 68 -11
138 -91 138 -32 0 -48 -6 -69 -26z m112 -58 c4 -34 -13 -56 -45 -56 -25 0 -45
33 -35 60 15 47 75 43 80 -4z"/>
<path d="M1590 1821 c0 -59 18 -81 66 -81 31 0 34 -2 34 -30 0 -25 4 -30 25
-30 25 0 25 0 25 95 0 95 0 95 -25 95 -23 0 -25 -4 -25 -45 0 -37 -3 -45 -19
-45 -19 0 -31 25 -31 68 0 17 -6 22 -25 22 -23 0 -25 -3 -25 -49z"/>
<path d="M1778 1784 c-3 -95 0 -108 28 -102 13 2 20 13 22 36 3 26 7 32 28 32
21 0 24 -5 24 -35 0 -31 3 -35 25 -35 25 0 25 0 25 95 0 95 0 95 -25 95 -22 0
-25 -4 -25 -35 0 -31 -3 -35 -25 -35 -22 0 -25 4 -25 35 0 30 -3 35 -24 35
-24 0 -25 -3 -28 -86z"/>
<path d="M1983 1781 c-17 -49 -29 -92 -26 -95 11 -11 40 -6 53 9 7 8 20 15 30
15 10 0 23 -7 30 -15 13 -16 60 -21 60 -7 0 4 -13 46 -28 92 -27 79 -31 85
-58 88 -28 3 -30 0 -61 -87z m76 -23 c1 -5 -6 -8 -14 -8 -15 0 -21 31 -8 44 7
6 20 -17 22 -36z"/>
<path d="M2177 1859 c-31 -18 -39 -56 -21 -95 13 -26 14 -38 5 -47 -20 -20
-12 -37 17 -37 21 0 32 7 40 25 15 32 32 32 32 -1 0 -21 4 -25 23 -22 21 3 22
8 25 96 l3 92 -53 0 c-29 0 -61 -5 -71 -11z m71 -53 c5 -24 -10 -38 -31 -30
-20 7 -22 25 -5 42 16 16 32 10 36 -12z"/>
<path d="M2397 1863 c-9 -8 -9 -110 -1 -152 5 -25 11 -31 28 -29 16 2 22 12
26 38 l5 35 23 -37 c19 -30 30 -38 53 -38 16 0 29 3 29 6 0 3 -14 24 -31 45
-30 38 -30 39 -12 63 10 14 21 26 26 26 4 0 7 11 7 25 0 38 -35 32 -62 -10
-29 -44 -38 -44 -38 0 0 30 -3 35 -23 35 -13 0 -27 -3 -30 -7z"/>
<path d="M2630 1868 c0 -2 -14 -41 -30 -88 -16 -47 -30 -88 -30 -92 0 -15 51
-8 56 7 4 8 16 15 29 15 12 0 28 -7 35 -15 15 -18 64 -21 58 -2 -3 6 -17 49
-32 95 -26 78 -29 82 -57 82 -16 0 -29 -1 -29 -2z m42 -93 c4 -19 1 -25 -12
-25 -13 0 -16 6 -12 25 2 14 8 25 12 25 4 0 10 -11 12 -25z"/>
<path d="M2770 1775 c0 -95 0 -95 25 -95 20 0 25 5 25 25 0 21 5 25 28 25 46
0 72 25 72 70 0 51 -26 70 -97 70 l-53 0 0 -95z m90 39 c11 -12 11 -18 -2 -31
-19 -18 -38 -10 -38 16 0 33 20 40 40 15z"/>
<path d="M2930 1846 c0 -18 6 -25 23 -28 19 -3 22 -9 23 -48 1 -87 2 -90 29
-90 24 0 25 2 25 69 0 65 2 70 23 73 14 2 22 10 22 23 0 18 -8 20 -72 23 -72
3 -73 2 -73 -22z"/>
<path d="M3093 1781 c-17 -49 -28 -92 -25 -95 10 -11 40 -6 52 9 7 8 23 15 35
15 13 0 25 -7 29 -15 5 -15 56 -22 56 -7 0 4 -13 46 -28 92 -27 79 -31 85 -58
88 -29 3 -31 1 -61 -87z m76 -23 c1 -5 -6 -8 -14 -8 -15 0 -21 31 -8 44 7 6
20 -17 22 -36z"/>
<path d="M462 1513 c-78 -38 -97 -94 -90 -261 4 -114 23 -152 92 -183 39 -18
96 -19 1401 -19 l1361 0 44 23 c70 34 90 84 90 217 0 129 -21 181 -85 217
l-40 23 -1370 0 c-1241 0 -1373 -2 -1403 -17z m858 -108 l0 -35 -70 0 c-60 0
-70 -3 -70 -17 0 -15 8 -17 48 -15 36 3 53 -1 74 -18 56 -44 43 -141 -23 -176
-72 -37 -189 2 -189 63 0 21 5 23 45 23 25 0 45 -4 45 -9 0 -26 54 -21 64 5
13 35 -40 74 -59 44 -3 -5 -26 -10 -51 -10 l-44 0 0 83 c0 46 3 87 7 90 3 4
55 7 115 7 l108 0 0 -35z m345 23 c63 -29 88 -171 42 -239 -32 -47 -62 -61
-126 -56 -46 3 -59 9 -82 35 -54 60 -51 182 6 239 29 29 40 33 84 33 27 0 62
-5 76 -12z m301 -7 c41 -25 57 -75 52 -155 -6 -94 -45 -136 -129 -136 -87 0
-133 53 -134 155 0 68 25 122 66 142 37 19 109 16 145 -6z m283 6 c41 -20 65
-72 65 -141 -1 -105 -46 -156 -136 -156 -88 1 -128 49 -128 153 0 78 17 119
58 141 33 19 108 20 141 3z m422 -10 c65 -43 65 -143 -1 -194 -8 -7 -36 -13
-62 -13 -27 0 -48 -4 -48 -10 0 -5 11 -10 25 -10 16 0 25 -6 25 -15 0 -10 -10
-15 -30 -15 -16 0 -30 -4 -30 -10 0 -15 -82 -12 -102 4 -21 16 -23 32 -5 40
10 5 10 7 0 12 -18 8 -16 71 2 78 11 4 15 22 15 74 0 38 3 72 8 76 14 15 175
1 203 -17z"/>
<path d="M1572 1357 c-17 -20 -25 -65 -18 -102 15 -79 86 -56 86 28 0 65 -40
109 -68 74z"/>
<path d="M1862 1358 c-18 -18 -15 -123 4 -142 20 -20 27 -20 47 2 22 25 23
115 1 136 -19 19 -36 20 -52 4z"/>
<path d="M2150 1351 c-16 -31 -12 -117 6 -135 18 -19 20 -19 45 -6 16 9 19 22
19 73 0 36 -5 68 -12 75 -18 18 -46 14 -58 -7z"/>
<path d="M2550 1325 c0 -57 60 -61 68 -5 4 26 -12 40 -45 40 -20 0 -23 -5 -23
-35z"/>
<path d="M1147 793 c-11 -10 -8 -61 3 -68 6 -4 10 8 10 29 0 51 27 49 33 -1
l4 -38 1 43 c2 38 0 42 -21 42 -13 0 -27 -3 -30 -7z"/>
<path d="M1936 792 c-2 -4 -1 -23 4 -42 l8 -35 1 43 c1 41 -3 50 -13 34z"/>
<path d="M1976 785 c-3 -8 -1 -15 3 -15 5 0 11 6 14 13 2 6 8 9 12 4 5 -4 -1
-17 -13 -30 -29 -30 -28 -37 6 -36 16 1 20 3 10 6 -22 6 -23 19 -3 27 22 8 19
46 -4 46 -10 0 -21 -7 -25 -15z"/>
<path d="M2107 794 c-4 -4 -7 -12 -7 -18 0 -6 4 -4 10 4 5 8 12 11 16 7 4 -4
-2 -17 -14 -30 -30 -31 -28 -37 11 -36 27 1 28 2 9 7 l-23 7 21 18 c12 10 20
23 17 30 -4 14 -30 21 -40 11z"/>
<path d="M2220 760 c0 -25 4 -39 10 -35 6 3 10 19 10 36 0 19 5 29 15 29 11 0
15 -11 15 -37 0 -26 3 -34 11 -26 6 6 9 23 7 39 -2 25 -8 29 -35 32 -32 3 -33
3 -33 -38z"/>
<path d="M2771 758 c1 -24 3 -35 6 -25 5 18 5 18 18 0 13 -17 14 -17 21 1 7
19 8 19 15 0 5 -13 8 -6 8 24 1 26 -3 41 -9 37 -5 -3 -10 -12 -10 -20 0 -26
-20 -26 -30 -1 -14 37 -20 32 -19 -16z"/>
<path d="M3490 780 c-9 -16 -15 -18 -29 -10 -14 7 -22 6 -31 -5 -25 -30 10
-61 38 -33 10 10 15 10 21 -1 12 -19 46 -9 49 16 2 15 -4 23 -20 29 -22 7 -22
7 -3 15 16 6 17 8 3 8 -10 1 -22 -8 -28 -19z m-30 -36 c0 -17 -22 -14 -28 4
-2 7 3 12 12 12 9 0 16 -7 16 -16z m68 4 c-6 -18 -28 -21 -28 -4 0 9 7 16 16
16 9 0 14 -5 12 -12z"/>
<path d="M791 757 c-1 -20 5 -30 22 -37 18 -7 18 -9 4 -9 -10 -1 -15 -6 -12
-11 13 -21 35 12 34 49 -1 29 -2 31 -7 13 -4 -13 -11 -23 -17 -23 -5 0 -13 10
-17 23 -6 21 -6 21 -7 -5z"/>
<path d="M858 750 c-3 -16 -1 -30 4 -30 4 0 8 9 8 20 0 27 18 25 23 -2 3 -20
4 -21 11 -5 11 24 0 47 -23 47 -13 0 -20 -9 -23 -30z"/>
<path d="M950 765 c-11 -13 -15 -13 -21 -3 -6 9 -9 3 -9 -16 0 -25 2 -27 16
-15 13 10 17 10 25 -2 6 -10 9 -5 9 19 0 36 -2 38 -20 17z"/>
<path d="M980 752 c0 -24 5 -31 28 -35 15 -3 28 -4 29 -4 1 1 -2 18 -7 37 -5
23 -8 27 -9 13 -1 -28 -21 -41 -21 -14 0 11 -4 23 -10 26 -6 4 -10 -6 -10 -23z"/>
<path d="M1054 763 c-19 -19 -7 -43 22 -43 20 0 24 5 24 28 0 32 -22 39 -46
15z m34 -15 c-6 -18 -28 -21 -28 -4 0 9 7 16 16 16 9 0 14 -5 12 -12z"/>
<path d="M1233 773 c-8 -2 -13 -21 -12 -41 0 -20 3 -31 6 -24 2 6 13 12 23 12
22 0 34 28 19 46 -12 15 -16 16 -36 7z m27 -28 c0 -8 -4 -15 -10 -15 -5 0 -10
7 -10 15 0 8 5 15 10 15 6 0 10 -7 10 -15z"/>
<path d="M1301 770 c-19 -11 -9 -45 14 -45 13 0 21 8 23 21 3 23 -17 37 -37
24z m27 -21 c-2 -6 -8 -10 -13 -10 -5 0 -11 4 -13 10 -2 6 4 11 13 11 9 0 15
-5 13 -11z"/>
<path d="M1363 773 c-18 -7 -16 -42 3 -50 8 -3 21 0 27 7 9 9 8 11 -7 8 -10
-1 -21 3 -24 11 -3 10 1 12 17 8 11 -3 21 -2 21 3 0 11 -22 18 -37 13z"/>
<path d="M1410 749 c0 -26 3 -30 23 -27 36 5 27 57 -10 58 -8 0 -13 -13 -13
-31z"/>
<path d="M1471 762 c-11 -20 2 -42 25 -42 16 0 24 36 11 49 -16 16 -25 14 -36
-7z"/>
<path d="M1531 754 c-1 -30 1 -32 38 -36 39 -3 40 -3 34 27 -8 41 -13 44 -13
10 0 -31 -15 -25 -23 10 -4 15 -5 13 -6 -7 0 -16 -5 -28 -10 -28 -5 0 -12 12
-14 28 -4 26 -4 26 -6 -4z"/>
<path d="M1627 773 c-4 -3 -7 -17 -7 -30 0 -29 35 -32 43 -4 7 27 -19 52 -36
34z"/>
<path d="M1741 753 c-1 -34 12 -45 23 -18 3 8 1 15 -4 15 -5 0 -11 8 -13 18
-3 9 -5 2 -6 -15z"/>
<path d="M1776 771 c-4 -5 -2 -20 3 -33 9 -21 10 -21 10 10 1 32 -3 39 -13 23z"/>
<path d="M1812 768 c-13 -17 -1 -43 21 -44 12 -1 17 6 17 27 0 31 -20 39 -38
17z"/>
<path d="M2041 755 c-1 -23 3 -31 17 -31 12 0 17 9 18 28 1 22 -2 26 -11 18
-9 -8 -15 -7 -18 2 -3 7 -6 -1 -6 -17z"/>
<path d="M2303 745 c0 -22 5 -43 11 -47 18 -12 36 14 35 51 -1 29 -2 31 -7 13
-4 -13 -11 -23 -17 -23 -5 0 -13 10 -17 23 -5 16 -6 12 -5 -17z"/>
<path d="M2430 761 c0 -11 -4 -23 -10 -26 -5 -3 -10 3 -10 14 0 28 -20 27 -21
-1 -1 -22 -1 -22 -8 2 -7 24 -7 25 -13 3 -8 -28 -2 -33 39 -33 30 0 33 3 33
30 0 17 -2 30 -5 30 -3 0 -5 -9 -5 -19z"/>
<path d="M2511 753 c-1 -33 13 -45 22 -20 4 9 8 8 16 -3 8 -12 11 -7 11 20 -1
30 -2 33 -13 18 -12 -15 -14 -15 -24 0 -10 14 -12 12 -12 -15z"/>
<path d="M2581 750 c0 -27 2 -32 10 -20 8 11 12 12 16 3 8 -22 23 -14 23 12 0
14 -4 25 -10 25 -5 0 -10 -4 -10 -10 0 -17 -18 -11 -23 8 -3 9 -5 1 -6 -18z"/>
<path d="M2651 770 c-19 -11 -9 -45 14 -45 13 0 21 8 23 21 3 23 -17 37 -37
24z m27 -21 c-2 -6 -8 -10 -13 -10 -5 0 -11 4 -13 10 -2 6 4 11 13 11 9 0 15
-5 13 -11z"/>
<path d="M2871 770 c-19 -11 -9 -45 14 -45 13 0 21 8 23 21 3 23 -17 37 -37
24z m27 -21 c-2 -6 -8 -10 -13 -10 -5 0 -11 4 -13 10 -2 6 4 11 13 11 9 0 15
-5 13 -11z"/>
<path d="M2930 765 c-7 -8 -10 -22 -6 -30 6 -17 32 -20 41 -4 4 6 0 9 -10 7
-10 -2 -20 3 -23 11 -3 10 1 12 17 8 23 -6 29 8 7 16 -8 3 -20 -1 -26 -8z"/>
<path d="M3017 772 c-4 -6 -14 -9 -22 -5 -11 3 -15 -2 -15 -18 0 -19 6 -24 25
-25 20 -2 23 1 15 11 -7 8 -7 15 -1 19 5 4 12 -3 16 -14 8 -24 40 -26 49 -3
10 24 -19 50 -38 34 -11 -9 -15 -9 -18 1 -3 9 -6 9 -11 0z m53 -27 c0 -8 -4
-15 -9 -15 -13 0 -22 16 -14 24 11 11 23 6 23 -9z"/>
<path d="M3100 751 c0 -25 4 -31 21 -31 16 0 20 5 17 27 -2 17 -10 29 -20 31
-14 3 -18 -3 -18 -27z"/>
<path d="M3160 765 c-7 -8 -10 -22 -6 -30 6 -17 32 -20 41 -4 4 6 1 9 -6 7 -8
-1 -14 2 -14 7 0 6 6 9 13 9 17 -2 15 13 -2 19 -8 3 -20 -1 -26 -8z"/>
<path d="M3275 771 c-2 -5 -18 -7 -35 -5 -27 3 -31 1 -28 -18 2 -13 12 -22 27
-25 20 -3 22 -1 12 11 -8 9 -8 16 -2 20 5 4 12 -3 16 -14 4 -13 15 -20 31 -20
20 0 24 5 24 28 0 20 -5 28 -20 29 -11 1 -22 -2 -25 -6z m27 -26 c0 -5 -5 -11
-11 -13 -6 -2 -11 4 -11 13 0 9 5 15 11 13 6 -2 11 -8 11 -13z"/>
<path d="M3342 772 c-17 -11 -2 -47 21 -48 12 -1 17 6 17 27 0 29 -13 36 -38
21z"/>
<path d="M3557 753 c-6 -34 1 -46 10 -15 7 28 20 28 26 0 3 -17 5 -14 6 10 1
25 -3 32 -18 32 -12 0 -20 -9 -24 -27z"/>
<path d="M3620 770 c-22 -13 -7 -45 23 -48 26 -3 28 -1 25 24 -3 28 -24 39
-48 24z m30 -18 c0 -13 -12 -22 -22 -16 -10 6 -1 24 13 24 5 0 9 -4 9 -8z"/>
<path d="M3693 773 c-18 -7 -16 -42 3 -50 8 -3 21 0 27 7 9 9 8 11 -7 8 -10
-1 -21 3 -24 11 -3 10 1 12 17 8 11 -3 21 -2 21 3 0 11 -22 18 -37 13z"/>
<path d="M3746 753 c9 -36 14 -42 14 -15 0 12 5 22 10 22 6 0 10 5 10 10 0 6
-9 10 -20 10 -17 0 -19 -4 -14 -27z"/>
<path d="M3790 750 c0 -23 4 -30 20 -30 11 0 20 6 20 13 0 7 -9 20 -20 30 -19
16 -20 16 -20 -13z"/>
<path d="M1681 745 c0 -16 3 -24 6 -17 2 6 11 12 18 12 7 0 16 -6 18 -12 3 -7
6 0 6 16 1 25 -1 27 -15 15 -13 -10 -17 -10 -25 2 -6 10 -9 6 -8 -16z"/>
<path d="M2450 745 c0 -18 6 -22 26 -22 18 0 22 3 15 10 -7 7 -7 15 -1 23 8 8
4 12 -15 12 -19 0 -25 -6 -25 -23z"/>
<path d="M1870 724 c0 -8 5 -12 10 -9 6 4 8 11 5 16 -9 14 -15 11 -15 -7z"/>
<path d="M2160 726 c0 -9 5 -16 10 -16 6 0 10 4 10 9 0 6 -4 13 -10 16 -5 3
-10 -1 -10 -9z"/>
<path d="M2705 731 c-3 -5 -1 -12 5 -16 5 -3 10 1 10 9 0 18 -6 21 -15 7z"/>
<path d="M1462 643 c16 -4 17 -7 2 -35 -8 -16 -13 -32 -10 -35 2 -3 14 13 26
36 l20 41 -27 -1 c-17 -1 -21 -3 -11 -6z"/>
<path d="M1547 636 c-4 -9 0 -21 7 -28 7 -7 11 -20 9 -28 -3 -8 5 -4 17 9 11
13 19 31 18 40 -4 21 -44 26 -51 7z m35 -11 c0 -5 -5 -11 -11 -13 -6 -2 -11 4
-11 13 0 9 5 15 11 13 6 -2 11 -8 11 -13z"/>
<path d="M1618 645 c-8 -8 3 -65 13 -65 5 0 9 16 9 35 0 32 -8 43 -22 30z"/>
<path d="M1664 625 c-16 -24 -16 -27 -1 -43 15 -15 19 -15 32 -1 14 14 14 19
1 43 l-14 28 -18 -27z m26 -30 c0 -8 -4 -15 -10 -15 -5 0 -10 7 -10 15 0 8 5
15 10 15 6 0 10 -7 10 -15z"/>
<path d="M1770 641 c0 -6 6 -8 13 -5 10 3 14 -5 15 -27 1 -24 -2 -29 -11 -20
-16 16 -27 14 -20 -5 3 -8 15 -14 27 -12 17 2 21 10 21 38 0 29 -4 36 -22 38
-13 2 -23 -1 -23 -7z"/>
<path d="M1834 636 c-11 -29 1 -61 23 -64 17 -3 24 3 29 22 3 14 4 33 0 41 -7
19 -45 20 -52 1z m41 -6 c8 -13 -4 -50 -16 -50 -13 0 -22 27 -15 45 6 17 22
20 31 5z"/>
<path d="M1907 644 c-13 -13 -7 -65 8 -70 23 -9 46 16 43 45 -3 26 -35 41 -51
25z m38 -14 c8 -13 -4 -50 -16 -50 -13 0 -22 27 -15 45 6 17 22 20 31 5z"/>
<path d="M2020 630 c0 -14 6 -20 18 -18 10 2 17 -3 17 -12 0 -9 -7 -14 -20
-12 -16 3 -17 1 -8 -8 16 -17 43 -5 43 20 0 18 -10 25 -32 21 -16 -2 -7 18 10
22 13 4 11 5 -5 6 -17 1 -23 -5 -23 -19z"/>
<path d="M2080 630 c0 -14 7 -20 21 -20 12 0 19 -5 16 -12 -2 -7 -10 -12 -16
-10 -6 1 -11 -2 -11 -8 0 -15 26 -12 40 5 10 12 10 18 0 30 -7 8 -16 12 -21 9
-5 -3 -9 -1 -9 5 0 5 8 12 18 14 10 3 6 5 -10 6 -22 1 -28 -4 -28 -19z"/>
<path d="M2200 630 c0 -14 7 -20 21 -20 12 0 19 -5 16 -12 -2 -7 -13 -11 -23
-10 -15 3 -16 1 -7 -8 6 -7 19 -10 28 -6 22 8 16 51 -8 50 -22 -2 -22 13 1 19
13 4 11 5 -5 6 -17 1 -23 -5 -23 -19z"/>
<path d="M2264 639 c-4 -8 0 -9 15 -4 27 8 28 -11 1 -27 -29 -18 -25 -38 8
-37 16 1 20 3 10 6 -22 6 -23 19 -3 27 23 8 19 46 -4 46 -11 0 -23 -5 -27 -11z"/>
<path d="M2903 610 c0 -25 2 -35 4 -22 2 12 2 32 0 45 -2 12 -4 2 -4 -23z"/>
<path d="M1403 623 c-7 -3 -13 -8 -13 -13 0 -12 25 -19 39 -11 15 10 -8 31
-26 24z"/>
<path d="M2410 622 c0 -7 5 -23 11 -34 9 -17 13 -18 20 -7 8 12 10 12 18 0 7
-11 11 -9 21 9 l13 23 13 -24 c11 -21 13 -22 19 -6 7 17 8 17 20 0 12 -15 13
-15 19 5 8 25 26 30 26 8 0 -8 5 -18 10 -21 15 -9 12 18 -3 39 -12 17 -15 17
-28 4 -12 -14 -15 -14 -26 1 -11 15 -12 14 -18 -2 -7 -17 -8 -17 -21 0 -13 17
-15 17 -25 -1 -9 -15 -13 -16 -21 -5 -8 11 -11 12 -15 1 -4 -10 -8 -9 -19 5
-9 12 -13 13 -14 5z"/>
<path d="M2646 615 c-6 -16 -9 -17 -16 -5 -5 8 -12 11 -15 8 -4 -4 0 -16 8
-28 l15 -22 12 22 c6 11 10 26 7 33 -2 6 -7 2 -11 -8z"/>
<path d="M2700 617 c0 -7 6 -19 13 -26 10 -11 10 -13 0 -7 -7 4 -13 2 -13 -3
0 -14 27 -14 35 0 4 6 -1 17 -11 25 -11 9 -13 13 -6 9 6 -3 12 -1 12 4 0 6 -7
11 -15 11 -8 0 -15 -6 -15 -13z"/>
<path d="M2754 616 c-9 -24 4 -48 23 -44 12 2 18 12 18 28 0 29 -32 41 -41 16z
m31 -26 c-5 -8 -11 -8 -17 -2 -6 6 -7 16 -3 22 5 8 11 8 17 2 6 -6 7 -16 3
-22z"/>
<path d="M2844 615 c-13 -33 24 -63 41 -34 4 6 0 9 -10 7 -10 -2 -20 3 -22 10
-3 7 4 12 17 12 12 0 18 5 15 10 -9 15 -35 12 -41 -5z"/>
<path d="M2932 605 c0 -16 2 -22 5 -12 2 9 2 23 0 30 -3 6 -5 -1 -5 -18z"/>
<path d="M2957 623 c-11 -10 -8 -43 3 -43 6 0 10 7 10 15 0 21 18 19 23 -2 3
-11 5 -7 6 10 1 20 -4 27 -17 27 -10 0 -22 -3 -25 -7z"/>
<path d="M3022 600 c0 -19 2 -27 5 -17 2 9 2 25 0 35 -3 9 -5 1 -5 -18z"/>
<path d="M3050 614 c-18 -21 13 -55 32 -36 9 9 8 12 -5 12 -9 0 -17 5 -17 10
0 6 7 10 16 10 8 0 12 5 9 10 -9 14 -21 12 -35 -6z"/>
<path d="M3141 603 c0 -16 3 -22 6 -13 3 8 10 21 16 28 7 8 5 12 -7 12 -11 0
-16 -8 -15 -27z"/>
<path d="M3181 602 c-1 -29 2 -33 22 -30 22 3 39 48 18 48 -6 0 -11 -10 -11
-22 0 -25 -15 -14 -23 17 -3 13 -5 8 -6 -13z"/>
<path d="M2810 600 c0 -11 5 -20 10 -20 6 0 10 9 10 20 0 11 -4 20 -10 20 -5
0 -10 -9 -10 -20z"/>
<path d="M1508 603 c6 -2 18 -2 25 0 6 3 1 5 -13 5 -14 0 -19 -2 -12 -5z"/>
<path d="M1728 603 c7 -3 16 -2 19 1 4 3 -2 6 -13 5 -11 0 -14 -3 -6 -6z"/>
<path d="M1978 603 c6 -2 18 -2 25 0 6 3 1 5 -13 5 -14 0 -19 -2 -12 -5z"/>
<path d="M2158 603 c7 -3 16 -2 19 1 4 3 -2 6 -13 5 -11 0 -14 -3 -6 -6z"/>
<path d="M2330 574 c0 -8 5 -12 10 -9 6 4 8 11 5 16 -9 14 -15 11 -15 -7z"/>
</g>
</svg>
