<svg width="208" height="208" viewBox="0 0 208 208" fill="none" xmlns="http://www.w3.org/2000/svg">
<path d="M63.6398 117.231C59.9453 117.231 56.9409 120.236 56.9409 123.93C56.9409 127.625 59.9453 130.629 63.6398 130.629C67.3342 130.629 70.3387 127.625 70.3387 123.93C70.3387 120.236 67.3342 117.231 63.6398 117.231ZM63.6398 137.328C56.2509 137.328 50.2419 131.319 50.2419 123.93C50.2419 116.541 56.2509 110.532 63.6398 110.532C71.0287 110.532 77.0376 116.541 77.0376 123.93C77.0376 131.319 71.0287 137.328 63.6398 137.328Z" fill="black"/>
<path d="M127.28 137.328H63.6397C61.7875 137.328 60.2903 135.831 60.2903 133.978C60.2903 132.126 61.7875 130.629 63.6397 130.629H127.28C129.132 130.629 130.629 132.126 130.629 133.978C130.629 135.831 129.132 137.328 127.28 137.328Z" fill="black"/>
<path d="M197.618 137.328H140.677C138.825 137.328 137.328 135.831 137.328 133.978C137.328 132.126 138.825 130.629 140.677 130.629H197.618C199.467 130.629 200.968 129.128 200.968 127.28C200.968 125.431 199.467 123.93 197.618 123.93H73.6881C71.8358 123.93 70.3386 122.433 70.3386 120.581C70.3386 118.728 71.8358 117.231 73.6881 117.231H197.618C203.158 117.231 207.667 121.74 207.667 127.28C207.667 132.82 203.158 137.328 197.618 137.328Z" fill="black"/>
<path d="M140.677 150.726H80.387C71.1525 150.726 63.6396 143.213 63.6396 133.978C63.6396 132.126 65.1369 130.629 66.9891 130.629C68.8414 130.629 70.3386 132.126 70.3386 133.978C70.3386 139.518 74.8469 144.027 80.387 144.027H140.677C146.217 144.027 150.726 139.518 150.726 133.978C150.726 132.126 152.223 130.629 154.075 130.629C155.927 130.629 157.425 132.126 157.425 133.978C157.425 143.213 149.912 150.726 140.677 150.726Z" fill="black"/>
<path d="M57.5136 200.968H163.551C162.168 197.069 158.443 194.269 154.075 194.269H66.9893C62.6216 194.269 58.8969 197.069 57.5136 200.968ZM167.473 207.667H53.5914C51.7392 207.667 50.2419 206.169 50.2419 204.317C50.2419 195.083 57.7548 187.57 66.9893 187.57H154.075C163.31 187.57 170.823 195.083 170.823 204.317C170.823 206.169 169.325 207.667 167.473 207.667Z" fill="black"/>
<path d="M93.785 194.269C91.9328 194.269 90.4355 192.772 90.4355 190.919V147.376C90.4355 145.524 91.9328 144.027 93.785 144.027C95.6373 144.027 97.1345 145.524 97.1345 147.376V190.919C97.1345 192.772 95.6373 194.269 93.785 194.269Z" fill="black"/>
<path d="M127.279 194.269C125.427 194.269 123.93 192.772 123.93 190.919V147.376C123.93 145.524 125.427 144.027 127.279 144.027C129.132 144.027 130.629 145.524 130.629 147.376V190.919C130.629 192.772 129.132 194.269 127.279 194.269Z" fill="black"/>
<path d="M53.5881 130.07C52.9082 130.07 52.2249 129.862 51.6287 129.437L4.16344 95.1549C1.55756 93.2725 0 90.2278 0 87.0123V56.9408C0 51.4008 4.50838 46.8924 10.0484 46.8924C15.5884 46.8924 20.0968 51.4008 20.0968 56.9408V78.6621L65.5858 111.159C67.0898 112.23 67.4414 114.324 66.3629 115.828C65.291 117.335 63.201 117.687 61.6937 116.605L14.8013 83.1101C13.9203 82.4838 13.3979 81.4689 13.3979 80.387V56.9408C13.3979 55.0919 11.8973 53.5913 10.0484 53.5913C8.19948 53.5913 6.69893 55.0919 6.69893 56.9408V87.0123C6.69893 88.0841 7.21806 89.099 8.08892 89.7253L55.5541 124.004C57.0513 125.089 57.3896 127.182 56.3078 128.683C55.6513 129.587 54.6298 130.07 53.5881 130.07Z" fill="black"/>
<path d="M133.978 123.93C132.126 123.93 130.629 122.433 130.629 120.581V97.1343H36.8438C34.9916 97.1343 33.4944 95.6371 33.4944 93.7848C33.4944 91.9326 34.9916 90.4354 36.8438 90.4354H133.978C135.831 90.4354 137.328 91.9326 137.328 93.7848V120.581C137.328 122.433 135.831 123.93 133.978 123.93Z" fill="black"/>
<path d="M187.57 123.93C185.717 123.93 184.22 122.433 184.22 120.581V87.0859C184.22 85.2337 185.717 83.7364 187.57 83.7364C189.422 83.7364 190.919 85.2337 190.919 87.0859V120.581C190.919 122.433 189.422 123.93 187.57 123.93Z" fill="black"/>
<path d="M174.172 123.93C172.32 123.93 170.823 122.433 170.823 120.581V93.7848C170.823 91.9326 172.32 90.4354 174.172 90.4354C176.024 90.4354 177.521 91.9326 177.521 93.7848V120.581C177.521 122.433 176.024 123.93 174.172 123.93Z" fill="black"/>
<path d="M150.726 70.3388C150.726 81.4221 159.739 90.4355 170.822 90.4355C181.906 90.4355 190.919 81.4221 190.919 70.3388H150.726ZM170.822 97.1345C156.048 97.1345 144.027 85.1132 144.027 70.3388V66.9893C144.027 65.137 145.524 63.6398 147.376 63.6398H194.269C196.121 63.6398 197.618 65.137 197.618 66.9893V70.3388C197.618 85.1132 185.597 97.1345 170.822 97.1345Z" fill="black"/>
<path d="M187.57 70.3388C185.718 70.3388 184.22 68.8416 184.22 66.9893V56.941H177.521V66.9893C177.521 68.8416 176.024 70.3388 174.172 70.3388C172.32 70.3388 170.823 68.8416 170.823 66.9893V53.5915C170.823 51.7392 172.32 50.242 174.172 50.242H187.57C189.422 50.242 190.919 51.7392 190.919 53.5915V66.9893C190.919 68.8416 189.422 70.3388 187.57 70.3388Z" fill="black"/>
<path d="M180.871 56.9409C179.018 56.9409 177.521 55.4436 177.521 53.5914V30.1452C177.521 26.4507 174.517 23.4462 170.822 23.4462C167.128 23.4462 164.123 26.4507 164.123 30.1452V36.8441C164.123 38.6963 162.626 40.1935 160.774 40.1935C158.922 40.1935 157.424 38.6963 157.424 36.8441V30.1452C157.424 22.7562 163.433 16.7473 170.822 16.7473C178.211 16.7473 184.22 22.7562 184.22 30.1452V53.5914C184.22 55.4436 182.723 56.9409 180.871 56.9409Z" fill="black"/>
<path d="M164.123 50.2418C164.123 52.0941 162.626 53.5913 160.774 53.5913C158.922 53.5913 157.424 52.0941 157.424 50.2418C157.424 48.3896 158.922 46.8924 160.774 46.8924C162.626 46.8924 164.123 48.3896 164.123 50.2418Z" fill="black"/>
<path d="M127.279 97.1345C125.427 97.1345 123.93 95.6373 123.93 93.785V77.0377H110.532V93.785C110.532 95.6373 109.035 97.1345 107.182 97.1345C105.33 97.1345 103.833 95.6373 103.833 93.785V73.6882C103.833 71.836 105.33 70.3388 107.182 70.3388H127.279C129.131 70.3388 130.629 71.836 130.629 73.6882V93.785C130.629 95.6373 129.131 97.1345 127.279 97.1345Z" fill="black"/>
<path d="M110.532 77.0377C108.68 77.0377 107.183 75.5404 107.183 73.6882V33.4947C107.183 26.1057 101.174 20.0968 93.7848 20.0968C86.3958 20.0968 80.3869 26.1057 80.3869 33.4947V36.8441C80.3869 38.6964 78.8897 40.1936 77.0375 40.1936C75.1852 40.1936 73.688 38.6964 73.688 36.8441V33.4947C73.688 22.4113 82.7014 13.3979 93.7848 13.3979C104.868 13.3979 113.882 22.4113 113.882 33.4947V73.6882C113.882 75.5404 112.384 77.0377 110.532 77.0377Z" fill="black"/>
<path d="M123.93 77.0377C122.078 77.0377 120.581 75.5404 120.581 73.6882V33.4946C120.581 18.7202 108.559 6.69894 93.7849 6.69894C79.0104 6.69894 66.9892 18.7202 66.9892 33.4946V36.8441C66.9892 38.6964 65.492 40.1936 63.6397 40.1936C61.7875 40.1936 60.2903 38.6964 60.2903 36.8441V33.4946C60.2903 15.0257 75.316 2.28882e-05 93.7849 2.28882e-05C112.254 2.28882e-05 127.28 15.0257 127.28 33.4946V73.6882C127.28 75.5404 125.782 77.0377 123.93 77.0377Z" fill="black"/>
<path d="M50.2416 46.8924H90.4352V40.1935H50.2416V46.8924ZM93.7847 53.5913H46.8922C45.0399 53.5913 43.5427 52.0941 43.5427 50.2418V36.844C43.5427 34.9917 45.0399 33.4945 46.8922 33.4945H93.7847C95.6369 33.4945 97.1341 34.9917 97.1341 36.844V50.2418C97.1341 52.0941 95.6369 53.5913 93.7847 53.5913Z" fill="black"/>
</svg>
