<svg width="129" height="129" viewBox="0 0 129 129" fill="none" xmlns="http://www.w3.org/2000/svg">
<path d="M58.1075 91.313C48.9537 91.313 41.5054 98.7612 41.5054 107.915C41.5054 117.069 48.9537 124.517 58.1075 124.517C67.2613 124.517 74.7097 117.069 74.7097 107.915C74.7097 98.7612 67.2613 91.313 58.1075 91.313ZM58.1075 128.668C46.6651 128.668 37.3549 119.358 37.3549 107.915C37.3549 96.4722 46.6651 87.1625 58.1075 87.1625C69.5499 87.1625 78.8602 96.4722 78.8602 107.915C78.8602 119.358 69.5499 128.668 58.1075 128.668Z" fill="black"/>
<path d="M51.8791 91.3132C50.7792 91.3132 49.8616 90.4478 49.8089 89.3376L46.053 10.467C45.8851 6.92662 42.9742 4.152 39.43 4.152C35.8859 4.152 32.9749 6.92662 32.807 10.467L29.0512 89.3376C28.997 90.4852 28.0202 91.3983 26.8788 91.3111C25.7341 91.2572 24.8504 90.2839 24.9057 89.1383L28.6604 10.2678C28.9346 4.51102 33.6664 0.00146484 39.43 0.00146484C45.1937 0.00146484 49.9255 4.51102 50.1996 10.2678L53.9544 89.1383C54.0096 90.2839 53.126 91.2572 51.9812 91.3111C51.9466 91.3132 51.914 91.3132 51.8791 91.3132Z" fill="black"/>
<path d="M39.4301 109.99C38.2831 109.99 37.3548 109.063 37.3548 107.915V66.4099H29.0538C27.9068 66.4099 26.9785 65.4822 26.9785 64.3346C26.9785 63.187 27.9068 62.2593 29.0538 62.2593H39.4301C40.5771 62.2593 41.5054 63.187 41.5054 64.3346V107.915C41.5054 109.063 40.5771 109.99 39.4301 109.99Z" fill="black"/>
<path d="M41.5054 56.0336C41.5054 57.1812 40.5771 58.1089 39.4301 58.1089C38.2831 58.1089 37.3549 57.1812 37.3549 56.0336C37.3549 54.886 38.2831 53.9584 39.4301 53.9584C40.5771 53.9584 41.5054 54.886 41.5054 56.0336Z" fill="black"/>
<path d="M49.8064 49.8076H29.0538C27.9068 49.8076 26.9785 48.88 26.9785 47.7324C26.9785 46.5847 27.9068 45.6571 29.0538 45.6571H49.8064C50.9535 45.6571 51.8817 46.5847 51.8817 47.7324C51.8817 48.88 50.9535 49.8076 49.8064 49.8076Z" fill="black"/>
<path d="M39.4301 49.8076C38.2831 49.8076 37.3549 48.88 37.3549 47.7324V2.07648C37.3549 0.928856 38.2831 0.00121307 39.4301 0.00121307C40.5771 0.00121307 41.5054 0.928856 41.5054 2.07648V47.7324C41.5054 48.88 40.5771 49.8076 39.4301 49.8076Z" fill="black"/>
<path d="M48.4648 113.763C47.6363 113.763 46.8533 113.265 46.5337 112.448C45.9518 110.966 45.6559 109.441 45.6559 107.915C45.6559 101.048 51.2413 95.4637 58.1075 95.4637C59.6338 95.4637 61.1571 95.7605 62.639 96.3416C63.7066 96.7608 64.232 97.9644 63.812 99.0311C63.393 100.1 62.185 100.619 61.1231 100.204C60.1261 99.8135 59.1111 99.6143 58.1075 99.6143C53.529 99.6143 49.8064 103.337 49.8064 107.915C49.8064 108.918 50.005 109.935 50.3966 110.931C50.8156 111.997 50.2912 113.201 49.2228 113.62C48.973 113.718 48.7186 113.763 48.4648 113.763Z" fill="black"/>
<path d="M58.1075 120.367C56.5812 120.367 55.0579 120.07 53.576 119.489C52.5084 119.07 51.983 117.866 52.403 116.8C52.8197 115.731 54.0284 115.212 55.0919 115.627C56.0889 116.017 57.1047 116.216 58.1075 116.216C62.6862 116.216 66.4086 112.493 66.4086 107.915C66.4086 106.913 66.21 105.896 65.8184 104.9C65.3994 103.833 65.9246 102.63 66.9923 102.21C68.0582 101.797 69.2646 102.314 69.6813 103.383C70.2632 104.865 70.5591 106.39 70.5591 107.915C70.5591 114.782 64.9737 120.367 58.1075 120.367Z" fill="black"/>
<path d="M20.7527 91.313C11.5989 91.313 4.15053 98.7612 4.15053 107.915C4.15053 117.069 11.5989 124.517 20.7527 124.517C29.9065 124.517 37.3548 117.069 37.3548 107.915C37.3548 98.7612 29.9065 91.313 20.7527 91.313ZM20.7527 128.668C9.31027 128.668 0 119.358 0 107.915C0 96.4722 9.31027 87.1625 20.7527 87.1625C32.1951 87.1625 41.5053 96.4722 41.5053 107.915C41.5053 119.358 32.1951 128.668 20.7527 128.668Z" fill="black"/>
<path d="M11.11 113.763C10.2816 113.763 9.49858 113.265 9.17899 112.448C8.59708 110.966 8.30115 109.441 8.30115 107.915C8.30115 101.048 13.8865 95.4637 20.7527 95.4637C22.2791 95.4637 23.8024 95.7605 25.2843 96.3416C26.3518 96.7608 26.8773 97.9644 26.4572 99.0311C26.0405 100.1 24.8319 100.619 23.7683 100.204C22.7714 99.8135 21.7563 99.6143 20.7527 99.6143C16.1743 99.6143 12.4517 103.337 12.4517 107.915C12.4517 108.918 12.6503 109.935 13.0419 110.931C13.4609 111.997 12.9365 113.201 11.8681 113.62C11.6183 113.718 11.3638 113.763 11.11 113.763Z" fill="black"/>
<path d="M20.7528 120.367C19.2264 120.367 17.7032 120.07 16.2212 119.489C15.1537 119.07 14.6282 117.866 15.0483 116.8C15.465 115.731 16.6736 115.212 17.7372 115.627C18.7342 116.017 19.75 116.216 20.7528 116.216C25.3314 116.216 29.0538 112.493 29.0538 107.915C29.0538 106.913 28.8552 105.896 28.4636 104.9C28.0446 103.833 28.5699 102.63 29.6376 102.21C30.7012 101.797 31.9098 102.314 32.3265 103.383C32.9084 104.865 33.2044 106.39 33.2044 107.915C33.2044 114.782 27.619 120.367 20.7528 120.367Z" fill="black"/>
<path d="M124.516 66.4098C123.369 66.4098 122.441 65.4821 122.441 64.3345V51.4368C122.441 41.3842 114.261 33.2055 104.209 33.2055C97.6106 33.2055 91.9709 28.2706 91.3701 21.97C90.8172 16.1718 94.3502 10.7055 99.6128 8.80867V4.55853C91.9846 6.51343 86.6692 13.7001 87.1978 21.8621C87.7595 30.5513 95.3189 37.3561 104.404 37.3561C112.06 37.3561 118.29 43.586 118.29 51.2416V64.3345C118.29 65.4821 117.362 66.4098 116.215 66.4098C115.068 66.4098 114.14 65.4821 114.14 64.3345V51.2416C114.14 45.8729 109.772 41.5066 104.404 41.5066C93.1357 41.5066 83.7588 32.9938 83.0553 22.1298C82.3321 10.9483 90.4161 1.23397 101.461 0.0137177C102.045 -0.0526962 102.633 0.136154 103.073 0.530457C103.512 0.922676 103.763 1.48714 103.763 2.07652V10.3776C103.763 11.3654 103.068 12.2163 102.102 12.4114C97.99 13.2456 95.0919 17.2716 95.5013 21.5757C95.9016 25.7698 99.7264 29.055 104.209 29.055C116.551 29.055 126.591 39.0951 126.591 51.4368V64.3345C126.591 65.4821 125.663 66.4098 124.516 66.4098Z" fill="black"/>
<path d="M116.215 66.4098V120.367C116.215 122.656 118.078 124.517 120.366 124.517C122.653 124.517 124.516 122.656 124.516 120.367V66.4098H116.215ZM120.366 128.668C115.787 128.668 112.064 124.945 112.064 120.367V64.3346C112.064 63.187 112.993 62.2593 114.14 62.2593H126.591C127.738 62.2593 128.667 63.187 128.667 64.3346V120.367C128.667 124.945 124.944 128.668 120.366 128.668Z" fill="black"/>
<path d="M87.1612 66.4098C86.0142 66.4098 85.0859 65.4821 85.0859 64.3345V51.4368C85.0859 45.296 87.5219 39.5683 91.948 35.3098C92.7733 34.515 94.0882 34.5399 94.8826 35.3659C95.6771 36.1897 95.6528 37.5055 94.826 38.3003C91.2225 41.7702 89.2365 46.4354 89.2365 51.4368V64.3345C89.2365 65.4821 88.3082 66.4098 87.1612 66.4098Z" fill="black"/>
<path d="M118.293 38.1509C117.623 38.1509 116.969 37.8292 116.568 37.2315C115.929 36.281 116.183 34.9902 117.133 34.3531C121.476 31.4332 124.155 26.8822 124.479 21.8621C125.008 13.7001 119.693 6.51341 112.064 4.55851V8.80865C117.327 10.7054 120.86 16.1717 120.307 21.97C119.706 28.2705 114.067 33.2055 107.468 33.2055C106.321 33.2055 105.393 32.2779 105.393 31.1302C105.393 29.9826 106.321 29.055 107.468 29.055C111.951 29.055 115.776 25.7698 116.176 21.5757C116.585 17.2716 113.687 13.2456 109.576 12.4113C108.609 12.2163 107.914 11.3654 107.914 10.3776V2.0765C107.914 1.48712 108.165 0.922661 108.605 0.530437C109.045 0.136135 109.63 -0.0547867 110.216 0.0136948C121.261 1.23395 129.345 10.9482 128.622 22.1298C128.213 28.4448 124.869 34.1559 119.447 37.798C119.093 38.0367 118.69 38.1509 118.293 38.1509Z" fill="black"/>
<path d="M95.4622 66.4098C94.3152 66.4098 93.387 65.4821 93.387 64.3345V51.2416C93.387 44.2272 98.6318 38.3003 105.59 37.4577C106.744 37.3311 107.762 38.1301 107.9 39.2694C108.038 40.4067 107.225 41.4423 106.087 41.5792C101.214 42.1686 97.5375 46.3233 97.5375 51.2416V64.3345C97.5375 65.4821 96.6092 66.4098 95.4622 66.4098Z" fill="black"/>
<path d="M87.1613 66.4098V120.367C87.1613 122.656 89.0242 124.517 91.3118 124.517C93.5994 124.517 95.4623 122.656 95.4623 120.367V66.4098H87.1613ZM91.3118 128.668C86.7334 128.668 83.0107 124.945 83.0107 120.367V64.3346C83.0107 63.187 83.939 62.2593 85.086 62.2593H97.5376C98.6846 62.2593 99.6129 63.187 99.6129 64.3346V120.367C99.6129 124.945 95.8905 128.668 91.3118 128.668Z" fill="black"/>
<path d="M97.5376 83.0121H85.086C83.939 83.0121 83.0107 82.0844 83.0107 80.9368C83.0107 79.7892 83.939 78.8616 85.086 78.8616H97.5376C98.6846 78.8616 99.6129 79.7892 99.6129 80.9368C99.6129 82.0844 98.6846 83.0121 97.5376 83.0121Z" fill="black"/>
<path d="M97.5376 91.313H85.086C83.939 91.313 83.0107 90.3853 83.0107 89.2377C83.0107 88.0901 83.939 87.1625 85.086 87.1625H97.5376C98.6846 87.1625 99.6129 88.0901 99.6129 89.2377C99.6129 90.3853 98.6846 91.313 97.5376 91.313Z" fill="black"/>
<path d="M97.5376 99.614H85.086C83.939 99.614 83.0107 98.6864 83.0107 97.5387C83.0107 96.3911 83.939 95.4635 85.086 95.4635H97.5376C98.6846 95.4635 99.6129 96.3911 99.6129 97.5387C99.6129 98.6864 98.6846 99.614 97.5376 99.614Z" fill="black"/>
<path d="M126.591 83.0121H114.14C112.993 83.0121 112.064 82.0844 112.064 80.9368C112.064 79.7892 112.993 78.8616 114.14 78.8616H126.591C127.738 78.8616 128.667 79.7892 128.667 80.9368C128.667 82.0844 127.738 83.0121 126.591 83.0121Z" fill="black"/>
<path d="M126.591 91.313H114.14C112.993 91.313 112.064 90.3853 112.064 89.2377C112.064 88.0901 112.993 87.1625 114.14 87.1625H126.591C127.738 87.1625 128.667 88.0901 128.667 89.2377C128.667 90.3853 127.738 91.313 126.591 91.313Z" fill="black"/>
<path d="M126.591 99.614H114.14C112.993 99.614 112.064 98.6864 112.064 97.5387C112.064 96.3911 112.993 95.4635 114.14 95.4635H126.591C127.738 95.4635 128.667 96.3911 128.667 97.5387C128.667 98.6864 127.738 99.614 126.591 99.614Z" fill="black"/>
</svg>
